<svg width="0" height="0" class="hidden">
    <symbol xmlns="http://www.w3.org/2000/svg" width="13" height="24" viewBox="0 0 13 24" fill="none" id="angle">
        <path d="M12.4804 0.825931C12.8755 1.22104 12.9115 1.83931 12.5882 2.27499L12.4804 2.39981L2.88078 12L12.4804 21.6001C12.8755 21.9952 12.9115 22.6135 12.5882 23.0492L12.4804 23.174C12.0853 23.5691 11.4671 23.605 11.0314 23.2818L10.9065 23.174L0.519455 12.7869C0.124349 12.3918 0.0884302 11.7735 0.411698 11.3378L0.519455 11.213L10.9066 0.825931C11.3412 0.391315 12.0458 0.391315 12.4804 0.825931Z" fill="black"/>
    </symbol>
    <symbol fill="none" xmlns="http://www.w3.org/2000/svg" viewBox="0 0 24 24" id="arrow">
        <path fill-rule="evenodd" clip-rule="evenodd" d="M11.5303 5.46967C11.8232 5.76256 11.8232 6.23744 11.5303 6.53033L6.81066 11.25H19C19.4142 11.25 19.75 11.5858 19.75 12C19.75 12.4142 19.4142 12.75 19 12.75H6.81066L11.5303 17.4697C11.8232 17.7626 11.8232 18.2374 11.5303 18.5303C11.2374 18.8232 10.7626 18.8232 10.4697 18.5303L4.46967 12.5303C4.17678 12.2374 4.17678 11.7626 4.46967 11.4697L10.4697 5.46967C10.7626 5.17678 11.2374 5.17678 11.5303 5.46967Z" fill="#1D1D1D"></path>
    </symbol>
    <symbol fill="none" xmlns="http://www.w3.org/2000/svg" viewBox="0 0 24 24" id="cart">
        <path fill-rule="evenodd" clip-rule="evenodd" d="M20.5 6H7.58198L7.16573 4.47377C6.92843 3.60364 6.13811 3 5.2362 3H3C2.44772 3 2 3.44772 2 4C2 4.55228 2.44772 5 3 5H5.2362L7.79746 14.3913C8.06753 15.3815 9.04335 16.0066 10.0558 15.8378L20.3288 14.1257C21.2932 13.9649 22 13.1306 22 12.1529V7.5C22 6.67157 21.3284 6 20.5 6ZM7 21C8.10457 21 9 20.1046 9 19C9 17.8954 8.10457 17 7 17C5.89543 17 5 17.8954 5 19C5 20.1046 5.89543 21 7 21ZM17 21C18.1046 21 19 20.1046 19 19C19 17.8954 18.1046 17 17 17C15.8954 17 15 17.8954 15 19C15 20.1046 15.8954 21 17 21Z" fill="#D3112B"></path>
    </symbol>
    <symbol fill="none" xmlns="http://www.w3.org/2000/svg" viewBox="0 0 33 32" id="icon-search">
        <g opacity="0.99">
            <path fill-rule="evenodd" clip-rule="evenodd" d="M21.8015 19.7266C21.8015 19.7266 26.6013 24.3809 27.5417 25.2929L26.0833 26.7071L20.2247 21.0261C18.7907 21.957 17.0662 22.5 15.2109 22.5C10.2274 22.5 6.1875 18.5825 6.1875 13.75C6.1875 8.9175 10.2274 5 15.2109 5C20.1945 5 24.2344 8.9175 24.2344 13.75C24.2344 16.0609 23.3106 18.1625 21.8015 19.7266ZM15.2109 7C11.3726 7 8.25 10.028 8.25 13.75C8.25 17.472 11.3726 20.5 15.2109 20.5C19.0492 20.5 22.1719 17.472 22.1719 13.75C22.1719 10.028 19.0492 7 15.2109 7Z" fill="#D3112B"></path>
        </g>
    </symbol>
    <symbol fill="none" xmlns="http://www.w3.org/2000/svg" viewBox="0 0 24 24" id="lang">
        <path d="M5 8L11 14M4 14L10 8L12 5M2 5H14M7 2H8M22 22L17 12L12 22M14 18H20" stroke="#D3112B" stroke-width="2" stroke-linecap="round" stroke-linejoin="round"></path>
    </symbol>
    <symbol fill="none" xmlns="http://www.w3.org/2000/svg" viewBox="0 0 142 80" id="logo">
        <path fill-rule="evenodd" clip-rule="evenodd" d="M20.3704 31.7775H60.174V30.1031H20.3704V31.7775Z" fill="#D3112B"></path>
        <path fill-rule="evenodd" clip-rule="evenodd" d="M50.8642 34.8275H46.4643V50.4828H44.3594V39.8607C44.3594 38.9713 44.3085 38.4089 44.1433 37.8592C43.8246 36.7606 43.0842 35.5864 42.1536 35.1151C41.5918 34.8275 40.9418 34.7098 40.2658 34.7098C39.4756 34.7098 38.7352 34.8798 38.111 35.2722C37.2814 35.7824 36.6436 36.8912 36.3508 37.9642C36.2107 38.4611 36.1722 39.0101 36.1722 39.8607V50.4828H34.0683V34.8275H29.6681V50.4828H27.5896L27.5636 34.8275H23.3039V50.4828H21.2125V34.8275H20.3704V33.1531H60.1738V34.8275H59.3326V50.4828H57.2412V34.8275H52.9556V50.4828H50.8642V34.8275Z" fill="#D3112B"></path>
        <path fill-rule="evenodd" clip-rule="evenodd" d="M20.9651 27.507L22.1894 25.8325L23.4012 27.507L22.1894 29.1814L20.9651 27.507Z" fill="#D3112B"></path>
        <path fill-rule="evenodd" clip-rule="evenodd" d="M26.5131 57.2906C27.2266 57.6048 27.8391 58.3638 27.8391 59.4624C27.8391 60.8754 27.0864 61.7776 26.1299 62.0523C25.5432 62.2355 24.9316 62.2355 24.3708 62.2355H20.9647V52.6733H24.5744C25.0208 52.6733 25.5184 52.6859 26.0158 52.8171C26.8704 53.0523 27.6605 53.7851 27.6605 55.1326C27.6605 56.3752 26.9721 56.9769 26.5131 57.2256V57.2906ZM24.6376 56.8199C24.9701 56.8199 25.2753 56.7805 25.5307 56.6239C25.9004 56.4145 26.1559 55.9698 26.1559 55.3026C26.1559 54.6485 25.8496 54.2166 25.403 54.0601C25.1871 53.9683 24.9191 53.9417 24.5744 53.9417H22.4445V56.8199H24.6376ZM26.2961 59.4624C26.2961 58.7691 25.9648 58.3766 25.5691 58.2066C25.3138 58.1017 25.0208 58.0757 24.7655 58.0757H22.4445V60.9797H24.7405C25.0208 60.9797 25.2888 60.9537 25.5059 60.8754C26.0033 60.6788 26.2961 60.2209 26.2961 59.4624Z" fill="#D3112B"></path>
        <path fill-rule="evenodd" clip-rule="evenodd" d="M28.2829 27.4414C27.9642 27.3236 27.7346 27.0227 27.7346 26.6569C27.7346 26.1988 28.0918 25.8324 28.5509 25.8324C28.9974 25.8324 29.3546 26.1988 29.3546 26.6569C29.3546 27.0227 29.1375 27.3236 28.8188 27.4286L29.5966 29.0507H27.505L28.2829 27.4414Z" fill="#D3112B"></path>
        <path fill-rule="evenodd" clip-rule="evenodd" d="M39.6473 60.8356L38.6525 62.2352H29.291L34.3669 52.673H37.479V60.8751L39.6473 60.8356ZM36.0251 60.9399V53.8371H35.0563L31.3699 60.9399H36.0251Z" fill="#D3112B"></path>
        <path fill-rule="evenodd" clip-rule="evenodd" d="M34.0483 28.9307H46.4443V27.2562H34.0483V28.9307Z" fill="#D3112B"></path>
        <path fill-rule="evenodd" clip-rule="evenodd" d="M37.8139 25.881H42.839V24.2065H37.8139V25.881Z" fill="#D3112B"></path>
        <path fill-rule="evenodd" clip-rule="evenodd" d="M38.4092 19.7676H42.1081V18.106H38.4092V19.7676Z" fill="#D3112B"></path>
        <path fill-rule="evenodd" clip-rule="evenodd" d="M38.8057 21.1559H41.5349L40.1702 23.0396L38.8057 21.1559Z" fill="#D3112B"></path>
        <path fill-rule="evenodd" clip-rule="evenodd" d="M49.4588 52.673V62.2354H47.979V57.8007H43.2478V62.2354H41.7805V52.673H43.2478V56.4926H47.979V52.673H49.4588Z" fill="#D3112B"></path>
        <path fill-rule="evenodd" clip-rule="evenodd" d="M51.6787 27.4286C51.3599 27.3236 51.1428 27.0227 51.1428 26.6569C51.1428 26.1988 51.5001 25.8324 51.9467 25.8324C52.4056 25.8324 52.7628 26.1988 52.7628 26.6569C52.7628 27.0227 52.5333 27.3236 52.2145 27.4414L52.9924 29.0507H50.9008L51.6787 27.4286Z" fill="#D3112B"></path>
        <path fill-rule="evenodd" clip-rule="evenodd" d="M55.932 58.3368L53.3692 62.2351H51.8894L55.2311 57.3037L52.043 52.6729H53.8157L56.1366 56.0479L58.3422 52.6729H59.7711L56.8251 57.0682L60.3704 62.2351H58.6102L55.932 58.3368Z" fill="#D3112B"></path>
        <path fill-rule="evenodd" clip-rule="evenodd" d="M57.0434 27.5069L58.2552 25.8325L59.4796 27.5069L58.2552 29.1814L57.0434 27.5069Z" fill="#D3112B"></path>
        <path d="M72.065 18H79.0077C79.0467 18 79.0727 18.0261 79.0727 18.0651V19.0682C79.0727 19.1073 79.0467 19.1203 79.0077 19.1203H76.1214V27.0536C76.1214 27.0927 76.0954 27.1187 76.0564 27.1187H75.0163C74.9773 27.1187 74.9513 27.0927 74.9513 27.0536V19.1203H72.065C72.026 19.1203 72 19.1073 72 19.0682V18.0651C72 18.0261 72.026 18 72.065 18Z" fill="#E22C38"></path>
        <path d="M83.2161 19.8368L81.7729 23.5494H84.7242L83.2161 19.8368ZM80.4078 27.0796C80.3948 27.1057 80.3948 27.1187 80.3558 27.1187H79.2897C79.2377 27.1187 79.1987 27.0796 79.2247 27.0275L82.761 18.0391C82.774 18.013 82.787 18 82.826 18H83.6841C83.7101 18 83.7231 18.013 83.7361 18.0391L87.3505 27.0275C87.3635 27.0796 87.3375 27.1187 87.2855 27.1187H86.2064C86.1804 27.1187 86.1674 27.1057 86.1544 27.0796L85.1663 24.6306H81.3569L80.4078 27.0796Z" fill="#E22C38"></path>
        <path d="M80.0608 42.2862L80.7369 42.9506C80.7629 42.9636 80.7629 42.9896 80.7369 43.0287C79.8788 43.9666 78.7217 44.631 77.0445 44.631C74.3662 44.631 72.5591 42.6249 72.5591 39.9544C72.5591 37.2839 74.4442 35.2127 77.0835 35.2127C78.7217 35.2127 79.7878 35.8249 80.7759 36.9061C80.8019 36.9322 80.8019 36.9583 80.7759 36.9843L80.0348 37.6747C80.0088 37.7008 79.9698 37.7008 79.9438 37.6747C79.1637 36.8019 78.3316 36.3069 77.1485 36.3069C75.1073 36.3069 73.7682 37.8962 73.7682 39.9414C73.7682 41.9866 75.0163 43.5237 77.2265 43.5237C78.3056 43.5237 79.1637 43.1069 79.9698 42.2862C79.9958 42.2732 80.0218 42.2601 80.0608 42.2862Z" fill="#E22C38"></path>
        <path d="M85.3491 37.2058L83.906 40.9184H86.8573L85.3491 37.2058ZM82.5408 44.4486C82.5278 44.4747 82.5278 44.4877 82.4888 44.4877H81.4227C81.3707 44.4877 81.3317 44.4486 81.3577 44.3965L84.8941 35.4081C84.9071 35.382 84.9201 35.369 84.9591 35.369H85.8172C85.8432 35.369 85.8562 35.382 85.8692 35.4081L89.4835 44.3965C89.4965 44.4486 89.4705 44.4877 89.4185 44.4877H88.3394C88.3134 44.4877 88.3004 44.4747 88.2874 44.4486L87.2993 41.9996H83.4899L82.5408 44.4486Z" fill="#E22C38"></path>
        <path d="M98.0978 35.369H98.9169C98.9559 35.369 98.9689 35.382 98.9819 35.4341L101.075 44.4226C101.088 44.4617 101.062 44.4877 101.023 44.4877H99.957C99.918 44.4877 99.905 44.4747 99.892 44.4356L98.3058 37.5575L96.1736 42.8594C96.1606 42.8854 96.1476 42.8985 96.1086 42.8985H95.2115C95.1855 42.8985 95.1595 42.8854 95.1465 42.8594L92.9233 37.5445L91.4151 44.4356C91.4021 44.4747 91.3891 44.4877 91.3501 44.4877H90.31C90.271 44.4877 90.245 44.4617 90.258 44.4226L92.2992 35.4341C92.3122 35.382 92.3252 35.369 92.3642 35.369H93.1703C93.2093 35.369 93.2223 35.369 93.2483 35.4211L95.6926 41.2701L98.0198 35.4341C98.0458 35.369 98.0588 35.369 98.0978 35.369Z" fill="#E22C38"></path>
        <path d="M105.829 37.2058L104.386 40.9184H107.337L105.829 37.2058ZM103.02 44.4486C103.007 44.4747 103.007 44.4877 102.968 44.4877H101.902C101.85 44.4877 101.811 44.4486 101.837 44.3965L105.374 35.4081C105.387 35.382 105.4 35.369 105.439 35.369H106.297C106.323 35.369 106.336 35.382 106.349 35.4081L109.963 44.3965C109.976 44.4486 109.95 44.4877 109.898 44.4877H108.819C108.793 44.4877 108.78 44.4747 108.767 44.4486L107.779 41.9996H103.97L103.02 44.4486Z" fill="#E22C38"></path>
        <path d="M116.237 39.733V36.4242H114.144C113.143 36.4242 112.532 37.1667 112.532 38.0916C112.532 39.0556 113.195 39.733 114.235 39.733H116.237ZM112.038 44.4617C112.012 44.4877 111.999 44.4877 111.973 44.4877H110.751C110.686 44.4877 110.647 44.4226 110.699 44.3705L113.39 40.71C111.999 40.4234 111.375 39.3682 111.375 38.0916C111.375 36.5935 112.402 35.369 114.131 35.369H117.329C117.368 35.369 117.381 35.395 117.381 35.4341V44.4226C117.381 44.4617 117.368 44.4877 117.329 44.4877H116.289C116.263 44.4877 116.237 44.4617 116.237 44.4226V40.8011L114.69 40.7881L112.038 44.4617Z" fill="#E22C38"></path>
        <path d="M72.9751 61.7916V52.8031C72.9751 52.764 73.0011 52.738 73.0401 52.738H76.0434C77.6686 52.738 78.7217 53.5066 78.7217 55.0437C78.7217 55.9165 78.3446 56.5027 77.7596 56.8675C78.7607 57.2192 79.2677 58.079 79.2677 59.095C79.2677 60.6582 78.3186 61.8567 76.1994 61.8567H73.0401C73.0011 61.8567 72.9751 61.8307 72.9751 61.7916ZM74.1192 53.8192V56.5548H75.9654C76.9275 56.5548 77.5386 56.1119 77.5386 55.1219C77.5386 54.21 76.9665 53.8192 75.9914 53.8192H74.1192ZM74.1192 57.6751V60.7494H76.1734C77.2915 60.7494 78.0976 60.3195 78.0976 59.1602C78.0976 58.0659 77.3565 57.6751 76.3034 57.6751H74.1192Z" fill="#E22C38"></path>
        <path d="M89.9363 52.8031V61.7916C89.9363 61.8307 89.9103 61.8567 89.8713 61.8567H88.8572C88.8182 61.8567 88.7922 61.8307 88.7922 61.7916V52.8031C88.7922 52.764 88.8182 52.738 88.8572 52.738H89.8713C89.9103 52.738 89.9363 52.764 89.9363 52.8031ZM84.3458 61.8567H81.3945C81.3555 61.8567 81.3295 61.8307 81.3295 61.7916V52.8031C81.3295 52.764 81.3555 52.738 81.3945 52.738H82.4216C82.4606 52.738 82.4736 52.764 82.4736 52.8031V56.4767H84.5278C86.0619 56.4767 87.1671 57.5579 87.1671 59.1732C87.1671 60.6713 86.166 61.8567 84.3458 61.8567ZM84.3718 57.597H82.4866V60.7234H84.4498C85.4119 60.7234 85.9839 60.0851 85.9839 59.1732C85.9839 58.2483 85.4639 57.597 84.3718 57.597Z" fill="#E22C38"></path>
        <path d="M99.7279 59.6552L100.404 60.3195C100.43 60.3326 100.43 60.3586 100.404 60.3977C99.5458 61.3356 98.3887 62 96.7116 62C94.0333 62 92.2261 59.9939 92.2261 57.3234C92.2261 54.6529 94.1113 52.5817 96.7506 52.5817C98.3887 52.5817 99.4548 53.1939 100.443 54.2751C100.469 54.3012 100.469 54.3273 100.443 54.3533L99.7019 55.0437C99.6759 55.0698 99.6369 55.0698 99.6108 55.0437C98.8308 54.1709 97.9987 53.6759 96.8156 53.6759C94.7744 53.6759 93.4352 55.2652 93.4352 57.3104C93.4352 59.3556 94.6833 60.8927 96.8936 60.8927C97.9727 60.8927 98.8308 60.4759 99.6369 59.6552C99.6629 59.6422 99.6889 59.6291 99.7279 59.6552Z" fill="#E22C38"></path>
        <path d="M101.267 52.738H108.21C108.249 52.738 108.275 52.764 108.275 52.8031V53.8062C108.275 53.8453 108.249 53.8583 108.21 53.8583H105.324V61.7916C105.324 61.8307 105.298 61.8567 105.259 61.8567H104.218C104.179 61.8567 104.153 61.8307 104.153 61.7916V53.8583H101.267C101.228 53.8583 101.202 53.8453 101.202 53.8062V52.8031C101.202 52.764 101.228 52.738 101.267 52.738Z" fill="#E22C38"></path>
        <path d="M112.418 54.5748L110.975 58.2874H113.926L112.418 54.5748ZM109.61 61.8176C109.597 61.8437 109.597 61.8567 109.558 61.8567H108.492C108.44 61.8567 108.401 61.8176 108.427 61.7655L111.963 52.7771C111.976 52.751 111.989 52.738 112.028 52.738H112.886C112.912 52.738 112.925 52.751 112.938 52.7771L116.553 61.7655C116.566 61.8176 116.54 61.8567 116.488 61.8567H115.409C115.383 61.8567 115.37 61.8437 115.357 61.8176L114.368 59.3686H110.559L109.61 61.8176Z" fill="#E22C38"></path>
        <path d="M118.289 61.7916V52.8031C118.289 52.764 118.315 52.738 118.354 52.738H121.358C122.983 52.738 124.036 53.5066 124.036 55.0437C124.036 55.9165 123.659 56.5027 123.074 56.8675C124.075 57.2192 124.582 58.079 124.582 59.095C124.582 60.6582 123.633 61.8567 121.514 61.8567H118.354C118.315 61.8567 118.289 61.8307 118.289 61.7916ZM119.433 53.8192V56.5548H121.28C122.242 56.5548 122.853 56.1119 122.853 55.1219C122.853 54.21 122.281 53.8192 121.306 53.8192H119.433ZM119.433 57.6751V60.7494H121.488C122.606 60.7494 123.412 60.3195 123.412 59.1602C123.412 58.0659 122.671 57.6751 121.618 57.6751H119.433Z" fill="#E22C38"></path>
        <path d="M127.788 61.8046C127.788 61.8307 127.775 61.8567 127.736 61.8567H126.696C126.67 61.8567 126.644 61.8307 126.644 61.8046V52.7901C126.644 52.764 126.67 52.738 126.696 52.738H127.736C127.775 52.738 127.788 52.764 127.788 52.7901V54.9786C127.788 55.9035 127.762 56.3203 127.723 56.6069C128.009 56.2552 128.269 55.9556 128.672 55.5387L131.389 52.7771C131.415 52.751 131.428 52.738 131.467 52.738H132.832C132.884 52.738 132.897 52.7771 132.858 52.8031L129.569 56.138C129.231 56.5027 129.023 56.6721 128.75 56.9196C129.023 57.1541 129.322 57.4276 129.556 57.6751L133.534 61.7916C133.573 61.8176 133.56 61.8567 133.508 61.8567H132.078C132.039 61.8567 132.026 61.8437 132 61.8176L128.776 58.5479C128.282 58.0399 128.009 57.7403 127.723 57.4016C127.762 57.7533 127.788 58.2874 127.788 59.4989V61.8046Z" fill="#E22C38"></path>
        <path d="M137.862 54.5748L136.419 58.2874H139.37L137.862 54.5748ZM135.054 61.8176C135.041 61.8437 135.041 61.8567 135.002 61.8567H133.936C133.884 61.8567 133.845 61.8176 133.871 61.7655L137.407 52.7771C137.42 52.751 137.433 52.738 137.472 52.738H138.33C138.356 52.738 138.369 52.751 138.382 52.7771L141.997 61.7655C142.01 61.8176 141.984 61.8567 141.932 61.8567H140.853C140.827 61.8567 140.814 61.8437 140.801 61.8176L139.812 59.3686H136.003L135.054 61.8176Z" fill="#E22C38"></path>
    </symbol>
    <symbol fill="none" xmlns="http://www.w3.org/2000/svg" viewBox="0 0 24 25" id="ticket">
        <path d="M16.5 6.5V7.25M16.5 10.25V11M16.5 14V14.75M16.5 17.75V18.5M7.5 13.25H12.75M7.5 15.5H10.5M3.375 5.75C2.754 5.75 2.25 6.254 2.25 6.875V9.901C2.70675 10.164 3.08612 10.5427 3.34992 10.9989C3.61371 11.4552 3.7526 11.973 3.7526 12.5C3.7526 13.027 3.61371 13.5448 3.34992 14.0011C3.08612 14.4573 2.70675 14.836 2.25 15.099V18.125C2.25 18.746 2.754 19.25 3.375 19.25H20.625C21.246 19.25 21.75 18.746 21.75 18.125V15.099C21.2933 14.836 20.9139 14.4573 20.6501 14.0011C20.3863 13.5448 20.2474 13.027 20.2474 12.5C20.2474 11.973 20.3863 11.4552 20.6501 10.9989C20.9139 10.5427 21.2933 10.164 21.75 9.901V6.875C21.75 6.254 21.246 5.75 20.625 5.75H3.375Z" stroke="white" stroke-width="1.5" stroke-linecap="round" stroke-linejoin="round"></path>
    </symbol>
    <symbol xmlns="http://www.w3.org/2000/svg" width="24" height="23" viewBox="0 0 24 23" fill="none" id="mini-angle">
        <path d="M7.11703 7.85715L11.707 12.1954L16.297 7.85715L17.707 9.19271L11.707 14.876L5.70703 9.19271L7.11703 7.85715Z" fill="#262626"/>
    </symbol>
    <symbol xmlns="http://www.w3.org/2000/svg" width="12" height="12" viewBox="0 0 12 12" fill="none" id="arrow-short">
        <path opacity="0.6" d="M2.85355 7.85355C2.65829 8.04882 2.34171 8.04882 2.14645 7.85355C1.95118 7.65829 1.95118 7.34171 2.14645 7.14645L5.46967 3.82322C5.76256 3.53033 6.23744 3.53033 6.53033 3.82322L9.85355 7.14645C10.0488 7.34171 10.0488 7.65829 9.85355 7.85355C9.65829 8.04882 9.34171 8.04882 9.14645 7.85355L6 4.70711L2.85355 7.85355Z" fill="#85889E"/>
    </symbol>
    <symbol xmlns="http://www.w3.org/2000/svg" width="32" height="32" viewBox="0 0 32 32" fill="none" id="vk">
        <path fill-rule="evenodd" clip-rule="evenodd" d="M27.9774 23.7406H25.1378C24.0626 23.7406 23.7318 22.8861 21.8019 20.9291C20.1202 19.3029 19.3759 19.0824 18.9623 19.0824C18.3834 19.0824 18.218 19.2478 18.218 20.0471V22.6105C18.218 23.2996 17.9974 23.713 16.1779 23.713C13.1729 23.713 9.83707 21.8939 7.49372 18.5036C3.96491 13.5422 3 9.82111 3 9.04934C3 8.63588 3.16541 8.25 3.96491 8.25H6.8045C7.52129 8.25 7.79698 8.58076 8.07266 9.35253C9.47867 13.4043 11.822 16.96 12.7869 16.96C13.1453 16.96 13.3107 16.7946 13.3107 15.885V11.6954C13.2005 9.76598 12.1804 9.6006 12.1804 8.91152C12.1804 8.58076 12.4561 8.25 12.8972 8.25H17.3634C17.9699 8.25 18.1904 8.58076 18.1904 9.29741V14.9479C18.1904 15.5543 18.4661 15.7748 18.6315 15.7748C18.9899 15.7748 19.2932 15.5543 19.9548 14.8928C21.9949 12.605 23.4561 9.0769 23.4561 9.0769C23.649 8.66345 23.9799 8.27756 24.6967 8.27756H27.5363C28.3909 8.27756 28.5839 8.71857 28.3909 9.32497C28.0325 10.9788 24.5588 15.885 24.5588 15.885C24.2556 16.3812 24.1453 16.6017 24.5588 17.153C24.8621 17.5664 25.8546 18.4209 26.5162 19.1927C27.7292 20.5708 28.6666 21.7285 28.9147 22.5278C29.1904 23.3272 28.7768 23.7406 27.9774 23.7406Z" fill="#7A7A7C"/>
    </symbol>
    <symbol xmlns="http://www.w3.org/2000/svg" width="32" height="32" viewBox="0 0 32 32" fill="none" id="ok">
        <path d="M16.0125 16.3802C19.4244 16.3802 22.2124 13.6117 22.2124 10.1803C22.1929 6.76848 19.4244 4 16.0125 4C12.6007 4 9.81269 6.76848 9.81269 10.1998C9.81269 13.6117 12.5812 16.3802 16.0125 16.3802ZM16.0125 7.62632C17.4358 7.62632 18.586 8.77661 18.586 10.1998C18.586 11.6036 17.4358 12.7539 16.0125 12.7539C14.6088 12.7539 13.439 11.6036 13.439 10.1998C13.439 8.77661 14.5893 7.62632 16.0125 7.62632Z" fill="#7A7A7C"/>
        <path d="M18.5081 21.4297C19.7753 21.1373 20.9841 20.6499 22.0954 19.948C22.9337 19.4216 23.2067 18.2908 22.6608 17.4525C22.1344 16.5946 21.0036 16.3412 20.1653 16.8871C17.6307 18.4858 14.3553 18.4858 11.8208 16.8871C10.9825 16.3412 9.87118 16.5946 9.32529 17.4525C8.79888 18.2908 9.05234 19.4216 9.89068 19.948C11.002 20.6499 12.2302 21.1568 13.478 21.4297L10.0272 24.9001C9.32529 25.6019 9.32529 26.7522 10.0272 27.4736C10.3781 27.8245 10.846 28 11.3139 28C11.7818 28 12.2497 27.8245 12.6007 27.4736L15.993 24.0617L19.4049 27.4736C20.1068 28.1755 21.2571 28.1755 21.9784 27.4736C22.6803 26.7717 22.6803 25.6214 21.9784 24.9001L18.5081 21.4297Z" fill="#7A7A7C"/>
    </symbol>
    <symbol xmlns="http://www.w3.org/2000/svg" width="32" height="32" viewBox="0 0 32 32" fill="none" id="yt">
        <path d="M28.4534 9.70575C28.158 8.58303 27.2716 7.69666 26.1489 7.38643C24.125 6.83984 16 6.83984 16 6.83984C16 6.83984 7.875 6.83984 5.83636 7.38643C4.71364 7.68189 3.84205 8.56825 3.53182 9.70575C3 11.7444 3 15.9989 3 15.9989C3 15.9989 3 20.2535 3.54659 22.2921C3.84205 23.4148 4.72841 24.3012 5.85114 24.6114C7.875 25.158 16 25.158 16 25.158C16 25.158 24.125 25.158 26.1636 24.6114C27.2864 24.316 28.158 23.4296 28.4682 22.2921C29 20.2535 29 15.9989 29 15.9989C29 15.9989 29 11.7444 28.4534 9.70575ZM13.3409 19.8694V12.1285L20.1364 15.9989L13.3409 19.8694Z" fill="#7A7A7C"/>
    </symbol>
    <symbol fill="none" xmlns="http://www.w3.org/2000/svg" viewBox="0 0 32 32" id="zen">
        <path fill-rule="evenodd" clip-rule="evenodd" d="M18.4366 18.1636C16.5393 20.0807 16.4059 22.4843 16.2452 27.7402C21.2043 27.7402 24.64 27.7245 26.4039 26.0245C28.1261 24.2847 28.1422 20.7351 28.1429 16.0015C22.8156 16.1601 20.38 16.2917 18.4366 18.1636ZM4.08203 16.0015C4.08203 20.7351 4.09856 24.2847 5.82074 26.0245C7.58447 27.7245 11.0207 27.7402 15.9798 27.7402C15.8191 22.4843 15.685 20.0807 13.7884 18.1636C11.845 16.2917 9.40948 16.1601 4.08203 16.0015ZM15.9798 4C11.0207 4.00047 7.58447 4.01674 5.82074 5.71618C4.09856 7.45606 4.08203 11.0056 4.08203 15.7392C9.40883 15.5806 11.845 15.449 13.7878 13.577C15.685 11.66 15.8184 9.25642 15.9798 4ZM18.4366 13.577C16.5393 11.66 16.4059 9.25642 16.2452 4C21.2043 4.00047 24.64 4.01674 26.4039 5.71618C28.1261 7.45606 28.1422 11.0056 28.1429 15.7392C22.8156 15.5806 20.38 15.449 18.4366 13.577Z" fill="#7A7A7C"></path>
    </symbol>
    <symbol xmlns="http://www.w3.org/2000/svg" width="88" height="39" viewBox="0 0 88 39" fill="none" id="mirCard">
        <g clip-path="url(#clip0_106_150)">
            <path d="M62.6909 11.8135V24.8656H70.5825V17.5129H78.5277C82.7031 17.5129 86.2164 15.1441 87.5884 11.8135H62.6909Z" fill="#414141"/>
            <path d="M85.1727 2.30862C83.582 0.828668 81.4979 0.00474401 79.333 0L62.3271 0C62.3727 0.654937 62.4745 1.30466 62.6314 1.94188C62.6671 2.08617 62.697 2.22445 62.7387 2.36273C62.7805 2.501 62.7686 2.47695 62.7864 2.53106C63.4928 4.78581 64.8936 6.75502 66.7857 8.15285C68.6778 9.55069 70.9626 10.3044 73.3085 10.3046H87.8867C88.1535 8.85171 88.0469 7.35417 87.577 5.95454C87.1072 4.55491 86.2897 3.29978 85.2025 2.30862" fill="#414141"/>
            <path d="M48.7034 2.62725L43.1739 14.6934H42.6132V9.45241e-08H34.7634V24.8657H41.4262C42.2827 24.8664 43.1215 24.62 43.8435 24.1555C44.5654 23.691 45.1403 23.0278 45.5002 22.2445L51.0237 10.1784H51.5844V24.8657H59.4342V9.45241e-08H52.7774C51.9202 -0.000176532 51.081 0.247182 50.359 0.712794C49.637 1.17841 49.0624 1.84277 48.7034 2.62725Z" fill="#414141"/>
            <path d="M12.1505 3.27054L15.4192 14.6934H15.9799L19.2487 3.27054C19.5189 2.32802 20.0855 1.49947 20.8633 0.909617C21.6411 0.319765 22.5879 0.000539599 23.5613 0L31.3992 0V24.8657H23.5494V10.1723H22.9887L18.4912 24.8657H12.8842L8.41049 10.1723H7.84979V24.8657H0V0H7.83786C8.81124 0.000539599 9.75809 0.319765 10.5359 0.909617C11.3137 1.49947 11.8803 2.32802 12.1505 3.27054Z" fill="#414141"/>
            <path d="M0 32.7715H5.00454V38.8917H3.93086V33.7514H1.06772V38.8917H0V32.7715Z" fill="#414141"/>
            <path d="M10.9575 38.8916H9.81228L8.47018 35.5429L7.10422 38.8916H5.99475L7.98106 34.2383H8.97123L10.9575 38.8916Z" fill="#414141"/>
            <path d="M11.4824 37.5628C11.4824 36.5708 12.2638 36.0778 13.3852 36.0778C13.8045 36.0735 14.2216 36.1385 14.62 36.2702V36.156C14.62 35.5006 14.2203 35.1519 13.4807 35.1519C13.0279 35.1538 12.5807 35.2521 12.1684 35.4405L11.8821 34.6109C12.4249 34.3542 13.0183 34.2247 13.6179 34.2321C13.8928 34.2119 14.1689 34.2472 14.4301 34.336C14.6913 34.4247 14.9323 34.5652 15.1389 34.7491C15.3131 34.9403 15.4468 35.1653 15.5319 35.4102C15.617 35.6552 15.6517 35.9151 15.634 36.174V38.9095H14.608V38.3083C14.4285 38.5284 14.2012 38.7041 13.9437 38.8219C13.6862 38.9397 13.4054 38.9964 13.1228 38.9876C12.9211 39.0101 12.7171 38.9904 12.5233 38.9296C12.3296 38.8689 12.1504 38.7685 11.997 38.6348C11.8436 38.501 11.7192 38.3367 11.6317 38.1523C11.5442 37.9678 11.4954 37.7671 11.4884 37.5628M14.6438 37.2321V36.9195C14.3104 36.7925 13.9564 36.7293 13.6 36.7331C12.92 36.7331 12.5263 37.0217 12.5263 37.5027C12.5263 37.9475 12.914 38.2 13.415 38.2C14.1129 38.2 14.6438 37.7972 14.6438 37.2141" fill="#414141"/>
            <path d="M17.9722 35.2183H16.3438V34.2744H20.6564V35.2183H19.022V38.8917H17.9722V35.2183Z" fill="#414141"/>
            <path d="M21.1038 36.6012C21.0893 36.2936 21.1364 35.9863 21.2422 35.6974C21.348 35.4086 21.5103 35.1441 21.7196 34.9198C21.9288 34.6954 22.1807 34.5158 22.4602 34.3915C22.7397 34.2672 23.0411 34.2009 23.3466 34.1964C24.802 34.1964 25.5416 35.3507 25.5416 36.6853C25.5416 36.7815 25.5416 36.8777 25.5416 36.9799H22.1536C22.1766 37.3132 22.3267 37.6246 22.5724 37.8487C22.8182 38.0729 23.1405 38.1925 23.4718 38.1823C23.7056 38.1835 23.937 38.1348 24.1509 38.0395C24.3647 37.9442 24.5561 37.8044 24.7125 37.6292L25.309 38.1823C25.0831 38.4628 24.796 38.6868 24.4701 38.837C24.1442 38.9871 23.7883 39.0594 23.4301 39.0481C23.1161 39.0566 22.8037 38.9999 22.5124 38.8816C22.2211 38.7633 21.957 38.5859 21.7366 38.3603C21.5162 38.1348 21.3441 37.866 21.2312 37.5706C21.1182 37.2752 21.0667 36.9596 21.0799 36.6433M21.921 32.6934H22.9887V33.6673H21.9448L21.921 32.6934ZM24.4739 36.3006C24.4739 35.9817 24.3482 35.6758 24.1245 35.4503C23.9008 35.2248 23.5973 35.0982 23.2809 35.0982C22.9683 35.1101 22.6717 35.2406 22.4505 35.4635C22.2293 35.6865 22.0998 35.9855 22.088 36.3006H24.4739ZM23.615 32.6934H24.6827V33.6673H23.6388L23.615 32.6934Z" fill="#414141"/>
            <path d="M30.1346 36.1021H30.6476L32.0971 34.2744H33.3318L31.4409 36.5349L33.4034 38.8917H32.1567L30.6595 37.0159H30.1346L30.1465 38.8917H29.1206L29.1325 37.0159H28.5957L27.0985 38.8917H25.8578L27.8202 36.577L25.9353 34.2744H27.176L28.6255 36.1021H29.1325L29.1206 34.2744H30.1465L30.1346 36.1021Z" fill="#414141"/>
            <path d="M34.1549 34.2744H35.2107V36.084H37.3282V34.2744H38.378V38.8917H37.3282V37.058H35.2107V38.8917H34.1549V34.2744Z" fill="#414141"/>
            <path d="M39.3683 37.5629C39.3683 36.5529 40.1556 36.0719 41.277 36.0719C41.6943 36.0675 42.1095 36.1325 42.5058 36.2643V36.1501C42.5058 35.4948 42.1062 35.1461 41.3725 35.1461C40.9198 35.1479 40.4725 35.2463 40.0602 35.4347L39.7739 34.605C40.3167 34.3483 40.9101 34.2189 41.5097 34.2262C41.7846 34.206 42.0608 34.2413 42.322 34.3301C42.5832 34.4189 42.8241 34.5594 43.0307 34.7433C43.2057 34.9322 43.3413 35.1545 43.4294 35.3972C43.5176 35.6399 43.5564 35.898 43.5437 36.1561V38.8916H42.4999V38.2904C42.3182 38.5092 42.0896 38.6836 41.8312 38.8002C41.5729 38.9169 41.2916 38.9728 41.0086 38.9637C40.8084 38.987 40.6057 38.9686 40.4128 38.9098C40.2199 38.8509 40.0411 38.7528 39.8873 38.6215C39.7336 38.4902 39.6082 38.3285 39.5189 38.1465C39.4297 37.9644 39.3784 37.7658 39.3683 37.5629ZM42.5177 37.2323V36.9196C42.1864 36.7926 41.8343 36.7294 41.4799 36.7333C40.7999 36.7333 40.4002 37.0218 40.4002 37.5028C40.4002 37.9477 40.7939 38.2002 41.2949 38.2002C41.9869 38.2002 42.5177 37.7974 42.5177 37.2142" fill="#414141"/>
            <path d="M44.4742 38.8918L45.709 37.2084C45.4016 37.1303 45.1293 36.9502 44.9356 36.6973C44.742 36.4443 44.6383 36.1331 44.6413 35.8136C44.6413 34.8036 45.369 34.2686 46.5262 34.2686H48.7212V38.8858H47.6595V37.3227H46.8006L45.6792 38.8918H44.4742ZM46.5262 35.1042C45.9893 35.1042 45.6493 35.3688 45.6493 35.8136C45.6493 36.2405 45.9595 36.5231 46.5142 36.5231H47.6595V35.1042H46.5262Z" fill="#414141"/>
            <path d="M52.3716 36.6135C52.3716 35.9757 52.623 35.3641 53.0704 34.9131C53.5179 34.4621 54.1247 34.2087 54.7575 34.2087C55.1027 34.1954 55.4464 34.2604 55.7633 34.3988C56.0802 34.5372 56.3623 34.7455 56.5888 35.0083L55.9267 35.7177C55.7847 35.5344 55.6039 35.3853 55.3976 35.2813C55.1912 35.1773 54.9644 35.121 54.7337 35.1165C54.5503 35.1242 54.3703 35.1686 54.2041 35.247C54.0379 35.3255 53.8888 35.4365 53.7656 35.5736C53.6424 35.7106 53.5474 35.8711 53.4863 36.0455C53.4251 36.2199 53.399 36.4048 53.4095 36.5895C53.3981 36.7786 53.4251 36.9681 53.4888 37.1463C53.5525 37.3246 53.6516 37.4879 53.7799 37.6263C53.9083 37.7647 54.0633 37.8752 54.2355 37.9513C54.4077 38.0273 54.5934 38.0672 54.7814 38.0684C55.0089 38.0629 55.2326 38.0092 55.4382 37.9108C55.6437 37.8124 55.8264 37.6715 55.9744 37.4973L56.6067 38.0985C56.2973 38.481 55.8787 38.7583 55.4076 38.8928C54.9365 39.0273 54.4358 39.0125 53.9733 38.8504C53.5109 38.6882 53.1092 38.3866 52.8226 37.9864C52.5361 37.5863 52.3786 37.107 52.3716 36.6135Z" fill="#414141"/>
            <path d="M57.5671 34.2744H58.617V37.2323L60.8061 34.2744H61.8022V38.8917H60.7524V35.8676L58.5215 38.8917H57.5671V34.2744Z" fill="#414141"/>
            <path d="M62.8579 36.6135C62.8579 35.9757 63.1092 35.3641 63.5567 34.9131C64.0041 34.4621 64.611 34.2087 65.2438 34.2087C65.5889 34.1954 65.9327 34.2604 66.2496 34.3988C66.5665 34.5372 66.8486 34.7455 67.075 35.0083L66.4129 35.7177C66.2713 35.5341 66.0906 35.3847 65.8841 35.2807C65.6777 35.1767 65.4507 35.1206 65.2199 35.1165C65.0366 35.1242 64.8566 35.1686 64.6904 35.247C64.5242 35.3255 64.3751 35.4365 64.2519 35.5736C64.1286 35.7106 64.0337 35.8711 63.9726 36.0455C63.9114 36.2199 63.8853 36.4048 63.8957 36.5895C63.8844 36.7786 63.9114 36.9681 63.9751 37.1463C64.0388 37.3246 64.1378 37.4879 64.2662 37.6263C64.3946 37.7647 64.5496 37.8752 64.7218 37.9513C64.894 38.0273 65.0797 38.0672 65.2677 38.0684C65.4953 38.0636 65.7193 38.0102 65.9249 37.9118C66.1306 37.8133 66.3131 37.6721 66.4606 37.4973L67.0929 38.0985C66.8683 38.3788 66.5823 38.6028 66.2573 38.7531C65.9323 38.9033 65.5773 38.9755 65.2199 38.9642C64.9048 38.9708 64.5917 38.9131 64.2993 38.7945C64.0068 38.676 63.7412 38.4991 63.5183 38.2745C63.2955 38.0498 63.12 37.7821 63.0024 37.4874C62.8848 37.1927 62.8275 36.877 62.834 36.5594" fill="#414141"/>
            <path d="M69.1927 35.2183H67.5583V34.2744H71.871V35.2183H70.2425V38.8917H69.1927V35.2183Z" fill="#414141"/>
            <path d="M72.3183 36.6011C72.3039 36.2935 72.351 35.9862 72.4568 35.6973C72.5626 35.4085 72.7249 35.144 72.9341 34.9197C73.1434 34.6953 73.3952 34.5157 73.6747 34.3914C73.9542 34.2671 74.2557 34.2008 74.5611 34.1963C76.0166 34.1963 76.7562 35.3506 76.7562 36.6793C76.7562 36.7754 76.7562 36.8716 76.7562 36.9799H73.3682C73.3912 37.3142 73.5421 37.6265 73.7892 37.8508C74.0362 38.0751 74.3601 38.194 74.6924 38.1823C74.9261 38.1831 75.1574 38.1342 75.3712 38.0389C75.5849 37.9436 75.7764 37.804 75.9331 37.6292L76.5296 38.1823C76.3046 38.4622 76.0185 38.686 75.6936 38.8362C75.3688 38.9863 75.0138 39.0588 74.6566 39.048C74.3397 39.0616 74.0234 39.0087 73.7278 38.8927C73.4322 38.7766 73.1637 38.6 72.9394 38.3739C72.7151 38.1478 72.5399 37.8773 72.4247 37.5793C72.3096 37.2814 72.2571 36.9626 72.2706 36.6432M75.6647 36.3065C75.6647 35.9876 75.539 35.6818 75.3152 35.4563C75.0915 35.2308 74.7881 35.1041 74.4717 35.1041C74.159 35.116 73.8624 35.2465 73.6412 35.4695C73.42 35.6924 73.2905 35.9914 73.2787 36.3065H75.6647Z" fill="#414141"/>
            <path d="M77.8059 34.2744H78.9034L80.3112 36.4267L81.7189 34.2744H82.8104V38.8917H81.7785V35.8315L80.3112 38.0259H80.2873L78.8259 35.8496V38.8917H77.8059V34.2744Z" fill="#414141"/>
            <path d="M83.8066 37.5628C83.8066 36.5708 84.588 36.0778 85.7094 36.0778C86.1267 36.0734 86.5419 36.1384 86.9382 36.2702V36.156C86.9382 35.5006 86.5386 35.1519 85.8049 35.1519C85.3522 35.1538 84.9049 35.2521 84.4926 35.4405L84.2063 34.6109C84.7491 34.3542 85.3425 34.2247 85.9421 34.2321C86.217 34.2119 86.4931 34.2472 86.7543 34.336C87.0155 34.4247 87.2565 34.5652 87.4631 34.7491C87.6353 34.9414 87.7674 35.1666 87.8514 35.4114C87.9355 35.6562 87.9698 35.9156 87.9522 36.174V38.9095H86.9322V38.3083C86.7506 38.5271 86.5219 38.7014 86.2636 38.8181C86.0053 38.9348 85.724 38.9907 85.441 38.9816C85.2394 39.0041 85.0353 38.9843 84.8416 38.9236C84.6479 38.8629 84.4687 38.7625 84.3153 38.6288C84.1618 38.495 84.0374 38.3307 83.9499 38.1463C83.8624 37.9618 83.8136 37.7611 83.8066 37.5568M86.9561 37.2261V36.9135C86.6169 36.7855 86.2565 36.7243 85.8944 36.7331C85.2144 36.7331 84.8147 37.0217 84.8147 37.5027C84.8147 37.9475 85.2084 38.2 85.7094 38.2C86.4014 38.2 86.9322 37.7972 86.9322 37.2141" fill="#414141"/>
        </g>
        <defs>
            <clipPath id="clip0_106_150">
                <rect width="88" height="39" fill="white"/>
            </clipPath>
        </defs>
    </symbol>
    <symbol xmlns="http://www.w3.org/2000/svg" width="88" height="33" viewBox="0 0 88 33" fill="none" id="tele2">
        <g clip-path="url(#clip0_106_173)">
            <path d="M4.11914 16.6749V32.9998H8.84973V16.1934L4.11914 16.6749Z" fill="#414141"/>
            <path d="M0 11.6203V16.3844L12.9156 14.9726V9.81445L0 11.6203Z" fill="#414141"/>
            <path d="M14.6616 9.56823V32.9994H19.6421V8.87402L14.6616 9.56823Z" fill="#414141"/>
            <path d="M20.5728 8.74266V14.1337L27.7692 13.3426V7.7373L20.5728 8.74266Z" fill="#414141"/>
            <path d="M20.5725 18.1446V23.6326L25.3 23.3778V17.7412L20.5725 18.1446Z" fill="#414141"/>
            <path d="M20.5725 27.5869V32.9998H27.769V27.3711L20.5725 27.5869Z" fill="#414141"/>
            <path d="M46.3804 5.12697V33.0001H52.9136V4.21387L46.3804 5.12697Z" fill="#414141"/>
            <path d="M54.1348 4.04346V10.454L63.6525 9.41108V2.71289L54.1348 4.04346Z" fill="#414141"/>
            <path d="M54.1348 15.2752V21.8045L60.3757 21.4668V14.7451L54.1348 15.2752Z" fill="#414141"/>
            <path d="M54.1348 26.5785V33H63.6525V26.2939L54.1348 26.5785Z" fill="#414141"/>
            <path d="M29.6738 7.46732V32.9999H35.349V6.67773L29.6738 7.46732Z" fill="#414141"/>
            <path d="M36.4099 27.1113V32.9996H44.6499V26.8643L36.4099 27.1113Z" fill="#414141"/>
            <path d="M85.0014 2.3981C82.9331 0.456186 79.9078 -0.339654 76.5964 0.130971V7.2435C77.937 7.17001 79.0229 7.66409 79.5086 8.66006C80.2724 10.2314 79.4866 12.5908 77.6242 14.7735C74.7513 18.1445 67.1147 25.0459 67.1147 25.0459L78.0768 24.6863C84.7751 18.1757 87.1813 14.2247 87.6119 9.29329C87.8398 6.68532 86.8858 4.16959 85.0014 2.39654" fill="#414141"/>
            <path d="M65.7632 26.2252L65.7679 33H88.0001V25.5576L65.7632 26.2252Z" fill="#414141"/>
            <path d="M75.3171 0.291992C68.8577 1.66165 65.6846 6.38822 66.0524 14.1027L72.9408 13.4945C72.6249 9.13848 73.9655 8.10498 75.3202 7.53429L75.3171 0.291992Z" fill="#414141"/>
        </g>
        <defs>
            <clipPath id="clip0_106_173">
                <rect width="88" height="33" fill="white"/>
            </clipPath>
        </defs>
    </symbol>
</svg>