<svg width="1336" height="560" viewBox="0 0 1336 560" fill="none" xmlns="http://www.w3.org/2000/svg">
<rect width="1336" height="560" fill="white"/>
<g opacity="0.5">
<g clip-path="url(#clip0_98_130769)">
<path d="M44.4737 56.4286V61.4286H46.6842V56.4286H44.4737ZM48.8947 56.4286V61.4286H51.1053V56.4286H48.8947ZM43 65H57V62.8571H43V65ZM53.3158 56.4286V61.4286H55.5263V56.4286H53.3158ZM50 50L43 53.5714V55H57V53.5714L50 50Z" fill="#F39DA2"/>
</g>
</g>
<g opacity="0.5">
<path fill-rule="evenodd" clip-rule="evenodd" d="M932.684 79.002V79.8353V86.502C932.684 86.9628 933.057 87.3353 933.517 87.3353H939.35V82.3353C939.35 81.4153 940.097 80.6686 941.017 80.6686C941.937 80.6686 942.684 81.4153 942.684 82.3353V87.3353H948.517C948.977 87.3353 949.35 86.9628 949.35 86.502V79.8353V79.002H932.684Z" fill="#F39DA2"/>
<rect x="932.685" y="76.502" width="16.6667" height="1.66667" fill="#F39DA2"/>
<rect x="937.685" y="74.002" width="6.66667" height="1.66667" fill="#F39DA2"/>
<path d="M941.018 73.168L942.462 71.293H939.575L941.018 73.168Z" fill="#F39DA2"/>
</g>
<g opacity="0.5">
<g clip-path="url(#clip1_98_130769)">
<path d="M521.4 24C518.976 24 517 25.968 517 28.4V28.8H518.6V28.4C518.6 27.6574 518.895 26.9452 519.42 26.4201C519.945 25.895 520.657 25.6 521.4 25.6C522.6 25.6 523.608 26.344 524.008 27.392C523.696 27.264 523.36 27.2 523 27.2C521.888 27.2 520.92 27.856 520.472 28.8L521.864 29.6C522.032 29.136 522.48 28.8 523 28.8C523.318 28.8 523.623 28.9264 523.849 29.1515C524.074 29.3765 524.2 29.6817 524.2 30V31.2H525.8V30C525.8 29.6817 525.926 29.3765 526.151 29.1515C526.377 28.9264 526.682 28.8 527 28.8C527.528 28.8 527.968 29.136 528.136 29.6L529.528 28.8C529.08 27.856 528.12 27.2 527 27.2C526.64 27.2 526.304 27.264 525.992 27.392C526.392 26.344 527.4 25.6 528.6 25.6C529.343 25.6 530.055 25.895 530.58 26.4201C531.105 26.9452 531.4 27.6574 531.4 28.4V28.8H533V28.4C533 27.233 532.536 26.1139 531.711 25.2887C530.886 24.4636 529.767 24 528.6 24C527.112 24 525.8 24.744 525 25.872C524.2 24.744 522.888 24 521.4 24ZM520.2 32V33.6H521.336C521.736 34.52 522.48 35.256 523.4 35.656C523.4 36.304 523.4 36.952 523.4 37.6H517C517 37.6 517.656 38.584 518.128 39.288C518.424 39.736 518.92 40 519.456 40H530.544C531.08 40 531.576 39.736 531.872 39.288L533 37.6H526.6C526.6 36.952 526.6 36.304 526.6 35.656C527.52 35.256 528.264 34.52 528.664 33.6H529.8V32H520.2Z" fill="#F39DA2"/>
</g>
</g>
<g opacity="0.5">
<path d="M207.663 71.5H222.663V69.8333H207.663V71.5ZM222.663 61.6667H220.996V59.1667H222.663V61.6667ZM222.663 57.5H209.329V64.8333C209.329 65.7174 209.68 66.5652 210.306 67.1904C210.931 67.8155 211.779 68.1667 212.663 68.1667H217.663C218.547 68.1667 219.394 67.8155 220.02 67.1904C220.645 66.5652 220.996 65.7174 220.996 64.8333V63.3333H222.663C223.105 63.3333 223.529 63.1577 223.841 62.8452C224.154 62.5326 224.329 62.1087 224.329 61.6667V59.1667C224.329 58.2417 223.579 57.5 222.663 57.5Z" fill="#F39DA2"/>
</g>
<g opacity="0.5">
<g clip-path="url(#clip2_98_130769)">
<path d="M429.218 462.6H427.663V457H426.107V462.6H424.552V457H422.996V462.6C422.996 464.296 424.287 465.672 425.913 465.776V473H427.857V465.776C429.483 465.672 430.774 464.296 430.774 462.6V457H429.218V462.6ZM433.107 460.2V466.6H435.052V473H436.996V457C434.849 457 433.107 458.792 433.107 460.2Z" fill="#F39DA2"/>
</g>
</g>
<g opacity="0.5">
<g clip-path="url(#clip3_98_130769)">
<path d="M1033.4 240H1034.61C1035.22 240 1035.72 239.534 1035.8 238.938L1037 226.947H1033.36V224H1031.93V226.947H1028.31L1028.53 228.649C1029.77 228.991 1030.94 229.61 1031.64 230.294C1032.68 231.327 1033.4 232.397 1033.4 234.143V240ZM1021 239.272V238.552H1031.93V239.272C1031.93 239.673 1031.6 240 1031.19 240H1021.73C1021.32 240 1021 239.673 1021 239.272ZM1031.93 234.179C1031.93 228.358 1021 228.358 1021 234.179H1031.93ZM1021.01 235.642H1031.92V237.097H1021.01V235.642Z" fill="#F39DA2"/>
</g>
</g>
<g opacity="0.5">
<g clip-path="url(#clip4_98_130769)">
<path d="M942.5 468H941V462.34H940V460H946V462.34H945V468H943.5V464.408H942.5V468Z" fill="#F39DA2"/>
<path d="M947 469H939V474H947V469Z" fill="#F39DA2"/>
<circle cx="943" cy="457.75" r="1.75" fill="#F39DA2"/>
</g>
</g>
<g opacity="0.5">
<path d="M135.165 390.6L131.7 393.6H144.3L139.89 389.1L136.74 392.1L135.165 390.6Z" fill="#F39DA2"/>
<ellipse cx="134.85" cy="387.75" rx="1.35" ry="1.35" fill="#F39DA2"/>
<path fill-rule="evenodd" clip-rule="evenodd" d="M147 383H129V385V395V397H147V395V385V383ZM145 385L131 385L131 395H145V385Z" fill="#F39DA2"/>
</g>
<g opacity="0.5">
<path d="M365.696 76.3446C365.972 76.0642 366.069 75.6528 365.95 75.2704C365.831 74.888 365.521 74.615 365.139 74.557L361.75 74.0429C361.605 74.021 361.481 73.9265 361.416 73.7898L359.901 70.584C359.73 70.2238 359.385 70 359 70C358.616 70 358.27 70.2238 358.1 70.584L356.584 73.7901C356.52 73.9268 356.395 74.0213 356.25 74.0432L352.861 74.5573C352.48 74.615 352.169 74.8883 352.05 75.2707C351.931 75.6531 352.028 76.0645 352.304 76.3449L354.756 78.8402C354.861 78.9467 354.909 79.1 354.884 79.2498L354.306 82.7734C354.254 83.0836 354.332 83.3852 354.525 83.6231C354.823 83.9939 355.345 84.1068 355.762 83.878L358.794 82.2142C358.921 82.1449 359.08 82.1455 359.206 82.2142L362.238 83.878C362.386 83.959 362.543 84 362.705 84C363.002 84 363.283 83.8625 363.476 83.6231C363.668 83.3852 363.746 83.083 363.695 82.7734L363.116 79.2498C363.091 79.0997 363.139 78.9467 363.244 78.8402L365.696 76.3446Z" fill="#F39DA2"/>
<path fill-rule="evenodd" clip-rule="evenodd" d="M363.444 71.9552C363.022 71.5992 362.968 70.9683 363.324 70.5461L363.647 70.1638C364.003 69.7416 364.634 69.688 365.056 70.044C365.478 70.4 365.532 71.0309 365.176 71.4531L364.853 71.8354C364.497 72.2576 363.866 72.3112 363.444 71.9552Z" fill="#F39DA2"/>
<path fill-rule="evenodd" clip-rule="evenodd" d="M352.925 79.5759C353.113 80.0953 352.844 80.6685 352.324 80.8562L351.852 81.0266C351.333 81.2143 350.76 80.9453 350.572 80.4258C350.384 79.9064 350.653 79.3332 351.173 79.1456L351.645 78.9751C352.164 78.7875 352.737 79.0565 352.925 79.5759Z" fill="#F39DA2"/>
<path fill-rule="evenodd" clip-rule="evenodd" d="M365.131 79.4464C365.376 78.9513 365.976 78.7482 366.471 78.9929L366.917 79.2136C367.413 79.4582 367.616 80.0579 367.371 80.5531C367.126 81.0482 366.527 81.2513 366.031 81.0066L365.585 80.7859C365.09 80.5413 364.887 79.9416 365.131 79.4464Z" fill="#F39DA2"/>
<path fill-rule="evenodd" clip-rule="evenodd" d="M359 85C359.552 85 360 85.4477 360 86V86.5C360 87.0523 359.552 87.5 359 87.5C358.448 87.5 358 87.0523 358 86.5V86C358 85.4477 358.448 85 359 85Z" fill="#F39DA2"/>
<path fill-rule="evenodd" clip-rule="evenodd" d="M352.919 70.0658C353.332 69.6988 353.964 69.7357 354.331 70.1484L354.663 70.522C355.03 70.9346 354.993 71.5667 354.581 71.9338C354.168 72.3008 353.536 72.2639 353.169 71.8512L352.837 71.4776C352.469 71.065 352.506 70.4329 352.919 70.0658Z" fill="#F39DA2"/>
</g>
<g opacity="0.5">
<path fill-rule="evenodd" clip-rule="evenodd" d="M668 534C672.418 534 676 530.418 676 526C676 521.582 672.418 518 668 518C663.582 518 660 521.582 660 526C660 530.418 663.582 534 668 534ZM665 525C665.828 525 666.5 524.328 666.5 523.5C666.5 522.672 665.828 522 665 522C664.172 522 663.5 522.672 663.5 523.5C663.5 524.328 664.172 525 665 525ZM667.999 531.6C670.403 531.6 672.291 530.163 672.908 528.311C672.955 528.17 672.828 528.035 672.681 528.06C672.034 528.172 670.417 528.4 668 528.4C665.582 528.4 663.963 528.172 663.316 528.06C663.169 528.035 663.042 528.169 663.089 528.311C663.706 530.163 665.595 531.6 667.999 531.6ZM671 525C671.828 525 672.5 524.328 672.5 523.5C672.5 522.672 671.828 522 671 522C670.172 522 669.5 522.672 669.5 523.5C669.5 524.328 670.172 525 671 525Z" fill="#F39DA2"/>
</g>
<g opacity="0.5">
<g clip-path="url(#clip5_98_130769)">
<path d="M338.25 315V316.667H336.5V315H329.5V316.667H327.75V315H326V330H327.75V328.333H329.5V330H336.5V328.333H338.25V330H340V315H338.25ZM329.5 326.667H327.75V325H329.5V326.667ZM329.5 323.333H327.75V321.667H329.5V323.333ZM329.5 320H327.75V318.333H329.5V320ZM338.25 326.667H336.5V325H338.25V326.667ZM338.25 323.333H336.5V321.667H338.25V323.333ZM338.25 320H336.5V318.333H338.25V320Z" fill="#F39DA2"/>
</g>
</g>
<g opacity="0.5">
<circle cx="324" cy="518" r="16" fill="white"/>
<g clip-path="url(#clip6_98_130769)">
<path d="M321.652 512.851C320.625 513.276 319.713 513.981 319.046 514.876C318.326 515.842 318 517.344 318 518.565C318 520.109 319.018 522.862 321.372 526.746C321.467 526.904 321.638 527 321.823 527H326.178C326.363 527 326.534 526.904 326.629 526.746C328.2 524.154 329.253 522.066 329.781 520.504C330.205 518.444 330.309 516.694 328.953 514.876C328.285 513.982 327.373 513.276 326.346 512.852L327.327 509.683C327.377 509.523 327.347 509.349 327.248 509.214C327.149 509.08 326.991 509 326.823 509H321.175C321.008 509 320.85 509.08 320.751 509.214C320.651 509.349 320.622 509.523 320.671 509.683L321.652 512.851Z" fill="#F39DA2"/>
</g>
</g>
<g opacity="0.5">
<path d="M1080.44 325.777C1080.44 325.777 1078.9 326.955 1078.22 327.33C1078 326.591 1077.79 325.309 1077.61 324.51L1077.63 319.942C1077.63 319.942 1080.11 319.615 1080.82 319.506C1081.59 319.435 1081.7 318.764 1081.54 318.293C1081.5 318.179 1080.33 314.776 1080.33 314.776L1078.57 315.302L1079.42 317.889L1077.25 318.182C1077.25 318.182 1075.44 318.439 1074.61 317.889C1072.9 316.762 1071.55 313.555 1071.55 313.555L1070.17 314.165C1070.17 314.165 1073 319.242 1073.11 319.731C1073.22 320.221 1074 322.131 1073.11 324.254C1071.89 327.175 1073.78 331.888 1073.78 331.888L1075.48 331.312C1075.48 331.312 1074.33 327.999 1074.62 326.177C1074.69 325.855 1074.98 325.629 1075.31 325.641C1075.62 325.652 1075.89 325.87 1075.96 326.173C1076.15 327.029 1076.25 327.863 1076.4 328.383C1076.69 329.401 1077.7 329.582 1078.35 329.242C1079.66 328.551 1081.43 327.33 1081.43 327.33L1080.44 325.777Z" fill="#F39DA2"/>
<path d="M1075.8 317.302C1076.74 317.302 1077.49 316.547 1077.49 315.615C1077.49 314.683 1076.74 313.928 1075.8 313.928C1074.87 313.928 1074.12 314.683 1074.12 315.615C1074.12 316.547 1074.87 317.302 1075.8 317.302Z" fill="#F39DA2"/>
</g>
<g opacity="0.5">
<g clip-path="url(#clip7_98_130769)">
<path d="M455.996 182.91C456.432 182.91 456.839 182.815 457.21 182.634L460.45 189.501H461.999L458.345 181.652C458.666 181.179 458.852 180.612 458.852 180.001C458.852 179.229 458.551 178.489 458.016 177.944C457.48 177.398 456.754 177.092 455.996 177.092C455.239 177.092 454.513 177.398 453.977 177.944C453.442 178.489 453.141 179.229 453.141 180.001C453.141 180.612 453.326 181.179 453.648 181.652L449.999 189.501H451.548L454.783 182.634C455.154 182.815 455.561 182.91 455.996 182.91Z" fill="#F39DA2"/>
<rect x="454.5" y="171.5" width="3" height="3" fill="#F39DA2"/>
<rect x="448" y="175" width="3" height="3" fill="#F39DA2"/>
<rect x="461" y="175" width="3" height="3" fill="#F39DA2"/>
<rect x="448" y="182" width="3" height="3" fill="#F39DA2"/>
<rect x="461" y="182" width="3" height="3" fill="#F39DA2"/>
<rect x="454.5" y="185.5" width="3" height="3" fill="#F39DA2"/>
<path fill-rule="evenodd" clip-rule="evenodd" d="M456 173.5C452.41 173.5 449.5 176.41 449.5 180C449.5 183.59 452.41 186.5 456 186.5C459.59 186.5 462.5 183.59 462.5 180C462.5 176.41 459.59 173.5 456 173.5ZM448.5 180C448.5 175.858 451.858 172.5 456 172.5C460.142 172.5 463.5 175.858 463.5 180C463.5 184.142 460.142 187.5 456 187.5C451.858 187.5 448.5 184.142 448.5 180Z" fill="#F39DA2"/>
</g>
</g>
<g opacity="0.5">
<g clip-path="url(#clip8_98_130769)">
<path d="M122.3 174H109.7V172.2H122.3V174ZM116.9 156C115.775 156 114.722 156.558 114.101 157.494L111.5 161.4L113.3 163.2L115.154 161.967C115.55 161.688 116.126 161.796 116.405 162.21C116.423 162.237 116.45 162.264 116.45 162.3C116.72 162.831 116.621 163.47 116.198 163.893L111.878 168.213C111.383 168.717 111.383 169.527 111.887 170.022C112.121 170.256 112.445 170.4 112.778 170.4H120.5V159.6C120.5 158.645 120.121 157.73 119.446 157.054C118.771 156.379 117.855 156 116.9 156Z" fill="#F39DA2"/>
</g>
</g>
<g opacity="0.5">
<circle cx="1116.52" cy="452.545" r="2.5174" fill="#F39DA2"/>
<circle cx="1127.59" cy="452.545" r="2.5174" fill="#F39DA2"/>
<path d="M1120.05 453.501H1124.3C1124.05 450.834 1125.8 449.251 1127.82 449.251L1125.36 439.605H1118.94V441.216H1123.79L1125.8 448.501L1123.55 451.501H1120.05V453.501Z" fill="#F39DA2"/>
</g>
<g opacity="0.5">
<g clip-path="url(#clip9_98_130769)">
<path d="M542.784 497.528L544.1 496.212L542.784 494.896L539.498 498.182L533.818 492.503L537.104 489.217L535.788 487.9L534.472 489.217L533.156 487.9L531.186 489.87L529.87 488.554L528.553 489.87L529.87 491.186L527.9 493.156L529.216 494.472L527.9 495.789L529.216 497.105L532.502 493.819L538.181 499.498L534.895 502.784L536.212 504.1L537.528 502.784L538.844 504.1L540.814 502.131L542.13 503.447L543.446 502.131L542.13 500.814L544.1 498.845L542.784 497.528Z" fill="#F39DA2"/>
</g>
</g>
<g opacity="0.5">
<path fill-rule="evenodd" clip-rule="evenodd" d="M1087 142.499L1087 145.199L1095.1 145.199L1095.1 140.862C1093.88 140.48 1093 139.343 1093 137.999C1093 136.656 1093.88 135.519 1095.1 135.137L1095.1 130.799L1087 130.799L1087 133.499L1090.6 133.499L1090.6 134.399L1090.6 135.299L1090.6 140.699L1090.6 141.599L1090.6 142.499L1087 142.499ZM1096.9 135.137C1098.12 135.519 1099 136.656 1099 137.999C1099 139.343 1098.12 140.48 1096.9 140.862L1096.9 145.199L1105 145.199L1105 130.799L1096.9 130.799L1096.9 135.137ZM1087 140.699L1088.8 140.699L1088.8 135.299L1087 135.299L1087 140.699ZM1101.4 141.599L1101.4 142.499L1105 142.499L1105 140.699L1103.2 140.699L1103.2 135.299L1105 135.299L1105 133.499L1101.4 133.499L1101.4 134.399L1101.4 135.299L1101.4 140.699L1101.4 141.599ZM1095 137.999C1095 137.447 1095.45 136.999 1096 136.999C1096.55 136.999 1097 137.447 1097 137.999C1097 138.552 1096.55 138.999 1096 138.999C1095.45 138.999 1095 138.552 1095 137.999Z" fill="#F39DA2"/>
</g>
<g opacity="0.5">
<g clip-path="url(#clip10_98_130769)">
<path d="M312.242 181.25C311.619 180.975 310.895 181.25 310.634 181.883C310.524 182.15 310.305 182.392 310.053 182.5H297V185H309.606C311.046 185 312.343 184.167 312.899 182.842C313.168 182.225 312.882 181.508 312.242 181.25ZM310.474 180C310.474 180 310.474 180.833 308.789 180.833C307.105 180.833 297.842 180.833 297.842 180.833V170H303.737L303.914 171.25H302.255V172.5H304.099L304.276 173.75H302.255V175H304.461L304.579 175.833H306.263C306.263 175.833 310.474 175.833 310.474 180Z" fill="#F39DA2"/>
</g>
</g>
<g opacity="0.5">
<g clip-path="url(#clip11_98_130769)">
<path d="M810.125 496C809.233 495.408 808.25 494.942 807.183 494.658C808.25 494.942 809.233 495.408 810.125 496ZM818.816 494.658C817.741 494.942 816.741 495.417 815.841 496.025C816.741 495.417 817.741 494.942 818.816 494.658Z" fill="#607D8B"/>
<path d="M815.908 494.024C815.758 491.699 814.817 489.433 813.05 487.666C811.267 489.449 810.283 491.716 810.092 494.024C811.158 494.591 812.142 495.324 813 496.216C813.858 495.333 814.842 494.599 815.908 494.024ZM810.492 496.233C810.375 496.149 810.242 496.074 810.117 495.991C810.242 496.083 810.375 496.149 810.492 496.233ZM815.842 496.024C815.733 496.099 815.617 496.158 815.508 496.241C815.617 496.158 815.733 496.099 815.842 496.024ZM813 498.874C811.208 496.141 808.15 494.333 804.667 494.333C804.667 498.766 807.467 502.516 811.358 503.908C811.883 504.099 812.433 504.241 813 504.333C813.567 504.233 814.108 504.091 814.642 503.908C818.533 502.516 821.333 498.766 821.333 494.333C817.85 494.333 814.792 496.141 813 498.874Z" fill="#F39DA2"/>
</g>
</g>
<g opacity="0.5">
<g clip-path="url(#clip12_98_130769)">
<path d="M560 111.143H561.524V112.667H563.048V111.143H564.571V112.667H566.095V111.143H567.619V112.667H569.143V108.857L571.429 106.571V102H572.952L576 103.524L572.952 105.048V106.571L575.238 108.857V118H566.857V115.714C566.857 115.31 566.697 114.923 566.411 114.637C566.125 114.351 565.737 114.19 565.333 114.19C564.929 114.19 564.542 114.351 564.256 114.637C563.97 114.923 563.81 115.31 563.81 115.714V118H560V111.143ZM572.19 108.857C571.771 108.857 571.429 109.269 571.429 109.771V111.143H572.952V109.771C572.952 109.269 572.61 108.857 572.19 108.857Z" fill="#F39DA2"/>
</g>
</g>
<g opacity="0.5">
<g clip-path="url(#clip13_98_130769)">
<path d="M54.5 280.171C53.285 280.171 52.52 280.651 51.845 281.086C51.26 281.463 50.783 281.771 50 281.771C49.19 281.771 48.74 281.486 48.155 281.086C47.48 280.651 46.742 280.171 45.5 280.171C44.258 280.171 43.52 280.651 42.845 281.086C42.26 281.463 41.792 281.771 41 281.771V284C42.215 284 42.98 283.52 43.655 283.086C44.24 282.709 44.708 282.4 45.5 282.4C46.292 282.4 46.76 282.686 47.345 283.086C48.02 283.52 48.758 284 50 284C51.242 284 51.98 283.52 52.655 283.086C53.24 282.709 53.717 282.4 54.5 282.4C55.31 282.4 55.76 282.686 56.345 283.086C57.02 283.52 57.767 284 59 284V281.771C58.19 281.771 57.74 281.486 57.155 281.086C56.48 280.651 55.715 280.171 54.5 280.171ZM54.5 276.086C53.285 276.086 52.52 276.577 51.845 277C51.26 277.366 50.783 277.686 50 277.686C49.19 277.686 48.74 277.4 48.155 277C47.48 276.566 46.742 276.086 45.5 276.086C44.258 276.086 43.52 276.577 42.845 277C42.26 277.366 41.792 277.686 41 277.686V279.914C42.215 279.914 42.98 279.423 43.655 279C44.24 278.6 44.69 278.314 45.5 278.314C46.31 278.314 46.76 278.6 47.345 279C48.02 279.434 48.758 279.914 50 279.914C51.242 279.914 51.98 279.423 52.655 279C53.24 278.6 53.69 278.314 54.5 278.314C55.31 278.314 55.76 278.6 56.345 279C57.02 279.434 57.767 279.914 59 279.914V277.686C58.19 277.686 57.74 277.4 57.155 277C56.48 276.566 55.715 276.086 54.5 276.086ZM54.5 272C53.285 272 52.52 272.491 51.845 272.914C51.26 273.314 50.81 273.6 50 273.6C49.19 273.6 48.74 273.314 48.155 272.914C47.48 272.48 46.742 272 45.5 272C44.258 272 43.52 272.491 42.845 272.914C42.26 273.314 41.81 273.6 41 273.6V275.829C42.215 275.829 42.98 275.337 43.655 274.914C44.24 274.549 44.717 274.229 45.5 274.229C46.283 274.229 46.76 274.514 47.345 274.914C48.02 275.349 48.758 275.829 50 275.829C51.242 275.829 51.98 275.337 52.655 274.914C53.24 274.549 53.717 274.229 54.5 274.229C55.31 274.229 55.76 274.514 56.345 274.914C57.02 275.349 57.767 275.829 59 275.829V273.6C58.19 273.6 57.74 273.314 57.155 272.914C56.48 272.48 55.715 272 54.5 272Z" fill="#F39DA2"/>
</g>
</g>
<g opacity="0.5">
<g clip-path="url(#clip14_98_130769)">
<path d="M1048.68 525C1048.04 525 1047.49 524.645 1047.22 524.132L1045.08 516.663L1045 516.316C1045 516.106 1045.09 515.906 1045.24 515.758C1045.39 515.609 1045.6 515.526 1045.82 515.526H1049.57L1053.33 510.339C1053.48 510.134 1053.72 510 1054 510C1054.28 510 1054.53 510.134 1054.68 510.347L1058.43 515.526H1062.18C1062.4 515.526 1062.61 515.609 1062.76 515.758C1062.91 515.906 1063 516.106 1063 516.316L1062.97 516.545L1060.78 524.132C1060.51 524.645 1059.96 525 1059.32 525H1048.68ZM1054 512.163L1051.55 515.526H1056.45L1054 512.163ZM1054 518.684C1053.57 518.684 1053.15 518.851 1052.84 519.147C1052.54 519.443 1052.36 519.844 1052.36 520.263C1052.36 520.682 1052.54 521.084 1052.84 521.38C1053.15 521.676 1053.57 521.842 1054 521.842C1054.43 521.842 1054.85 521.676 1055.16 521.38C1055.46 521.084 1055.64 520.682 1055.64 520.263C1055.64 519.844 1055.46 519.443 1055.16 519.147C1054.85 518.851 1054.43 518.684 1054 518.684Z" fill="#F39DA2"/>
</g>
</g>
<g opacity="0.5">
<g clip-path="url(#clip15_98_130769)">
<path d="M662.474 55.5V62.4277H664.684V55.5H662.474ZM661 65.9992H675V63.8563H661V65.9992ZM671.316 55.5V62.4277H673.526V55.5H671.316Z" fill="#F39DA2"/>
<path d="M661 54.5714L668 51L675 54.5714V56H661V54.5714Z" fill="#F39DA2"/>
</g>
</g>
<g opacity="0.5">
<path d="M1181.1 256.167C1181.1 256.167 1182.82 251.532 1183.63 252.039C1184.44 252.545 1184.55 253.821 1183.91 255.095C1183.33 256.276 1182.57 257.133 1182.57 257.133C1183.08 257.555 1183.2 258.738 1182.76 259.692C1182.76 259.692 1185.2 259.191 1187.58 260.657C1189.96 262.124 1191 264.278 1191 266.089C1191 267.899 1190.46 270 1188.52 270H1183.17C1183.05 270 1182.95 269.902 1182.97 269.783C1183.06 269.032 1183.68 268.617 1184.83 268.617C1184.18 268.468 1183.44 267.526 1183.34 266.958C1182.48 267.883 1182.03 269.267 1181.88 269.79C1181.85 269.905 1181.73 270 1181.61 270H1179.92C1179.72 270 1179.55 269.834 1179.6 269.641C1179.81 268.916 1180.69 269.4 1180.69 266.621C1180.69 265.112 1177.96 264.044 1179.13 260.513C1179.13 260.513 1176.86 260.441 1177.01 259.016C1177.16 257.591 1179.67 255.878 1181.1 256.167Z" fill="#F39DA2"/>
</g>
<g opacity="0.5">
<g clip-path="url(#clip16_98_130769)">
<path d="M266.421 443.73L266.008 443.413C265.596 443.095 265.018 442.937 264.44 442.937H264.193L263.863 440C263.863 440 261.717 442.54 261.717 445.159C261.717 445.238 261.717 445.397 261.717 445.476C261.717 446.429 260.645 445.952 259.159 445.873C258.664 443.73 257.179 441.825 254.456 441.825C254.043 441.825 250 442.302 250 445.714C250 448.73 253.053 448.651 253.796 448.175C253.136 449.365 251.155 454.206 255.446 454.206H255.529C255.529 454.444 255.611 454.603 255.776 454.762C255.859 454.921 256.106 455 256.271 455H263.285V453.492H260.562C261.635 453.492 262.543 452.619 262.543 451.587C262.543 450.556 261.635 449.683 260.562 449.683C260.232 449.683 259.902 449.762 259.654 449.921C259.985 449.365 260.645 448.968 261.387 448.968C262.46 448.968 263.368 449.841 263.368 451.19L264.275 452.778H266.091L264.688 450.397C265.348 449.841 265.678 449.048 265.678 448.175V448.095H266.091C267.163 448.095 267.989 447.302 267.989 446.27C267.989 446.349 268.236 445.317 266.421 443.73ZM265.678 445.952C265.266 445.952 264.853 445.635 264.853 445.159C264.853 444.762 265.183 444.444 265.678 444.444C266.091 444.444 266.421 444.762 266.421 445.159C266.421 445.635 266.091 445.952 265.678 445.952Z" fill="#F39DA2"/>
</g>
</g>
<g opacity="0.5">
<g clip-path="url(#clip17_98_130769)">
<path d="M64.5005 501.286V501H65.9995L67.0005 500L65.9995 499H63.0005V501.571L57.0005 505V507H57.992C58.0005 512 57.0005 515 57.0005 515H70.9991C70.6192 513.722 70.0109 511.5 70.0109 507H71.0005V505L64.5005 501.286ZM60.4063 514C62.0924 512.827 64.0005 509 64.0005 506.111C64.0005 509 65.9086 512.827 67.5947 514H60.4063Z" fill="#F39DA2"/>
</g>
</g>
<g opacity="0.5">
<g clip-path="url(#clip18_98_130769)">
<path d="M1217.54 164.046C1217.54 163.091 1216.85 162.314 1216 162.314C1215.15 162.314 1214.46 163.091 1214.46 164.046C1214.46 165.002 1215.15 165.779 1216 165.779C1216.85 165.779 1217.54 165.002 1217.54 164.046Z" fill="#F39DA2"/>
<path d="M1210.62 167.473C1210.62 167.473 1212.5 168.97 1216 168.97C1219.5 168.97 1221.38 167.473 1221.38 167.473C1221.14 166.982 1220.84 166.518 1220.49 166.092V164.046C1220.49 161.264 1218.47 159 1216 159C1213.53 159 1211.52 161.264 1211.52 164.046V166.092C1211.16 166.518 1210.86 166.982 1210.62 167.473Z" fill="#F39DA2"/>
<path d="M1210.2 168.8C1209.44 171.232 1209.93 173.775 1211.65 175.716C1212.24 176.38 1212.66 176.846 1212.66 176.846C1212.75 176.944 1212.87 177 1212.99 177H1219.01C1219.14 177 1219.26 176.944 1219.35 176.846C1219.35 176.846 1219.76 176.38 1220.35 175.716C1222.08 173.775 1222.56 171.232 1221.8 168.8C1221.8 168.8 1219.5 170.3 1216 170.3C1212.5 170.3 1210.2 168.8 1210.2 168.8Z" fill="#F39DA2"/>
</g>
</g>
<g opacity="0.5">
<path d="M206 261.714C204.969 261.714 203.979 261.288 203.25 260.529C202.521 259.77 202.111 258.74 202.111 257.667H203.667C203.667 258.311 203.912 258.928 204.35 259.384C204.788 259.839 205.381 260.095 206 260.095C206.619 260.095 207.212 259.839 207.65 259.384C208.088 258.928 208.333 258.311 208.333 257.667H209.889C209.889 258.74 209.479 259.77 208.75 260.529C208.021 261.288 207.031 261.714 206 261.714ZM206 253.619C206.619 253.619 207.212 253.875 207.65 254.33C208.088 254.786 208.333 255.404 208.333 256.048H203.667C203.667 255.404 203.912 254.786 204.35 254.33C204.788 253.875 205.381 253.619 206 253.619ZM211.444 256.048H209.889C209.889 255.516 209.788 254.99 209.593 254.499C209.397 254.008 209.111 253.561 208.75 253.186C208.389 252.81 207.96 252.512 207.488 252.308C207.016 252.105 206.511 252 206 252C204.969 252 203.979 252.426 203.25 253.186C202.521 253.945 202.111 254.974 202.111 256.048H200.556C199.692 256.048 199 256.768 199 257.667V267.381C199 267.81 199.164 268.222 199.456 268.526C199.747 268.829 200.143 269 200.556 269H211.444C211.857 269 212.253 268.829 212.544 268.526C212.836 268.222 213 267.81 213 267.381V257.667C213 256.768 212.3 256.048 211.444 256.048Z" fill="#F39DA2"/>
</g>
<g opacity="0.5">
<g clip-path="url(#clip19_98_130769)">
<path d="M1223.9 386.927V386.504H1218.43V387.454H1217V391.399H1218.43V392.35H1219.62V392.35H1222.94V392.35H1223.9V391.926L1223.9 391.926V386.927L1223.9 386.927Z" fill="#F39DA2"/>
<path d="M1223.17 393.418H1219.85L1220.69 397.26H1224.01L1223.17 393.418Z" fill="#F39DA2"/>
<path d="M1226.21 386.185C1225.75 386.359 1225.34 386.503 1224.97 386.62V392.234C1225.34 392.351 1225.75 392.495 1226.21 392.669C1227.77 393.263 1230.08 394.339 1232.34 396.114V382.74C1230.08 384.515 1227.77 385.591 1226.21 386.185Z" fill="#F39DA2"/>
<path d="M1233.7 386.932H1233.42V391.922H1233.7C1234.42 391.922 1235 391.338 1235 390.62V388.234C1235 387.516 1234.42 386.932 1233.7 386.932Z" fill="#F39DA2"/>
</g>
</g>
<g opacity="0.5">
<path d="M834 30.0598V29.6634L824.996 25.3262L816 29.6596V30.0636L824.996 34.3971L834 30.0598Z" fill="#F39DA2"/>
<path d="M819.116 32.3555V34.9476L824.54 37.5602H825.451L830.86 34.9548C830.865 34.9434 830.87 34.932 830.875 34.9205V32.3555L824.995 35.1875L819.116 32.3555Z" fill="#F39DA2"/>
<path d="M833.052 36.3201V31.2773L832.34 31.6364V36.3201L831.876 37.7336L832.577 38.6724H832.815L833.516 37.7336L833.052 36.3201Z" fill="#F39DA2"/>
</g>
<g opacity="0.5">
<g clip-path="url(#clip20_98_130769)">
<path d="M1306.16 287.74L1307 289H1305.5C1305.35 291.71 1305.34 292.49 1304.84 295.16L1303.84 295C1304.34 292.38 1304.34 291.66 1304.5 289H1303L1303.84 287.74C1301.64 286.79 1300 283.36 1300 281C1300 279.674 1300.53 278.402 1301.46 277.464C1302.4 276.527 1303.67 276 1305 276C1305.66 276 1306.31 276.129 1306.91 276.381C1307.52 276.632 1308.07 277 1308.54 277.464C1309 277.929 1309.37 278.48 1309.62 279.087C1309.87 279.693 1310 280.343 1310 281C1310 283.36 1308.36 286.79 1306.16 287.74Z" fill="#F39DA2"/>
</g>
</g>
<g opacity="0.5">
<path d="M887 177.5V186.292C886.508 186.008 885.942 185.833 885.333 185.833C883.492 185.833 882 187.325 882 189.167C882 191.008 883.492 192.5 885.333 192.5C887.175 192.5 888.667 191.008 888.667 189.167V180.833H892V177.5H887Z" fill="#F39DA2"/>
</g>
<g opacity="0.5">
<g clip-path="url(#clip21_98_130769)">
<path d="M1268.1 516.63L1266.5 511.275C1266.5 511.275 1268.41 511.683 1271.09 511.829C1271.87 511.872 1272.72 511.892 1273.61 511.874C1274.42 511.856 1275.26 511.807 1276.11 511.712C1276.79 511.636 1277.45 511.533 1278.09 511.413L1276.72 517.178L1273.61 511.874C1272.72 511.892 1271.87 511.872 1271.09 511.829L1268.1 516.63Z" fill="#F39DA2"/>
<path d="M1271.09 511.829C1268.41 511.683 1266.5 511.275 1266.5 511.275L1268.1 516.63L1271.09 511.829ZM1271.09 511.829C1271.87 511.872 1272.72 511.892 1273.61 511.874M1273.61 511.874C1274.42 511.856 1275.26 511.807 1276.11 511.712C1276.79 511.636 1277.45 511.533 1278.09 511.413L1276.72 517.178L1273.61 511.874Z" stroke="#F39DA2" stroke-width="0.5"/>
<path d="M1264 507.5L1263 502C1263 502 1264.85 502.617 1267.5 503.06C1268.27 503.189 1269.12 503.304 1270 503.384C1270.81 503.456 1271.65 503.5 1272.5 503.5C1273.19 503.5 1273.86 503.472 1274.5 503.423C1275.39 503.355 1276.23 503.247 1277 503.12C1279.7 502.676 1281.5 502 1281.5 502L1280.5 507.5L1277 503.12C1276.23 503.247 1275.39 503.355 1274.5 503.423L1272.5 509L1270 503.384C1269.12 503.304 1268.27 503.189 1267.5 503.06L1264 507.5Z" fill="#F39DA2"/>
<path d="M1267.5 503.06C1264.85 502.617 1263 502 1263 502L1264 507.5L1267.5 503.06ZM1267.5 503.06C1268.27 503.189 1269.12 503.304 1270 503.384M1270 503.384C1270.81 503.456 1271.65 503.5 1272.5 503.5C1273.19 503.5 1273.86 503.472 1274.5 503.423M1270 503.384L1272.5 509L1274.5 503.423M1274.5 503.423C1275.39 503.355 1276.23 503.247 1277 503.12M1277 503.12C1279.7 502.676 1281.5 502 1281.5 502L1280.5 507.5L1277 503.12Z" stroke="#F39DA2" stroke-width="0.5"/>
</g>
</g>
<g opacity="0.5">
<g clip-path="url(#clip22_98_130769)">
<path d="M1269.5 67.7414C1267.54 67.0175 1266 65.3256 1265.54 63.1269L1264.04 56.0604C1263.83 55.0832 1264.45 54.1241 1265.42 53.916L1274.21 52.0431L1274.24 52.0341C1275.2 51.844 1276.15 52.4684 1276.35 53.4274L1276.66 54.9385L1280.58 55.7799H1280.6C1281.55 55.9971 1282.16 56.9562 1281.96 57.9153L1280.47 64.9908C1279.75 68.4019 1276.4 70.5915 1273 69.8586C1271.58 69.56 1270.37 68.7909 1269.5 67.7414ZM1280.2 57.5443L1271.41 55.6623L1269.91 62.7378V62.765C1269.4 65.1898 1270.96 67.5785 1273.38 68.0942C1275.8 68.61 1278.19 67.0537 1278.7 64.6198L1280.2 57.5443ZM1276.6 65.0722C1276.03 66.0404 1274.9 66.5742 1273.75 66.3299C1272.6 66.0856 1271.78 65.1356 1271.65 64.0226L1276.6 65.0722ZM1275.73 61.2087C1276.01 60.7292 1276.63 60.4758 1277.25 60.6116C1277.87 60.7382 1278.32 61.2178 1278.4 61.7787C1278.1 62.2492 1277.5 62.5026 1276.87 62.3578C1276.25 62.2402 1275.8 61.7606 1275.73 61.2087ZM1271.33 60.2677C1271.62 59.7882 1272.22 59.5348 1272.85 59.6706C1273.45 59.7972 1273.93 60.2858 1274 60.8378C1273.7 61.3083 1273.1 61.5706 1272.48 61.453C1271.86 61.2992 1271.41 60.8197 1271.33 60.2677Z" fill="#F39DA2"/>
</g>
</g>
<g opacity="0.5">
<path fill-rule="evenodd" clip-rule="evenodd" d="M1126 57C1130.42 57 1134 53.4183 1134 49C1134 44.5817 1130.42 41 1126 41C1121.58 41 1118 44.5817 1118 49C1118 53.4183 1121.58 57 1126 57ZM1123 48C1123.83 48 1124.5 47.3284 1124.5 46.5C1124.5 45.6716 1123.83 45 1123 45C1122.17 45 1121.5 45.6716 1121.5 46.5C1121.5 47.3284 1122.17 48 1123 48ZM1126 54.6C1128.4 54.6 1130.29 53.1631 1130.91 51.3106C1130.95 51.1696 1130.83 51.0348 1130.68 51.0601C1130.03 51.1718 1128.42 51.4 1126 51.4C1123.58 51.4 1121.96 51.1716 1121.32 51.06C1121.17 51.0347 1121.04 51.1695 1121.09 51.3105C1121.71 53.163 1123.6 54.6 1126 54.6ZM1129 48C1129.83 48 1130.5 47.3284 1130.5 46.5C1130.5 45.6716 1129.83 45 1129 45C1128.17 45 1127.5 45.6716 1127.5 46.5C1127.5 47.3284 1128.17 48 1129 48Z" fill="#F39DA2"/>
</g>
<defs>
<clipPath id="clip0_98_130769">
<rect width="20" height="20" fill="white" transform="translate(40 48)"/>
</clipPath>
<clipPath id="clip1_98_130769">
<rect width="20" height="20" fill="white" transform="translate(515 22)"/>
</clipPath>
<clipPath id="clip2_98_130769">
<rect width="20" height="20" fill="white" transform="translate(419.996 455)"/>
</clipPath>
<clipPath id="clip3_98_130769">
<rect width="20" height="20" fill="white" transform="translate(1019 223)"/>
</clipPath>
<clipPath id="clip4_98_130769">
<rect width="20" height="20" fill="white" transform="translate(933 455)"/>
</clipPath>
<clipPath id="clip5_98_130769">
<rect width="20" height="20" fill="white" transform="translate(323 313)"/>
</clipPath>
<clipPath id="clip6_98_130769">
<rect width="18" height="18" fill="white" transform="matrix(-1 0 0 1 333 509)"/>
</clipPath>
<clipPath id="clip7_98_130769">
<rect width="20" height="20" fill="white" transform="translate(446 170)"/>
</clipPath>
<clipPath id="clip8_98_130769">
<rect width="18" height="18" fill="white" transform="translate(107 156)"/>
</clipPath>
<clipPath id="clip9_98_130769">
<rect width="18" height="18" fill="white" transform="translate(527 487)"/>
</clipPath>
<clipPath id="clip10_98_130769">
<rect width="20" height="20" fill="white" transform="translate(294 168)"/>
</clipPath>
<clipPath id="clip11_98_130769">
<rect width="20" height="20" fill="white" transform="translate(803 486)"/>
</clipPath>
<clipPath id="clip12_98_130769">
<rect width="20" height="20" fill="white" transform="translate(558 100)"/>
</clipPath>
<clipPath id="clip13_98_130769">
<rect width="20" height="20" fill="white" transform="translate(40 268)"/>
</clipPath>
<clipPath id="clip14_98_130769">
<rect width="20" height="20" fill="white" transform="translate(1044 508)"/>
</clipPath>
<clipPath id="clip15_98_130769">
<rect width="20" height="20" fill="white" transform="translate(658 48)"/>
</clipPath>
<clipPath id="clip16_98_130769">
<rect width="20" height="20" fill="white" transform="translate(249 438)"/>
</clipPath>
<clipPath id="clip17_98_130769">
<rect width="16" height="16" fill="white" transform="translate(56 499)"/>
</clipPath>
<clipPath id="clip18_98_130769">
<rect width="16" height="18" fill="white" transform="translate(1208 159)"/>
</clipPath>
<clipPath id="clip19_98_130769">
<rect width="18" height="18" fill="white" transform="translate(1217 381)"/>
</clipPath>
<clipPath id="clip20_98_130769">
<rect width="20" height="20" fill="white" transform="translate(1295 276)"/>
</clipPath>
<clipPath id="clip21_98_130769">
<rect width="20" height="20" fill="white" transform="translate(1262 497)"/>
</clipPath>
<clipPath id="clip22_98_130769">
<rect width="20" height="20" fill="white" transform="translate(1263 51)"/>
</clipPath>
</defs>
</svg>
