<svg width="0" height="0">
    <defs>
        <symbol id="arrow" xmlns="http://www.w3.org/2000/svg" viewBox="0 0 24 24">
            <path fill-rule="evenodd" clip-rule="evenodd" d="M11.5303 5.46967C11.8232 5.76256 11.8232 6.23744 11.5303 6.53033L6.81066 11.25H19C19.4142 11.25 19.75 11.5858 19.75 12C19.75 12.4142 19.4142 12.75 19 12.75H6.81066L11.5303 17.4697C11.8232 17.7626 11.8232 18.2374 11.5303 18.5303C11.2374 18.8232 10.7626 18.8232 10.4697 18.5303L4.46967 12.5303C4.17678 12.2374 4.17678 11.7626 4.46967 11.4697L10.4697 5.46967C10.7626 5.17678 11.2374 5.17678 11.5303 5.46967Z"/>
        </symbol>
        <symbol id="ticket" xmlns="http://www.w3.org/2000/svg" viewBox="0 0 24 24" fill="none">
            <path d="M16.6154 5.77778V6.55556M16.6154 9.66667V10.4444M16.6154 13.5556V14.3333M16.6154 17.4444V18.2222M7.38462 12.7778H12.7692M7.38462 15.1111H10.4615M3.15385 5C2.51692 5 2 5.52267 2 6.16667V9.30474C2.46846 9.57746 2.85756 9.97018 3.12812 10.4434C3.39868 10.9165 3.54113 11.4534 3.54113 12C3.54113 12.5466 3.39868 13.0835 3.12812 13.5566C2.85756 14.0298 2.46846 14.4225 2 14.6953V17.8333C2 18.4773 2.51692 19 3.15385 19H20.8462C21.4831 19 22 18.4773 22 17.8333V14.6953C21.5315 14.4225 21.1424 14.0298 20.8719 13.5566C20.6013 13.0835 20.4589 12.5466 20.4589 12C20.4589 11.4534 20.6013 10.9165 20.8719 10.4434C21.1424 9.97018 21.5315 9.57746 22 9.30474V6.16667C22 5.52267 21.4831 5 20.8462 5H3.15385Z" stroke="white" stroke-width="1.5" stroke-linecap="round" stroke-linejoin="round"/>
        </symbol>
        <symbol id="search" xmlns="http://www.w3.org/2000/svg" width="34" height="32" viewBox="0 0 34 32">
                <path fill-rule="evenodd" clip-rule="evenodd" d="M22.3015 19.7266C22.3015 19.7266 27.1013 24.3809 28.0417 25.2929L26.5833 26.7071L20.7247 21.0261C19.2907 21.957 17.5662 22.5 15.7109 22.5C10.7274 22.5 6.6875 18.5825 6.6875 13.75C6.6875 8.9175 10.7274 5 15.7109 5C20.6945 5 24.7344 8.9175 24.7344 13.75C24.7344 16.0609 23.8106 18.1625 22.3015 19.7266ZM15.7109 7C11.8726 7 8.75 10.028 8.75 13.75C8.75 17.472 11.8726 20.5 15.7109 20.5C19.5492 20.5 22.6719 17.472 22.6719 13.75C22.6719 10.028 19.5492 7 15.7109 7Z"/>
        </symbol>
        <symbol id="market" xmlns="http://www.w3.org/2000/svg" width="24" height="24" viewBox="0 0 24 24">
            <path fill-rule="evenodd" clip-rule="evenodd" d="M20.5 6H7.58198L7.16573 4.47377C6.92843 3.60364 6.13811 3 5.2362 3H3C2.44772 3 2 3.44772 2 4C2 4.55228 2.44772 5 3 5H5.2362L7.79746 14.3913C8.06753 15.3815 9.04335 16.0066 10.0558 15.8378L20.3288 14.1257C21.2932 13.9649 22 13.1306 22 12.1529V7.5C22 6.67157 21.3284 6 20.5 6ZM7 21C8.10457 21 9 20.1046 9 19C9 17.8954 8.10457 17 7 17C5.89543 17 5 17.8954 5 19C5 20.1046 5.89543 21 7 21ZM17 21C18.1046 21 19 20.1046 19 19C19 17.8954 18.1046 17 17 17C15.8954 17 15 17.8954 15 19C15 20.1046 15.8954 21 17 21Z"/>
        </symbol>
        <symbol id="lang" xmlns="http://www.w3.org/2000/svg" width="24" height="24" viewBox="0 0 24 24">
            <path d="M5 8L11 14M4 14L10 8L12 5M2 5H14M7 2H8M22 22L17 12L12 22M14 18H20" stroke-width="2" stroke-linecap="round" stroke-linejoin="round"/>
        </symbol>
        <symbol id="thatIsTheExhibition" xmlns="http://www.w3.org/2000/svg" width="70" height="44" viewBox="0 0 70 44">
            <path d="M0.0650066 0H7.00771C7.04672 0 7.07272 0.0260539 7.07272 0.0651337V1.06819C7.07272 1.10727 7.04672 1.1203 7.00771 1.1203H4.12142V9.05359C4.12142 9.09267 4.09542 9.11872 4.05641 9.11872H3.01631C2.9773 9.11872 2.9513 9.09267 2.9513 9.05359V1.1203H0.0650066C0.0260026 1.1203 0 1.10727 0 1.06819V0.0651337C0 0.0260539 0.0260026 0 0.0650066 0Z"/>
            <path d="M11.2161 1.83677L9.77293 5.54939H12.7242L11.2161 1.83677ZM8.40779 9.07964C8.39479 9.10569 8.39479 9.11872 8.35579 9.11872H7.28968C7.23767 9.11872 7.19867 9.07964 7.22467 9.02753L10.761 0.0390805C10.774 0.0130266 10.787 0 10.826 0H11.6841C11.7101 0 11.7231 0.0130266 11.7361 0.0390805L15.3505 9.02753C15.3635 9.07964 15.3375 9.11872 15.2855 9.11872H14.2064C14.1804 9.11872 14.1674 9.10569 14.1544 9.07964L13.1663 6.63061H9.35689L8.40779 9.07964Z"/>
            <path d="M8.06082 24.2862L8.73689 24.9506C8.76289 24.9636 8.76289 24.9896 8.73689 25.0287C7.8788 25.9666 6.72168 26.631 5.04451 26.631C2.36624 26.631 0.559057 24.6249 0.559057 21.9544C0.559057 19.2839 2.44425 17.2127 5.08352 17.2127C6.72168 17.2127 7.78779 17.8249 8.77589 18.9061C8.8019 18.9322 8.8019 18.9583 8.77589 18.9843L8.03482 19.6747C8.00881 19.7008 7.96981 19.7008 7.94381 19.6747C7.16373 18.8019 6.33164 18.3069 5.14852 18.3069C3.10732 18.3069 1.76818 19.8962 1.76818 21.9414C1.76818 23.9866 3.01631 25.5237 5.22653 25.5237C6.30564 25.5237 7.16373 25.1069 7.96981 24.2862C7.99581 24.2732 8.02182 24.2601 8.06082 24.2862Z"/>
            <path d="M13.3491 19.2058L11.906 22.9184H14.8573L13.3491 19.2058ZM10.5408 26.4486C10.5278 26.4747 10.5278 26.4877 10.4888 26.4877H9.42271C9.3707 26.4877 9.3317 26.4486 9.3577 26.3965L12.8941 17.4081C12.9071 17.382 12.9201 17.369 12.9591 17.369H13.8172C13.8432 17.369 13.8562 17.382 13.8692 17.4081L17.4835 26.3965C17.4965 26.4486 17.4705 26.4877 17.4185 26.4877H16.3394C16.3134 26.4877 16.3004 26.4747 16.2874 26.4486L15.2993 23.9996H11.4899L10.5408 26.4486Z"/>
            <path d="M26.0978 17.369H26.9169C26.9559 17.369 26.9689 17.382 26.9819 17.4341L29.0751 26.4226C29.0881 26.4617 29.0621 26.4877 29.0231 26.4877H27.957C27.918 26.4877 27.905 26.4747 27.892 26.4356L26.3058 19.5575L24.1736 24.8594C24.1606 24.8854 24.1476 24.8985 24.1086 24.8985H23.2115C23.1855 24.8985 23.1595 24.8854 23.1465 24.8594L20.9233 19.5445L19.4151 26.4356C19.4021 26.4747 19.3891 26.4877 19.3501 26.4877H18.31C18.271 26.4877 18.245 26.4617 18.258 26.4226L20.2992 17.4341C20.3122 17.382 20.3252 17.369 20.3642 17.369H21.1703C21.2093 17.369 21.2223 17.369 21.2483 17.4211L23.6926 23.2701L26.0198 17.4341C26.0458 17.369 26.0588 17.369 26.0978 17.369Z"/>
            <path d="M33.8287 19.2058L32.3856 22.9184H35.3369L33.8287 19.2058ZM31.0204 26.4486C31.0074 26.4747 31.0074 26.4877 30.9684 26.4877H29.9023C29.8503 26.4877 29.8113 26.4486 29.8373 26.3965L33.3737 17.4081C33.3867 17.382 33.3997 17.369 33.4387 17.369H34.2968C34.3228 17.369 34.3358 17.382 34.3488 17.4081L37.9632 26.3965C37.9762 26.4486 37.9501 26.4877 37.8981 26.4877H36.819C36.793 26.4877 36.78 26.4747 36.767 26.4486L35.7789 23.9996H31.9695L31.0204 26.4486Z"/>
            <path d="M44.2372 21.733V18.4242H42.144C41.1429 18.4242 40.5318 19.1667 40.5318 20.0916C40.5318 21.0556 41.1949 21.733 42.235 21.733H44.2372ZM40.0378 26.4617C40.0118 26.4877 39.9988 26.4877 39.9728 26.4877H38.7506C38.6856 26.4877 38.6466 26.4226 38.6986 26.3705L41.3899 22.71C39.9988 22.4234 39.3747 21.3682 39.3747 20.0916C39.3747 18.5935 40.4018 17.369 42.131 17.369H45.3293C45.3683 17.369 45.3813 17.395 45.3813 17.4341V26.4226C45.3813 26.4617 45.3683 26.4877 45.3293 26.4877H44.2892C44.2632 26.4877 44.2372 26.4617 44.2372 26.4226V22.8011L42.69 22.7881L40.0378 26.4617Z"/>
            <path d="M0.975099 43.7916V34.8031C0.975099 34.764 1.0011 34.738 1.04011 34.738H4.04341C5.66858 34.738 6.72168 35.5066 6.72168 37.0437C6.72168 37.9165 6.34465 38.5027 5.75959 38.8675C6.76069 39.2192 7.26774 40.079 7.26774 41.095C7.26774 42.6582 6.31864 43.8567 4.19943 43.8567H1.04011C1.0011 43.8567 0.975099 43.8307 0.975099 43.7916ZM2.11922 35.8192V38.5548H3.9654C4.9275 38.5548 5.53856 38.1119 5.53856 37.1219C5.53856 36.21 4.96651 35.8192 3.99141 35.8192H2.11922ZM2.11922 39.6751V42.7494H4.17342C5.29154 42.7494 6.09762 42.3195 6.09762 41.1602C6.09762 40.0659 5.35654 39.6751 4.30344 39.6751H2.11922Z"/>
            <path d="M17.9363 34.8031V43.7916C17.9363 43.8307 17.9103 43.8567 17.8713 43.8567H16.8572C16.8182 43.8567 16.7922 43.8307 16.7922 43.7916V34.8031C16.7922 34.764 16.8182 34.738 16.8572 34.738H17.8713C17.9103 34.738 17.9363 34.764 17.9363 34.8031ZM12.3458 43.8567H9.39447C9.35547 43.8567 9.32946 43.8307 9.32946 43.7916V34.8031C9.32946 34.764 9.35547 34.738 9.39447 34.738H10.4216C10.4606 34.738 10.4736 34.764 10.4736 34.8031V38.4767H12.5278C14.0619 38.4767 15.1671 39.5579 15.1671 41.1732C15.1671 42.6713 14.166 43.8567 12.3458 43.8567ZM12.3718 39.597H10.4866V42.7234H12.4498C13.4119 42.7234 13.9839 42.0851 13.9839 41.1732C13.9839 40.2483 13.4639 39.597 12.3718 39.597Z"/>
            <path d="M27.7279 41.6552L28.4039 42.3195C28.4299 42.3326 28.4299 42.3586 28.4039 42.3977C27.5458 43.3356 26.3887 44 24.7116 44C22.0333 44 20.2261 41.9939 20.2261 39.3234C20.2261 36.6529 22.1113 34.5817 24.7506 34.5817C26.3887 34.5817 27.4548 35.1939 28.4429 36.2751C28.4689 36.3012 28.4689 36.3273 28.4429 36.3533L27.7019 37.0437C27.6759 37.0698 27.6369 37.0698 27.6108 37.0437C26.8308 36.1709 25.9987 35.6759 24.8156 35.6759C22.7744 35.6759 21.4352 37.2652 21.4352 39.3104C21.4352 41.3556 22.6833 42.8927 24.8936 42.8927C25.9727 42.8927 26.8308 42.4759 27.6369 41.6552C27.6629 41.6422 27.6889 41.6291 27.7279 41.6552Z"/>
            <path d="M29.2672 34.738H36.2099C36.2489 34.738 36.2749 34.764 36.2749 34.8031V35.8062C36.2749 35.8453 36.2489 35.8583 36.2099 35.8583H33.3236V43.7916C33.3236 43.8307 33.2976 43.8567 33.2586 43.8567H32.2185C32.1795 43.8567 32.1535 43.8307 32.1535 43.7916V35.8583H29.2672C29.2282 35.8583 29.2022 35.8453 29.2022 35.8062V34.8031C29.2022 34.764 29.2282 34.738 29.2672 34.738Z"/>
            <path d="M40.4183 36.5748L38.9751 40.2874H41.9264L40.4183 36.5748ZM37.61 43.8176C37.597 43.8437 37.597 43.8567 37.558 43.8567H36.4919C36.4399 43.8567 36.4009 43.8176 36.4269 43.7655L39.9632 34.7771C39.9762 34.751 39.9892 34.738 40.0282 34.738H40.8863C40.9123 34.738 40.9253 34.751 40.9383 34.7771L44.5527 43.7655C44.5657 43.8176 44.5397 43.8567 44.4877 43.8567H43.4086C43.3826 43.8567 43.3696 43.8437 43.3566 43.8176L42.3685 41.3686H38.5591L37.61 43.8176Z"/>
            <path d="M46.2893 43.7916V34.8031C46.2893 34.764 46.3153 34.738 46.3543 34.738H49.3576C50.9828 34.738 52.0359 35.5066 52.0359 37.0437C52.0359 37.9165 51.6588 38.5027 51.0738 38.8675C52.0749 39.2192 52.5819 40.079 52.5819 41.095C52.5819 42.6582 51.6328 43.8567 49.5136 43.8567H46.3543C46.3153 43.8567 46.2893 43.8307 46.2893 43.7916ZM47.4334 35.8192V38.5548H49.2796C50.2417 38.5548 50.8527 38.1119 50.8527 37.1219C50.8527 36.21 50.2807 35.8192 49.3056 35.8192H47.4334ZM47.4334 39.6751V42.7494H49.4876C50.6057 42.7494 51.4118 42.3195 51.4118 41.1602C51.4118 40.0659 50.6707 39.6751 49.6176 39.6751H47.4334Z"/>
            <path d="M55.7878 43.8046C55.7878 43.8307 55.7748 43.8567 55.7358 43.8567H54.6957C54.6696 43.8567 54.6436 43.8307 54.6436 43.8046V34.7901C54.6436 34.764 54.6696 34.738 54.6957 34.738H55.7358C55.7748 34.738 55.7878 34.764 55.7878 34.7901V36.9786C55.7878 37.9035 55.7618 38.3203 55.7228 38.6069C56.0088 38.2552 56.2688 37.9556 56.6718 37.5387L59.3891 34.7771C59.4151 34.751 59.4281 34.738 59.4671 34.738H60.8323C60.8843 34.738 60.8973 34.7771 60.8583 34.8031L57.5689 38.138C57.2309 38.5027 57.0229 38.6721 56.7499 38.9196C57.0229 39.1541 57.3219 39.4276 57.5559 39.6751L61.5343 43.7916C61.5733 43.8176 61.5603 43.8567 61.5083 43.8567H60.0782C60.0392 43.8567 60.0262 43.8437 60.0002 43.8176L56.7759 40.5479C56.2818 40.0399 56.0088 39.7403 55.7228 39.4016C55.7618 39.7533 55.7878 40.2874 55.7878 41.4989V43.8046Z"/>
            <path d="M65.8623 36.5748L64.4191 40.2874H67.3704L65.8623 36.5748ZM63.054 43.8176C63.041 43.8437 63.041 43.8567 63.002 43.8567H61.9359C61.8839 43.8567 61.8449 43.8176 61.8709 43.7655L65.4072 34.7771C65.4202 34.751 65.4332 34.738 65.4722 34.738H66.3303C66.3563 34.738 66.3693 34.751 66.3823 34.7771L69.9967 43.7655C70.0097 43.8176 69.9837 43.8567 69.9317 43.8567H68.8526C68.8266 43.8567 68.8136 43.8437 68.8006 43.8176L67.8125 41.3686H64.0031L63.054 43.8176Z"/>
        </symbol>
        <symbol id="close" viewBox="0 0 16 16" fill="none" xmlns="http://www.w3.org/2000/svg">
            <g id="xmark">
                <path id="edit" fill-rule="evenodd" clip-rule="evenodd" d="M3.64657 3.6466C3.84183 3.45134 4.15841 3.45134 4.35368 3.6466L8.00012 7.29305L11.6466 3.6466C11.8418 3.45134 12.1584 3.45134 12.3537 3.6466C12.5489 3.84186 12.5489 4.15844 12.3537 4.35371L8.70723 8.00015L12.3537 11.6466C12.5489 11.8419 12.5489 12.1584 12.3537 12.3537C12.1584 12.549 11.8418 12.549 11.6466 12.3537L8.00012 8.70726L4.35368 12.3537C4.15841 12.549 3.84183 12.549 3.64657 12.3537C3.45131 12.1584 3.45131 11.8419 3.64657 11.6466L7.29301 8.00015L3.64657 4.35371C3.45131 4.15844 3.45131 3.84186 3.64657 3.6466Z" fill="#262633"/>
            </g>
        </symbol>
        <symbol id="eye-closed" viewBox="0 0 20 20" fill="none" xmlns="http://www.w3.org/2000/svg">
            <g id="eye-off">
                <path id="Icon" d="M8.95245 4.2436C9.29113 4.19353 9.64051 4.16667 10.0003 4.16667C14.2545 4.16667 17.0461 7.9207 17.9839 9.40569C18.0974 9.58542 18.1542 9.67528 18.1859 9.81389C18.2098 9.91799 18.2098 10.0822 18.1859 10.1863C18.1541 10.3249 18.097 10.4154 17.9827 10.5963C17.7328 10.9918 17.3518 11.5476 16.8471 12.1504M5.6036 5.59586C3.80187 6.81808 2.57871 8.51615 2.01759 9.4044C1.90357 9.58489 1.84656 9.67514 1.81478 9.81373C1.79091 9.91783 1.7909 10.082 1.81476 10.1861C1.84652 10.3247 1.90328 10.4146 2.01678 10.5943C2.95462 12.0793 5.74618 15.8333 10.0003 15.8333C11.7157 15.8333 13.1932 15.223 14.4073 14.3972M2.50035 2.5L17.5003 17.5M8.23258 8.23223C7.78017 8.68464 7.50035 9.30964 7.50035 10C7.50035 11.3807 8.61963 12.5 10.0003 12.5C10.6907 12.5 11.3157 12.2202 11.7681 11.7678" stroke="#85889E" stroke-width="1.5" stroke-linecap="round" stroke-linejoin="round"/>
            </g>
        </symbol>
        <symbol id="showme" xmlns="http://www.w3.org/2000/svg" viewBox="-6 -8 24 24">
            <path d="M1.91 0.795078L6.5 5.37508L11.09 0.795078L12.5 2.20508L6.5 8.20508L0.5 2.20508L1.91 0.795078Z"/>
        </symbol>
        <symbol id="mir-grey" xmlns="http://www.w3.org/2000/svg" width="88" height="39" viewBox="0 0 88 39" fill="none">
            <g clip-path="url(#clip0_1416_75138)">
                <path d="M62.6914 11.8135V24.8656H70.583V17.5129H78.5282C82.7036 17.5129 86.2169 15.1441 87.5888 11.8135H62.6914Z" fill="#595857"/>
                <path d="M85.1717 2.30862C83.581 0.828668 81.4969 0.00474401 79.3321 0L62.3262 0C62.3717 0.654937 62.4735 1.30466 62.6304 1.94188C62.6662 2.08617 62.696 2.22445 62.7378 2.36273C62.7795 2.501 62.7676 2.47695 62.7855 2.53106C63.4918 4.78581 64.8926 6.75502 66.7847 8.15285C68.6768 9.55069 70.9616 10.3044 73.3075 10.3046H87.8857C88.1525 8.85171 88.0459 7.35417 87.576 5.95454C87.1062 4.55491 86.2887 3.29978 85.2015 2.30862" fill="#595857"/>
                <path d="M48.7036 2.62725L43.1742 14.6934H42.6135V9.45241e-08H34.7637V24.8657H41.4265C42.283 24.8664 43.1218 24.62 43.8437 24.1555C44.5656 23.691 45.1406 23.0278 45.5005 22.2445L51.024 10.1784H51.5847V24.8657H59.4345V9.45241e-08H52.7776C51.9205 -0.000176532 51.0812 0.247182 50.3592 0.712794C49.6372 1.17841 49.0627 1.84277 48.7036 2.62725Z" fill="#595857"/>
                <path d="M12.1505 3.27054L15.4192 14.6934H15.9799L19.2487 3.27054C19.5189 2.32802 20.0855 1.49947 20.8633 0.909617C21.6411 0.319765 22.5879 0.000539599 23.5613 0L31.3992 0V24.8657H23.5494V10.1723H22.9887L18.4912 24.8657H12.8842L8.41049 10.1723H7.84979V24.8657H0V0H7.83786C8.81124 0.000539599 9.75809 0.319765 10.5359 0.909617C11.3137 1.49947 11.8803 2.32802 12.1505 3.27054Z" fill="#595857"/>
                <path d="M0 32.7715H5.00454V38.8917H3.93086V33.7514H1.06772V38.8917H0V32.7715Z" fill="#595857"/>
                <path d="M10.9569 38.8916H9.81167L8.46957 35.5429L7.10361 38.8916H5.99414L7.98045 34.2383H8.97062L10.9569 38.8916Z" fill="#595857"/>
                <path d="M11.4824 37.5628C11.4824 36.5708 12.2638 36.0778 13.3852 36.0778C13.8045 36.0735 14.2216 36.1385 14.62 36.2702V36.156C14.62 35.5006 14.2203 35.1519 13.4807 35.1519C13.0279 35.1538 12.5807 35.2521 12.1684 35.4405L11.8821 34.6109C12.4249 34.3542 13.0183 34.2247 13.6179 34.2321C13.8928 34.2119 14.1689 34.2472 14.4301 34.336C14.6913 34.4247 14.9323 34.5652 15.1389 34.7491C15.3131 34.9403 15.4468 35.1653 15.5319 35.4102C15.617 35.6552 15.6517 35.9151 15.634 36.174V38.9095H14.608V38.3083C14.4285 38.5284 14.2012 38.7041 13.9437 38.8219C13.6862 38.9397 13.4054 38.9964 13.1228 38.9876C12.9211 39.0101 12.7171 38.9904 12.5233 38.9296C12.3296 38.8689 12.1504 38.7685 11.997 38.6348C11.8436 38.501 11.7192 38.3367 11.6317 38.1523C11.5442 37.9678 11.4954 37.7671 11.4884 37.5628M14.6438 37.2321V36.9195C14.3104 36.7925 13.9564 36.7293 13.6 36.7331C12.92 36.7331 12.5263 37.0217 12.5263 37.5027C12.5263 37.9475 12.914 38.2 13.415 38.2C14.1129 38.2 14.6438 37.7972 14.6438 37.2141" fill="#595857"/>
                <path d="M17.9722 35.2183H16.3438V34.2744H20.6564V35.2183H19.022V38.8917H17.9722V35.2183Z" fill="#595857"/>
                <path d="M21.104 36.6012C21.0896 36.2936 21.1367 35.9863 21.2425 35.6974C21.3482 35.4086 21.5106 35.1441 21.7198 34.9198C21.929 34.6954 22.1809 34.5158 22.4604 34.3915C22.7399 34.2672 23.0413 34.2009 23.3468 34.1964C24.8022 34.1964 25.5419 35.3507 25.5419 36.6853C25.5419 36.7815 25.5419 36.8777 25.5419 36.9799H22.1538C22.1768 37.3132 22.3269 37.6246 22.5727 37.8487C22.8184 38.0729 23.1408 38.1925 23.4721 38.1823C23.7059 38.1835 23.9373 38.1348 24.1511 38.0395C24.3649 37.9442 24.5563 37.8044 24.7128 37.6292L25.3093 38.1823C25.0834 38.4628 24.7963 38.6868 24.4704 38.837C24.1444 38.9871 23.7885 39.0594 23.4303 39.0481C23.1163 39.0566 22.804 38.9999 22.5126 38.8816C22.2213 38.7633 21.9572 38.5859 21.7368 38.3603C21.5164 38.1348 21.3444 37.866 21.2314 37.5706C21.1184 37.2752 21.0669 36.9596 21.0801 36.6433M21.9212 32.6934H22.9889V33.6673H21.9451L21.9212 32.6934ZM24.4742 36.3006C24.4742 35.9817 24.3485 35.6758 24.1248 35.4503C23.901 35.2248 23.5976 35.0982 23.2812 35.0982C22.9686 35.1101 22.6719 35.2406 22.4507 35.4635C22.2295 35.6865 22.1 35.9855 22.0882 36.3006H24.4742ZM23.6152 32.6934H24.6829V33.6673H23.6391L23.6152 32.6934Z" fill="#595857"/>
                <path d="M30.1342 36.1021H30.6472L32.0967 34.2744H33.3314L31.4406 36.5349L33.403 38.8917H32.1563L30.6592 37.0159H30.1342L30.1462 38.8917H29.1202L29.1321 37.0159H28.5953L27.0981 38.8917H25.8574L27.8199 36.577L25.935 34.2744H27.1757L28.6251 36.1021H29.1321L29.1202 34.2744H30.1462L30.1342 36.1021Z" fill="#595857"/>
                <path d="M34.1543 34.2744H35.2101V36.084H37.3276V34.2744H38.3774V38.8917H37.3276V37.058H35.2101V38.8917H34.1543V34.2744Z" fill="#595857"/>
                <path d="M39.3691 37.5629C39.3691 36.5529 40.1565 36.0719 41.2779 36.0719C41.6952 36.0675 42.1104 36.1325 42.5067 36.2643V36.1501C42.5067 35.4948 42.107 35.1461 41.3733 35.1461C40.9206 35.1479 40.4734 35.2463 40.0611 35.4347L39.7748 34.605C40.3176 34.3483 40.911 34.2189 41.5105 34.2262C41.7855 34.206 42.0616 34.2413 42.3228 34.3301C42.584 34.4189 42.825 34.5594 43.0316 34.7433C43.2066 34.9322 43.3422 35.1545 43.4303 35.3972C43.5184 35.6399 43.5573 35.898 43.5446 36.1561V38.8916H42.5007V38.2904C42.3191 38.5092 42.0904 38.6836 41.8321 38.8002C41.5737 38.9169 41.2924 38.9728 41.0095 38.9637C40.8093 38.987 40.6065 38.9686 40.4136 38.9098C40.2208 38.8509 40.0419 38.7528 39.8882 38.6215C39.7345 38.4902 39.6091 38.3285 39.5198 38.1465C39.4305 37.9644 39.3792 37.7658 39.3691 37.5629ZM42.5186 37.2323V36.9196C42.1873 36.7926 41.8352 36.7294 41.4807 36.7333C40.8007 36.7333 40.4011 37.0218 40.4011 37.5028C40.4011 37.9477 40.7948 38.2002 41.2958 38.2002C41.9877 38.2002 42.5186 37.7974 42.5186 37.2142" fill="#595857"/>
                <path d="M44.4746 38.8918L45.7093 37.2084C45.402 37.1303 45.1296 36.9502 44.936 36.6973C44.7424 36.4443 44.6387 36.1331 44.6416 35.8136C44.6416 34.8036 45.3693 34.2686 46.5265 34.2686H48.7216V38.8858H47.6599V37.3227H46.8009L45.6795 38.8918H44.4746ZM46.5265 35.1042C45.9897 35.1042 45.6497 35.3688 45.6497 35.8136C45.6497 36.2405 45.9599 36.5231 46.5146 36.5231H47.6599V35.1042H46.5265Z" fill="#595857"/>
                <path d="M52.3711 36.6135C52.3711 35.9757 52.6225 35.3641 53.0699 34.9131C53.5174 34.4621 54.1243 34.2087 54.757 34.2087C55.1022 34.1954 55.4459 34.2604 55.7628 34.3988C56.0797 34.5372 56.3618 34.7455 56.5883 35.0083L55.9262 35.7177C55.7842 35.5344 55.6035 35.3853 55.3971 35.2813C55.1907 35.1773 54.9639 35.121 54.7332 35.1165C54.5498 35.1242 54.3698 35.1686 54.2036 35.247C54.0374 35.3255 53.8883 35.4365 53.7651 35.5736C53.6419 35.7106 53.5469 35.8711 53.4858 36.0455C53.4246 36.2199 53.3985 36.4048 53.409 36.5895C53.3976 36.7786 53.4246 36.9681 53.4883 37.1463C53.552 37.3246 53.6511 37.4879 53.7795 37.6263C53.9078 37.7647 54.0628 37.8752 54.235 37.9513C54.4072 38.0273 54.5929 38.0672 54.7809 38.0684C55.0084 38.0629 55.2321 38.0092 55.4377 37.9108C55.6432 37.8124 55.8259 37.6715 55.9739 37.4973L56.6062 38.0985C56.2968 38.481 55.8782 38.7583 55.4071 38.8928C54.936 39.0273 54.4353 39.0125 53.9728 38.8504C53.5104 38.6882 53.1087 38.3866 52.8221 37.9864C52.5356 37.5863 52.3781 37.107 52.3711 36.6135Z" fill="#595857"/>
                <path d="M57.5664 34.2744H58.6162V37.2323L60.8053 34.2744H61.8015V38.8917H60.7517V35.8676L58.5208 38.8917H57.5664V34.2744Z" fill="#595857"/>
                <path d="M62.8583 36.6135C62.8583 35.9757 63.1097 35.3641 63.5572 34.9131C64.0046 34.4621 64.6115 34.2087 65.2443 34.2087C65.5894 34.1954 65.9331 34.2604 66.2501 34.3988C66.567 34.5372 66.8491 34.7455 67.0755 35.0083L66.4134 35.7177C66.2718 35.5341 66.0911 35.3847 65.8846 35.2807C65.6782 35.1767 65.4512 35.1206 65.2204 35.1165C65.0371 35.1242 64.857 35.1686 64.6909 35.247C64.5247 35.3255 64.3756 35.4365 64.2524 35.5736C64.1291 35.7106 64.0342 35.8711 63.973 36.0455C63.9119 36.2199 63.8858 36.4048 63.8962 36.5895C63.8849 36.7786 63.9119 36.9681 63.9756 37.1463C64.0393 37.3246 64.1383 37.4879 64.2667 37.6263C64.3951 37.7647 64.5501 37.8752 64.7223 37.9513C64.8944 38.0273 65.0802 38.0672 65.2682 38.0684C65.4958 38.0636 65.7198 38.0102 65.9254 37.9118C66.131 37.8133 66.3136 37.6721 66.4611 37.4973L67.0934 38.0985C66.8688 38.3788 66.5827 38.6028 66.2578 38.7531C65.9328 38.9033 65.5778 38.9755 65.2204 38.9642C64.9053 38.9708 64.5922 38.9131 64.2997 38.7945C64.0073 38.676 63.7417 38.4991 63.5188 38.2745C63.296 38.0498 63.1205 37.7821 63.0029 37.4874C62.8853 37.1927 62.828 36.877 62.8345 36.5594" fill="#595857"/>
                <path d="M69.193 35.2183H67.5586V34.2744H71.8712V35.2183H70.2428V38.8917H69.193V35.2183Z" fill="#595857"/>
                <path d="M72.3174 36.6011C72.3029 36.2935 72.35 35.9862 72.4558 35.6973C72.5616 35.4085 72.7239 35.144 72.9332 34.9197C73.1424 34.6953 73.3943 34.5157 73.6738 34.3914C73.9533 34.2671 74.2547 34.2008 74.5602 34.1963C76.0156 34.1963 76.7552 35.3506 76.7552 36.6793C76.7552 36.7754 76.7552 36.8716 76.7552 36.9799H73.3672C73.3902 37.3142 73.5411 37.6265 73.7882 37.8508C74.0352 38.0751 74.3591 38.194 74.6914 38.1823C74.9251 38.1831 75.1564 38.1342 75.3702 38.0389C75.584 37.9436 75.7754 37.804 75.9321 37.6292L76.5286 38.1823C76.3036 38.4622 76.0176 38.686 75.6927 38.8362C75.3678 38.9863 75.0129 39.0588 74.6556 39.048C74.3387 39.0616 74.0224 39.0087 73.7268 38.8927C73.4312 38.7766 73.1628 38.6 72.9385 38.3739C72.7141 38.1478 72.5389 37.8773 72.4237 37.5793C72.3086 37.2814 72.2561 36.9626 72.2697 36.6432M75.6637 36.3065C75.6637 35.9876 75.538 35.6818 75.3143 35.4563C75.0905 35.2308 74.7871 35.1041 74.4707 35.1041C74.1581 35.116 73.8614 35.2465 73.6402 35.4695C73.419 35.6924 73.2895 35.9914 73.2777 36.3065H75.6637Z" fill="#595857"/>
                <path d="M77.8066 34.2744H78.9042L80.3119 36.4267L81.7196 34.2744H82.8112V38.8917H81.7793V35.8315L80.3119 38.0259H80.288L78.8266 35.8496V38.8917H77.8066V34.2744Z" fill="#595857"/>
                <path d="M83.8066 37.5628C83.8066 36.5708 84.588 36.0778 85.7094 36.0778C86.1267 36.0734 86.5419 36.1384 86.9382 36.2702V36.156C86.9382 35.5006 86.5386 35.1519 85.8049 35.1519C85.3522 35.1538 84.9049 35.2521 84.4926 35.4405L84.2063 34.6109C84.7491 34.3542 85.3425 34.2247 85.9421 34.2321C86.217 34.2119 86.4931 34.2472 86.7543 34.336C87.0155 34.4247 87.2565 34.5652 87.4631 34.7491C87.6353 34.9414 87.7674 35.1666 87.8514 35.4114C87.9355 35.6562 87.9698 35.9156 87.9522 36.174V38.9095H86.9322V38.3083C86.7506 38.5271 86.5219 38.7014 86.2636 38.8181C86.0053 38.9348 85.724 38.9907 85.441 38.9816C85.2394 39.0041 85.0353 38.9843 84.8416 38.9236C84.6479 38.8629 84.4687 38.7625 84.3153 38.6288C84.1618 38.495 84.0374 38.3307 83.9499 38.1463C83.8624 37.9618 83.8136 37.7611 83.8066 37.5568M86.9561 37.2261V36.9135C86.6169 36.7855 86.2565 36.7243 85.8944 36.7331C85.2144 36.7331 84.8147 37.0217 84.8147 37.5027C84.8147 37.9475 85.2084 38.2 85.7094 38.2C86.4014 38.2 86.9322 37.7972 86.9322 37.2141" fill="#595857"/>
            </g>
            <defs>
                <clipPath id="clip0_1416_75138">
                    <rect width="88" height="39" fill="white"/>
                </clipPath>
            </defs>
        </symbol>
        <symbol id="tele2-grey" xmlns="http://www.w3.org/2000/svg" width="88" height="33" viewBox="0 0 88 33" fill="none">
            <g clip-path="url(#clip0_1416_75161)">
                <path d="M4.11914 16.6749V32.9998H8.84973V16.1934L4.11914 16.6749Z" fill="#595857"/>
                <path d="M0 11.6203V16.3844L12.9156 14.9726V9.81445L0 11.6203Z" fill="#595857"/>
                <path d="M14.6621 9.56823V32.9994H19.6426V8.87402L14.6621 9.56823Z" fill="#595857"/>
                <path d="M20.5723 8.74266V14.1337L27.7687 13.3426V7.7373L20.5723 8.74266Z" fill="#595857"/>
                <path d="M20.5723 18.1446V23.6326L25.2997 23.3778V17.7412L20.5723 18.1446Z" fill="#595857"/>
                <path d="M20.5723 27.5869V32.9998H27.7687V27.3711L20.5723 27.5869Z" fill="#595857"/>
                <path d="M46.3809 5.12697V33.0001H52.9141V4.21387L46.3809 5.12697Z" fill="#595857"/>
                <path d="M54.1348 4.04346V10.454L63.6525 9.41108V2.71289L54.1348 4.04346Z" fill="#595857"/>
                <path d="M54.1348 15.2752V21.8045L60.3757 21.4668V14.7451L54.1348 15.2752Z" fill="#595857"/>
                <path d="M54.1348 26.5785V33H63.6525V26.2939L54.1348 26.5785Z" fill="#595857"/>
                <path d="M29.6738 7.46732V32.9999H35.349V6.67773L29.6738 7.46732Z" fill="#595857"/>
                <path d="M36.4102 27.1113V32.9996H44.6502V26.8643L36.4102 27.1113Z" fill="#595857"/>
                <path d="M85.0019 2.3981C82.9336 0.456186 79.9083 -0.339654 76.5968 0.130971V7.2435C77.9374 7.17001 79.0234 7.66409 79.5091 8.66006C80.2729 10.2314 79.4871 12.5908 77.6247 14.7735C74.7518 18.1445 67.1152 25.0459 67.1152 25.0459L78.0773 24.6863C84.7756 18.1757 87.1817 14.2247 87.6124 9.29329C87.8403 6.68532 86.8863 4.16959 85.0019 2.39654" fill="#595857"/>
                <path d="M65.7637 26.2252L65.7684 33H88.0006V25.5576L65.7637 26.2252Z" fill="#595857"/>
                <path d="M75.3169 0.291992C68.8575 1.66165 65.6844 6.38822 66.0521 14.1027L72.9406 13.4945C72.6247 9.13848 73.9653 8.10498 75.32 7.53429L75.3169 0.291992Z" fill="#595857"/>
            </g>
            <defs>
                <clipPath id="clip0_1416_75161">
                    <rect width="88" height="33" fill="white"/>
                </clipPath>
            </defs>
        </symbol>
        <symbol id="vk-grey" xmlns="http://www.w3.org/2000/svg" width="32" height="32" viewBox="0 0 32 32" fill="none">
            <path fill-rule="evenodd" clip-rule="evenodd" d="M27.9774 23.7406H25.1378C24.0626 23.7406 23.7318 22.8861 21.8019 20.9291C20.1202 19.3029 19.3759 19.0824 18.9623 19.0824C18.3834 19.0824 18.218 19.2478 18.218 20.0471V22.6105C18.218 23.2996 17.9974 23.713 16.1779 23.713C13.1729 23.713 9.83707 21.8939 7.49372 18.5036C3.96491 13.5422 3 9.82111 3 9.04934C3 8.63588 3.16541 8.25 3.96491 8.25H6.8045C7.52129 8.25 7.79698 8.58076 8.07266 9.35253C9.47867 13.4043 11.822 16.96 12.7869 16.96C13.1453 16.96 13.3107 16.7946 13.3107 15.885V11.6954C13.2005 9.76598 12.1804 9.6006 12.1804 8.91152C12.1804 8.58076 12.4561 8.25 12.8972 8.25H17.3634C17.9699 8.25 18.1904 8.58076 18.1904 9.29741V14.9479C18.1904 15.5543 18.4661 15.7748 18.6315 15.7748C18.9899 15.7748 19.2932 15.5543 19.9548 14.8928C21.9949 12.605 23.4561 9.0769 23.4561 9.0769C23.649 8.66345 23.9799 8.27756 24.6967 8.27756H27.5363C28.3909 8.27756 28.5839 8.71857 28.3909 9.32497C28.0325 10.9788 24.5588 15.885 24.5588 15.885C24.2556 16.3812 24.1453 16.6017 24.5588 17.153C24.8621 17.5664 25.8546 18.4209 26.5162 19.1927C27.7292 20.5708 28.6666 21.7285 28.9147 22.5278C29.1904 23.3272 28.7768 23.7406 27.9774 23.7406Z" fill="#595857"/>
        </symbol>
        <symbol id="ok-grey" xmlns="http://www.w3.org/2000/svg" width="32" height="32" viewBox="0 0 32 32" fill="none">
            <path d="M16.0125 16.3802C19.4244 16.3802 22.2124 13.6117 22.2124 10.1803C22.1929 6.76848 19.4244 4 16.0125 4C12.6007 4 9.81269 6.76848 9.81269 10.1998C9.81269 13.6117 12.5812 16.3802 16.0125 16.3802ZM16.0125 7.62632C17.4358 7.62632 18.586 8.77661 18.586 10.1998C18.586 11.6036 17.4358 12.7539 16.0125 12.7539C14.6088 12.7539 13.439 11.6036 13.439 10.1998C13.439 8.77661 14.5893 7.62632 16.0125 7.62632Z" fill="#595857"/>
            <path d="M18.5081 21.4297C19.7753 21.1373 20.9841 20.6499 22.0954 19.948C22.9337 19.4216 23.2067 18.2908 22.6608 17.4525C22.1344 16.5946 21.0036 16.3412 20.1653 16.8871C17.6307 18.4858 14.3553 18.4858 11.8208 16.8871C10.9825 16.3412 9.87118 16.5946 9.32529 17.4525C8.79888 18.2908 9.05234 19.4216 9.89068 19.948C11.002 20.6499 12.2302 21.1568 13.478 21.4297L10.0272 24.9001C9.32529 25.6019 9.32529 26.7522 10.0272 27.4736C10.3781 27.8245 10.846 28 11.3139 28C11.7818 28 12.2497 27.8245 12.6007 27.4736L15.993 24.0617L19.4049 27.4736C20.1068 28.1755 21.2571 28.1755 21.9784 27.4736C22.6803 26.7717 22.6803 25.6214 21.9784 24.9001L18.5081 21.4297Z" fill="#595857"/>
        </symbol>
        <symbol id="yt-grey" xmlns="http://www.w3.org/2000/svg" width="32" height="32" viewBox="0 0 32 32" fill="none">
            <path d="M28.4534 9.70575C28.158 8.58303 27.2716 7.69666 26.1489 7.38643C24.125 6.83984 16 6.83984 16 6.83984C16 6.83984 7.875 6.83984 5.83636 7.38643C4.71364 7.68189 3.84205 8.56825 3.53182 9.70575C3 11.7444 3 15.9989 3 15.9989C3 15.9989 3 20.2535 3.54659 22.2921C3.84205 23.4148 4.72841 24.3012 5.85114 24.6114C7.875 25.158 16 25.158 16 25.158C16 25.158 24.125 25.158 26.1636 24.6114C27.2864 24.316 28.158 23.4296 28.4682 22.2921C29 20.2535 29 15.9989 29 15.9989C29 15.9989 29 11.7444 28.4534 9.70575ZM13.3409 19.8694V12.1285L20.1364 15.9989L13.3409 19.8694Z" fill="#595857"/>
        </symbol>
        <symbol id="zen-grey" xmlns="http://www.w3.org/2000/svg" width="32" height="32" viewBox="0 0 32 32" fill="none">
            <path fill-rule="evenodd" clip-rule="evenodd" d="M18.4366 18.1636C16.5393 20.0807 16.4059 22.4843 16.2452 27.7402C21.2043 27.7402 24.64 27.7245 26.4039 26.0245C28.1261 24.2847 28.1422 20.7351 28.1429 16.0015C22.8156 16.1601 20.38 16.2917 18.4366 18.1636ZM4.08203 16.0015C4.08203 20.7351 4.09856 24.2847 5.82074 26.0245C7.58447 27.7245 11.0207 27.7402 15.9798 27.7402C15.8191 22.4843 15.685 20.0807 13.7884 18.1636C11.845 16.2917 9.40948 16.1601 4.08203 16.0015ZM15.9798 4C11.0207 4.00047 7.58447 4.01674 5.82074 5.71618C4.09856 7.45606 4.08203 11.0056 4.08203 15.7392C9.40883 15.5806 11.845 15.449 13.7878 13.577C15.685 11.66 15.8184 9.25642 15.9798 4ZM18.4366 13.577C16.5393 11.66 16.4059 9.25642 16.2452 4C21.2043 4.00047 24.64 4.01674 26.4039 5.71618C28.1261 7.45606 28.1422 11.0056 28.1429 15.7392C22.8156 15.5806 20.38 15.449 18.4366 13.577Z" fill="#595857"/>
        </symbol>
        <symbol id="mir" xmlns="http://www.w3.org/2000/svg" width="88" height="39" viewBox="0 0 88 39" fill="none">
            <g clip-path="url(#clip0_1416_75138)">
                <path d="M62.6914 11.8135V24.8656H70.583V17.5129H78.5282C82.7036 17.5129 86.2169 15.1441 87.5888 11.8135H62.6914Z" fill="#262624"/>
                <path d="M85.1717 2.30862C83.581 0.828668 81.4969 0.00474401 79.3321 0L62.3262 0C62.3717 0.654937 62.4735 1.30466 62.6304 1.94188C62.6662 2.08617 62.696 2.22445 62.7378 2.36273C62.7795 2.501 62.7676 2.47695 62.7855 2.53106C63.4918 4.78581 64.8926 6.75502 66.7847 8.15285C68.6768 9.55069 70.9616 10.3044 73.3075 10.3046H87.8857C88.1525 8.85171 88.0459 7.35417 87.576 5.95454C87.1062 4.55491 86.2887 3.29978 85.2015 2.30862" fill="#262624"/>
                <path d="M48.7036 2.62725L43.1742 14.6934H42.6135V9.45241e-08H34.7637V24.8657H41.4265C42.283 24.8664 43.1218 24.62 43.8437 24.1555C44.5656 23.691 45.1406 23.0278 45.5005 22.2445L51.024 10.1784H51.5847V24.8657H59.4345V9.45241e-08H52.7776C51.9205 -0.000176532 51.0812 0.247182 50.3592 0.712794C49.6372 1.17841 49.0627 1.84277 48.7036 2.62725Z" fill="#262624"/>
                <path d="M12.1505 3.27054L15.4192 14.6934H15.9799L19.2487 3.27054C19.5189 2.32802 20.0855 1.49947 20.8633 0.909617C21.6411 0.319765 22.5879 0.000539599 23.5613 0L31.3992 0V24.8657H23.5494V10.1723H22.9887L18.4912 24.8657H12.8842L8.41049 10.1723H7.84979V24.8657H0V0H7.83786C8.81124 0.000539599 9.75809 0.319765 10.5359 0.909617C11.3137 1.49947 11.8803 2.32802 12.1505 3.27054Z" fill="#262624"/>
                <path d="M0 32.7715H5.00454V38.8917H3.93086V33.7514H1.06772V38.8917H0V32.7715Z" fill="#262624"/>
                <path d="M10.9569 38.8916H9.81167L8.46957 35.5429L7.10361 38.8916H5.99414L7.98045 34.2383H8.97062L10.9569 38.8916Z" fill="#262624"/>
                <path d="M11.4824 37.5628C11.4824 36.5708 12.2638 36.0778 13.3852 36.0778C13.8045 36.0735 14.2216 36.1385 14.62 36.2702V36.156C14.62 35.5006 14.2203 35.1519 13.4807 35.1519C13.0279 35.1538 12.5807 35.2521 12.1684 35.4405L11.8821 34.6109C12.4249 34.3542 13.0183 34.2247 13.6179 34.2321C13.8928 34.2119 14.1689 34.2472 14.4301 34.336C14.6913 34.4247 14.9323 34.5652 15.1389 34.7491C15.3131 34.9403 15.4468 35.1653 15.5319 35.4102C15.617 35.6552 15.6517 35.9151 15.634 36.174V38.9095H14.608V38.3083C14.4285 38.5284 14.2012 38.7041 13.9437 38.8219C13.6862 38.9397 13.4054 38.9964 13.1228 38.9876C12.9211 39.0101 12.7171 38.9904 12.5233 38.9296C12.3296 38.8689 12.1504 38.7685 11.997 38.6348C11.8436 38.501 11.7192 38.3367 11.6317 38.1523C11.5442 37.9678 11.4954 37.7671 11.4884 37.5628M14.6438 37.2321V36.9195C14.3104 36.7925 13.9564 36.7293 13.6 36.7331C12.92 36.7331 12.5263 37.0217 12.5263 37.5027C12.5263 37.9475 12.914 38.2 13.415 38.2C14.1129 38.2 14.6438 37.7972 14.6438 37.2141" fill="#262624"/>
                <path d="M17.9722 35.2183H16.3438V34.2744H20.6564V35.2183H19.022V38.8917H17.9722V35.2183Z" fill="#262624"/>
                <path d="M21.104 36.6012C21.0896 36.2936 21.1367 35.9863 21.2425 35.6974C21.3482 35.4086 21.5106 35.1441 21.7198 34.9198C21.929 34.6954 22.1809 34.5158 22.4604 34.3915C22.7399 34.2672 23.0413 34.2009 23.3468 34.1964C24.8022 34.1964 25.5419 35.3507 25.5419 36.6853C25.5419 36.7815 25.5419 36.8777 25.5419 36.9799H22.1538C22.1768 37.3132 22.3269 37.6246 22.5727 37.8487C22.8184 38.0729 23.1408 38.1925 23.4721 38.1823C23.7059 38.1835 23.9373 38.1348 24.1511 38.0395C24.3649 37.9442 24.5563 37.8044 24.7128 37.6292L25.3093 38.1823C25.0834 38.4628 24.7963 38.6868 24.4704 38.837C24.1444 38.9871 23.7885 39.0594 23.4303 39.0481C23.1163 39.0566 22.804 38.9999 22.5126 38.8816C22.2213 38.7633 21.9572 38.5859 21.7368 38.3603C21.5164 38.1348 21.3444 37.866 21.2314 37.5706C21.1184 37.2752 21.0669 36.9596 21.0801 36.6433M21.9212 32.6934H22.9889V33.6673H21.9451L21.9212 32.6934ZM24.4742 36.3006C24.4742 35.9817 24.3485 35.6758 24.1248 35.4503C23.901 35.2248 23.5976 35.0982 23.2812 35.0982C22.9686 35.1101 22.6719 35.2406 22.4507 35.4635C22.2295 35.6865 22.1 35.9855 22.0882 36.3006H24.4742ZM23.6152 32.6934H24.6829V33.6673H23.6391L23.6152 32.6934Z" fill="#262624"/>
                <path d="M30.1342 36.1021H30.6472L32.0967 34.2744H33.3314L31.4406 36.5349L33.403 38.8917H32.1563L30.6592 37.0159H30.1342L30.1462 38.8917H29.1202L29.1321 37.0159H28.5953L27.0981 38.8917H25.8574L27.8199 36.577L25.935 34.2744H27.1757L28.6251 36.1021H29.1321L29.1202 34.2744H30.1462L30.1342 36.1021Z" fill="#262624"/>
                <path d="M34.1543 34.2744H35.2101V36.084H37.3276V34.2744H38.3774V38.8917H37.3276V37.058H35.2101V38.8917H34.1543V34.2744Z" fill="#262624"/>
                <path d="M39.3691 37.5629C39.3691 36.5529 40.1565 36.0719 41.2779 36.0719C41.6952 36.0675 42.1104 36.1325 42.5067 36.2643V36.1501C42.5067 35.4948 42.107 35.1461 41.3733 35.1461C40.9206 35.1479 40.4734 35.2463 40.0611 35.4347L39.7748 34.605C40.3176 34.3483 40.911 34.2189 41.5105 34.2262C41.7855 34.206 42.0616 34.2413 42.3228 34.3301C42.584 34.4189 42.825 34.5594 43.0316 34.7433C43.2066 34.9322 43.3422 35.1545 43.4303 35.3972C43.5184 35.6399 43.5573 35.898 43.5446 36.1561V38.8916H42.5007V38.2904C42.3191 38.5092 42.0904 38.6836 41.8321 38.8002C41.5737 38.9169 41.2924 38.9728 41.0095 38.9637C40.8093 38.987 40.6065 38.9686 40.4136 38.9098C40.2208 38.8509 40.0419 38.7528 39.8882 38.6215C39.7345 38.4902 39.6091 38.3285 39.5198 38.1465C39.4305 37.9644 39.3792 37.7658 39.3691 37.5629ZM42.5186 37.2323V36.9196C42.1873 36.7926 41.8352 36.7294 41.4807 36.7333C40.8007 36.7333 40.4011 37.0218 40.4011 37.5028C40.4011 37.9477 40.7948 38.2002 41.2958 38.2002C41.9877 38.2002 42.5186 37.7974 42.5186 37.2142" fill="#262624"/>
                <path d="M44.4746 38.8918L45.7093 37.2084C45.402 37.1303 45.1296 36.9502 44.936 36.6973C44.7424 36.4443 44.6387 36.1331 44.6416 35.8136C44.6416 34.8036 45.3693 34.2686 46.5265 34.2686H48.7216V38.8858H47.6599V37.3227H46.8009L45.6795 38.8918H44.4746ZM46.5265 35.1042C45.9897 35.1042 45.6497 35.3688 45.6497 35.8136C45.6497 36.2405 45.9599 36.5231 46.5146 36.5231H47.6599V35.1042H46.5265Z" fill="#262624"/>
                <path d="M52.3711 36.6135C52.3711 35.9757 52.6225 35.3641 53.0699 34.9131C53.5174 34.4621 54.1243 34.2087 54.757 34.2087C55.1022 34.1954 55.4459 34.2604 55.7628 34.3988C56.0797 34.5372 56.3618 34.7455 56.5883 35.0083L55.9262 35.7177C55.7842 35.5344 55.6035 35.3853 55.3971 35.2813C55.1907 35.1773 54.9639 35.121 54.7332 35.1165C54.5498 35.1242 54.3698 35.1686 54.2036 35.247C54.0374 35.3255 53.8883 35.4365 53.7651 35.5736C53.6419 35.7106 53.5469 35.8711 53.4858 36.0455C53.4246 36.2199 53.3985 36.4048 53.409 36.5895C53.3976 36.7786 53.4246 36.9681 53.4883 37.1463C53.552 37.3246 53.6511 37.4879 53.7795 37.6263C53.9078 37.7647 54.0628 37.8752 54.235 37.9513C54.4072 38.0273 54.5929 38.0672 54.7809 38.0684C55.0084 38.0629 55.2321 38.0092 55.4377 37.9108C55.6432 37.8124 55.8259 37.6715 55.9739 37.4973L56.6062 38.0985C56.2968 38.481 55.8782 38.7583 55.4071 38.8928C54.936 39.0273 54.4353 39.0125 53.9728 38.8504C53.5104 38.6882 53.1087 38.3866 52.8221 37.9864C52.5356 37.5863 52.3781 37.107 52.3711 36.6135Z" fill="#262624"/>
                <path d="M57.5664 34.2744H58.6162V37.2323L60.8053 34.2744H61.8015V38.8917H60.7517V35.8676L58.5208 38.8917H57.5664V34.2744Z" fill="#262624"/>
                <path d="M62.8583 36.6135C62.8583 35.9757 63.1097 35.3641 63.5572 34.9131C64.0046 34.4621 64.6115 34.2087 65.2443 34.2087C65.5894 34.1954 65.9331 34.2604 66.2501 34.3988C66.567 34.5372 66.8491 34.7455 67.0755 35.0083L66.4134 35.7177C66.2718 35.5341 66.0911 35.3847 65.8846 35.2807C65.6782 35.1767 65.4512 35.1206 65.2204 35.1165C65.0371 35.1242 64.857 35.1686 64.6909 35.247C64.5247 35.3255 64.3756 35.4365 64.2524 35.5736C64.1291 35.7106 64.0342 35.8711 63.973 36.0455C63.9119 36.2199 63.8858 36.4048 63.8962 36.5895C63.8849 36.7786 63.9119 36.9681 63.9756 37.1463C64.0393 37.3246 64.1383 37.4879 64.2667 37.6263C64.3951 37.7647 64.5501 37.8752 64.7223 37.9513C64.8944 38.0273 65.0802 38.0672 65.2682 38.0684C65.4958 38.0636 65.7198 38.0102 65.9254 37.9118C66.131 37.8133 66.3136 37.6721 66.4611 37.4973L67.0934 38.0985C66.8688 38.3788 66.5827 38.6028 66.2578 38.7531C65.9328 38.9033 65.5778 38.9755 65.2204 38.9642C64.9053 38.9708 64.5922 38.9131 64.2997 38.7945C64.0073 38.676 63.7417 38.4991 63.5188 38.2745C63.296 38.0498 63.1205 37.7821 63.0029 37.4874C62.8853 37.1927 62.828 36.877 62.8345 36.5594" fill="#262624"/>
                <path d="M69.193 35.2183H67.5586V34.2744H71.8712V35.2183H70.2428V38.8917H69.193V35.2183Z" fill="#262624"/>
                <path d="M72.3174 36.6011C72.3029 36.2935 72.35 35.9862 72.4558 35.6973C72.5616 35.4085 72.7239 35.144 72.9332 34.9197C73.1424 34.6953 73.3943 34.5157 73.6738 34.3914C73.9533 34.2671 74.2547 34.2008 74.5602 34.1963C76.0156 34.1963 76.7552 35.3506 76.7552 36.6793C76.7552 36.7754 76.7552 36.8716 76.7552 36.9799H73.3672C73.3902 37.3142 73.5411 37.6265 73.7882 37.8508C74.0352 38.0751 74.3591 38.194 74.6914 38.1823C74.9251 38.1831 75.1564 38.1342 75.3702 38.0389C75.584 37.9436 75.7754 37.804 75.9321 37.6292L76.5286 38.1823C76.3036 38.4622 76.0176 38.686 75.6927 38.8362C75.3678 38.9863 75.0129 39.0588 74.6556 39.048C74.3387 39.0616 74.0224 39.0087 73.7268 38.8927C73.4312 38.7766 73.1628 38.6 72.9385 38.3739C72.7141 38.1478 72.5389 37.8773 72.4237 37.5793C72.3086 37.2814 72.2561 36.9626 72.2697 36.6432M75.6637 36.3065C75.6637 35.9876 75.538 35.6818 75.3143 35.4563C75.0905 35.2308 74.7871 35.1041 74.4707 35.1041C74.1581 35.116 73.8614 35.2465 73.6402 35.4695C73.419 35.6924 73.2895 35.9914 73.2777 36.3065H75.6637Z" fill="#262624"/>
                <path d="M77.8066 34.2744H78.9042L80.3119 36.4267L81.7196 34.2744H82.8112V38.8917H81.7793V35.8315L80.3119 38.0259H80.288L78.8266 35.8496V38.8917H77.8066V34.2744Z" fill="#262624"/>
                <path d="M83.8066 37.5628C83.8066 36.5708 84.588 36.0778 85.7094 36.0778C86.1267 36.0734 86.5419 36.1384 86.9382 36.2702V36.156C86.9382 35.5006 86.5386 35.1519 85.8049 35.1519C85.3522 35.1538 84.9049 35.2521 84.4926 35.4405L84.2063 34.6109C84.7491 34.3542 85.3425 34.2247 85.9421 34.2321C86.217 34.2119 86.4931 34.2472 86.7543 34.336C87.0155 34.4247 87.2565 34.5652 87.4631 34.7491C87.6353 34.9414 87.7674 35.1666 87.8514 35.4114C87.9355 35.6562 87.9698 35.9156 87.9522 36.174V38.9095H86.9322V38.3083C86.7506 38.5271 86.5219 38.7014 86.2636 38.8181C86.0053 38.9348 85.724 38.9907 85.441 38.9816C85.2394 39.0041 85.0353 38.9843 84.8416 38.9236C84.6479 38.8629 84.4687 38.7625 84.3153 38.6288C84.1618 38.495 84.0374 38.3307 83.9499 38.1463C83.8624 37.9618 83.8136 37.7611 83.8066 37.5568M86.9561 37.2261V36.9135C86.6169 36.7855 86.2565 36.7243 85.8944 36.7331C85.2144 36.7331 84.8147 37.0217 84.8147 37.5027C84.8147 37.9475 85.2084 38.2 85.7094 38.2C86.4014 38.2 86.9322 37.7972 86.9322 37.2141" fill="#262624"/>
            </g>
            <defs>
                <clipPath id="clip0_1416_75138">
                    <rect width="88" height="39" fill="white"/>
                </clipPath>
            </defs>
        </symbol>
        <symbol id="tele2" xmlns="http://www.w3.org/2000/svg" width="88" height="33" viewBox="0 0 88 33" fill="none">
            <g clip-path="url(#clip0_540_58422)">
                <path d="M4 16.4871V33H9V16L4 16.4871Z" fill="#262624"/>
                <path d="M0 11.9241V17L13 15.4957V10L0 11.9241Z" fill="#262624"/>
                <path d="M15 9.6906V33H20V9L15 9.6906Z" fill="#262624"/>
                <path d="M21 8.94305V14L28 13.2579V8L21 8.94305Z" fill="#262624"/>
                <path d="M21 18.4108V24L26 23.7404V18L21 18.4108Z" fill="#262624"/>
                <path d="M21 27.23V33H28V27L21 27.23Z" fill="#262624"/>
                <path d="M46 4.91988V33H53V4L46 4.91988Z" fill="#262624"/>
                <path d="M54 4.37508V11L64 9.92224V3L54 4.37508Z" fill="#262624"/>
                <path d="M54 15.5256V22L60 21.6651V15L54 15.5256Z" fill="#262624"/>
                <path d="M54 26.297V33H64V26L54 26.297Z" fill="#262624"/>
                <path d="M30 7.77992V33H36V7L30 7.77992Z" fill="#262624"/>
                <path d="M36 27.2416V33H44V27L36 27.2416Z" fill="#262624"/>
                <path d="M85.2959 2.39458C83.1803 0.456307 80.0857 -0.338043 76.6985 0.1317V7.23091C78.0698 7.15756 79.1806 7.65071 79.6774 8.64482C80.4587 10.2132 79.6549 12.5682 77.7499 14.7468C74.8112 18.1115 67 25 67 25L78.2129 24.6411C85.0644 18.1427 87.5256 14.199 87.9661 9.27687C88.1992 6.67377 87.2233 4.16275 85.2959 2.39302" fill="#262624"/>
                <path d="M66 26.6279L66.0047 33H88V26L66 26.6279Z" fill="#262624"/>
                <path d="M74.997 0C68.7436 1.38843 65.6717 6.17978 66.0278 14L72.6965 13.3834C72.3906 8.96773 73.6885 7.92007 75 7.34156L74.997 0Z" fill="#262624"/>
            </g>
            <defs>
                <clipPath id="clip0_540_58422">
                    <rect width="88" height="33" fill="white"/>
                </clipPath>
            </defs>
        </symbol>
        <symbol id="vk" xmlns="http://www.w3.org/2000/svg" width="32" height="32" viewBox="0 0 32 32" fill="none">
            <path fill-rule="evenodd" clip-rule="evenodd" d="M27.9774 23.7406H25.1378C24.0626 23.7406 23.7318 22.8861 21.8019 20.9291C20.1202 19.3029 19.3759 19.0824 18.9623 19.0824C18.3834 19.0824 18.218 19.2478 18.218 20.0471V22.6105C18.218 23.2996 17.9974 23.713 16.1779 23.713C13.1729 23.713 9.83707 21.8939 7.49372 18.5036C3.96491 13.5422 3 9.82111 3 9.04934C3 8.63588 3.16541 8.25 3.96491 8.25H6.8045C7.52129 8.25 7.79698 8.58076 8.07266 9.35253C9.47867 13.4043 11.822 16.96 12.7869 16.96C13.1453 16.96 13.3107 16.7946 13.3107 15.885V11.6954C13.2005 9.76598 12.1804 9.6006 12.1804 8.91152C12.1804 8.58076 12.4561 8.25 12.8972 8.25H17.3634C17.9699 8.25 18.1904 8.58076 18.1904 9.29741V14.9479C18.1904 15.5543 18.4661 15.7748 18.6315 15.7748C18.9899 15.7748 19.2932 15.5543 19.9548 14.8928C21.9949 12.605 23.4561 9.0769 23.4561 9.0769C23.649 8.66345 23.9799 8.27756 24.6967 8.27756H27.5363C28.3909 8.27756 28.5839 8.71857 28.3909 9.32497C28.0325 10.9788 24.5588 15.885 24.5588 15.885C24.2556 16.3812 24.1453 16.6017 24.5588 17.153C24.8621 17.5664 25.8546 18.4209 26.5162 19.1927C27.7292 20.5708 28.6666 21.7285 28.9147 22.5278C29.1904 23.3272 28.7768 23.7406 27.9774 23.7406Z" fill="#262624"/>
        </symbol>
        <symbol id="ok" xmlns="http://www.w3.org/2000/svg" width="33" height="32" viewBox="0 0 33 32" fill="none">
            <path d="M16.6785 16.3802C20.0904 16.3802 22.8784 13.6117 22.8784 10.1803C22.8589 6.76848 20.0904 4 16.6785 4C13.2667 4 10.4787 6.76848 10.4787 10.1998C10.4787 13.6117 13.2472 16.3802 16.6785 16.3802ZM16.6785 7.62632C18.1018 7.62632 19.2521 8.77661 19.2521 10.1998C19.2521 11.6036 18.1018 12.7539 16.6785 12.7539C15.2748 12.7539 14.105 11.6036 14.105 10.1998C14.105 8.77661 15.2553 7.62632 16.6785 7.62632Z" fill="#262624"/>
            <path d="M19.1741 21.4297C20.4413 21.1373 21.6501 20.6499 22.7614 19.948C23.5998 19.4216 23.8727 18.2908 23.3268 17.4525C22.8004 16.5946 21.6696 16.3412 20.8313 16.8871C18.2967 18.4858 15.0214 18.4858 12.4868 16.8871C11.6485 16.3412 10.5372 16.5946 9.9913 17.4525C9.4649 18.2908 9.71835 19.4216 10.5567 19.948C11.668 20.6499 12.8963 21.1568 14.144 21.4297L10.6932 24.9001C9.9913 25.6019 9.9913 26.7522 10.6932 27.4736C11.0441 27.8245 11.512 28 11.9799 28C12.4478 28 12.9158 27.8245 13.2667 27.4736L16.6591 24.0617L20.0709 27.4736C20.7728 28.1755 21.9231 28.1755 22.6444 27.4736C23.3463 26.7717 23.3463 25.6214 22.6444 24.9001L19.1741 21.4297Z" fill="#262624"/>
        </symbol>
        <symbol id="yt" xmlns="http://www.w3.org/2000/svg" width="33" height="32" viewBox="0 0 33 32" fill="none">
            <path d="M28.7874 9.70575C28.4919 8.58303 27.6056 7.69666 26.4828 7.38643C24.459 6.83984 16.334 6.83984 16.334 6.83984C16.334 6.83984 8.20898 6.83984 6.17035 7.38643C5.04762 7.68189 4.17603 8.56825 3.8658 9.70575C3.33398 11.7444 3.33398 15.9989 3.33398 15.9989C3.33398 15.9989 3.33398 20.2535 3.88058 22.2921C4.17603 23.4148 5.06239 24.3012 6.18512 24.6114C8.20898 25.158 16.334 25.158 16.334 25.158C16.334 25.158 24.459 25.158 26.4976 24.6114C27.6203 24.316 28.4919 23.4296 28.8022 22.2921C29.334 20.2535 29.334 15.9989 29.334 15.9989C29.334 15.9989 29.334 11.7444 28.7874 9.70575ZM13.6749 19.8694V12.1285L20.4703 15.9989L13.6749 19.8694Z" fill="#262624"/>
        </symbol>
        <symbol id="zen" xmlns="http://www.w3.org/2000/svg" width="32" height="32" viewBox="0 0 32 32" fill="none">
            <path fill-rule="evenodd" clip-rule="evenodd" d="M18.3183 18.3186C16.4258 20.2567 16.2928 22.6866 16.1325 28C21.079 28 24.506 27.984 26.2654 26.2655C27.9832 24.5067 27.9994 20.9182 28 16.1328C22.6862 16.2931 20.2567 16.4262 18.3183 18.3186ZM4 16.1328C4 20.9182 4.01649 24.5067 5.73432 26.2655C7.49358 27.984 10.9211 28 15.8676 28C15.7073 22.6866 15.5737 20.2567 13.6818 18.3186C11.7434 16.4262 9.31398 16.2931 4 16.1328ZM15.8676 4C10.9211 4.00047 7.49358 4.01693 5.73432 5.73495C4.01649 7.49388 4 11.0823 4 15.8677C9.31333 15.7074 11.7434 15.5743 13.6812 13.6818C15.5737 11.7438 15.7067 9.31393 15.8676 4ZM18.3183 13.6818C16.4258 11.7438 16.2928 9.31393 16.1325 4C21.079 4.00047 24.506 4.01693 26.2654 5.73495C27.9832 7.49388 27.9994 11.0823 28 15.8677C22.6862 15.7074 20.2567 15.5743 18.3183 13.6818Z" fill="#262624"/>
        </symbol>
        <symbol id="logo" xmlns="http://www.w3.org/2000/svg" width="45" height="50" viewBox="0 0 45 50">
            <path fill-rule="evenodd" clip-rule="evenodd" d="M3 16.6314H42.8036V14.9619H3V16.6314Z"/>
            <path fill-rule="evenodd" clip-rule="evenodd" d="M33.4938 19.6725H29.0939V35.2818H26.9891V24.6908C26.9891 23.8041 26.9381 23.2433 26.773 22.6953C26.4542 21.5999 25.7138 20.4291 24.7833 19.9592C24.2215 19.6725 23.5714 19.5551 22.8955 19.5551C22.1053 19.5551 21.3649 19.7246 20.7406 20.1159C19.911 20.6246 19.2733 21.7301 18.9805 22.7999C18.8403 23.2954 18.8019 23.8428 18.8019 24.6908V35.2818H16.698V19.6725H12.2977V35.2818H10.2192L10.1932 19.6725H5.93351V35.2818H3.84211V19.6725H3V18.003H42.8034V19.6725H41.9623V35.2818H39.8709V19.6725H35.5852V35.2818H33.4938V19.6725Z"/>
            <path fill-rule="evenodd" clip-rule="evenodd" d="M3.59473 12.3734L4.81904 10.7039L6.03086 12.3734L4.81904 14.043L3.59473 12.3734Z"/>
            <path fill-rule="evenodd" clip-rule="evenodd" d="M9.14277 42.0696C9.85623 42.3829 10.4688 43.1397 10.4688 44.2351C10.4688 45.6439 9.71607 46.5434 8.75958 46.8173C8.1728 47 7.56124 47 7.00042 47H3.59432V37.4659H7.20401C7.65044 37.4659 8.14802 37.4785 8.64539 37.6092C9.49999 37.8438 10.2902 38.5745 10.2902 39.918C10.2902 41.1569 9.60169 41.7568 9.14277 42.0048V42.0696ZM7.26725 41.6003C7.59969 41.6003 7.90498 41.561 8.16031 41.4049C8.53002 41.196 8.78555 40.7527 8.78555 40.0875C8.78555 39.4353 8.47927 39.0047 8.03264 38.8486C7.81676 38.7571 7.54875 38.7306 7.20401 38.7306H5.07415V41.6003H7.26725ZM8.9257 44.2351C8.9257 43.5437 8.59445 43.1525 8.19877 42.983C7.94344 42.8784 7.65044 42.8524 7.39511 42.8524H5.07415V45.7479H7.37014C7.65044 45.7479 7.91846 45.7219 8.13553 45.6439C8.6329 45.4478 8.9257 44.9913 8.9257 44.2351Z"/>
            <path fill-rule="evenodd" clip-rule="evenodd" d="M10.9126 12.308C10.5938 12.1906 10.3642 11.8906 10.3642 11.5258C10.3642 11.0691 10.7215 10.7037 11.1806 10.7037C11.627 10.7037 11.9842 11.0691 11.9842 11.5258C11.9842 11.8906 11.7672 12.1906 11.4484 12.2952L12.2263 13.9127H10.1347L10.9126 12.308Z"/>
            <path fill-rule="evenodd" clip-rule="evenodd" d="M22.2769 45.6043L21.2822 46.9997H11.9206L16.9965 37.4656H20.1086V45.6436L22.2769 45.6043ZM18.6547 45.7083V38.6263H17.686L13.9995 45.7083H18.6547Z"/>
            <path fill-rule="evenodd" clip-rule="evenodd" d="M16.678 13.7929H29.0739V12.1234H16.678V13.7929Z"/>
            <path fill-rule="evenodd" clip-rule="evenodd" d="M20.4435 10.7522H25.4686V9.08267H20.4435V10.7522Z"/>
            <path fill-rule="evenodd" clip-rule="evenodd" d="M21.0389 4.65677H24.7378V3H21.0389V4.65677Z"/>
            <path fill-rule="evenodd" clip-rule="evenodd" d="M21.4354 6.04101H24.1645L22.7999 7.91917L21.4354 6.04101Z"/>
            <path fill-rule="evenodd" clip-rule="evenodd" d="M32.0884 37.4656V46.9999H30.6086V42.5782H25.8775V46.9999H24.4101V37.4656H25.8775V41.274H30.6086V37.4656H32.0884Z"/>
            <path fill-rule="evenodd" clip-rule="evenodd" d="M34.3083 12.2952C33.9896 12.1906 33.7725 11.8906 33.7725 11.5258C33.7725 11.0691 34.1297 10.7037 34.5763 10.7037C35.0352 10.7037 35.3925 11.0691 35.3925 11.5258C35.3925 11.8906 35.1629 12.1906 34.8441 12.308L35.622 13.9127H33.5304L34.3083 12.2952Z"/>
            <path fill-rule="evenodd" clip-rule="evenodd" d="M38.5617 43.1128L35.9989 46.9996H34.519L37.8607 42.0826L34.6727 37.4655H36.4453L38.7663 40.8306L40.9718 37.4655H42.4007L39.4547 41.8479L43 46.9996H41.2399L38.5617 43.1128Z"/>
            <path fill-rule="evenodd" clip-rule="evenodd" d="M39.6731 12.3734L40.8849 10.7038L42.1092 12.3734L40.8849 14.0429L39.6731 12.3734Z"/>
        </symbol>
        <symbol id="themeRouteMask" width="130" height="150" viewBox="0 0 220 250" fill="none" xmlns="http://www.w3.org/2000/svg">
            <path fill-rule="evenodd" clip-rule="evenodd" d="M108 0C168.75 0 216 47.1579 216 107.789C216 175.158 146.25 211.088 108 256C69.75 211.088 0 172.912 0 107.789C0 47.1579 47.25 0 108 0Z" fill="black"/>
        </symbol>
        <symbol id="arrow-left" xmlns="http://www.w3.org/2000/svg" width="20" height="20" viewBox="0 0 20 20">
            <path d="M0 10.902H17.466L14.9443 13.4316L15.5109 14L19 10.5L15.5109 7L14.9443 7.56839L17.466 10.098H0V10.902Z"/>
        </symbol>
        <symbol id="mobileLogo" xmlns="http://www.w3.org/2000/svg" width="87" height="20" viewBox="0 0 87 20">
            <path fill-rule="evenodd" clip-rule="evenodd" d="M12.2499 9.65783C13.8251 10.3149 15.1775 11.9024 15.1775 14.2002C15.1775 17.1554 13.5156 19.0423 11.4039 19.6168C10.1084 20 8.75818 20 7.52001 20H0V0.000780293H7.9695C8.95513 0.000780293 10.0537 0.0271503 11.1518 0.30145C13.0386 0.793489 14.7831 2.32616 14.7831 5.14443C14.7831 7.74326 13.2631 9.00164 12.2499 9.52175V9.65783ZM8.10912 8.67333C8.84309 8.67333 9.5171 8.59082 10.0808 8.26336C10.8971 7.82533 11.4612 6.89527 11.4612 5.49996C11.4612 4.13186 10.785 3.22858 9.79895 2.90113C9.32233 2.70933 8.73061 2.65362 7.9695 2.65362H3.26719V8.67333H8.10912ZM11.7706 14.2002C11.7706 12.75 11.0393 11.9292 10.1657 11.5737C9.602 11.3542 8.95513 11.2998 8.39141 11.2998H3.26719V17.3735H8.33627C8.95513 17.3735 9.54686 17.3191 10.0261 17.1554C11.1242 16.7441 11.7706 15.7864 11.7706 14.2002Z"/>
            <path fill-rule="evenodd" clip-rule="evenodd" d="M41.2475 17.0722L39.0513 19.9994H18.3829L29.5894 0.000137979H36.4603V17.1547L41.2475 17.0722ZM33.2505 17.2904V2.43481H31.1116L22.9727 17.2904H33.2505Z"/>
            <path fill-rule="evenodd" clip-rule="evenodd" d="M62.9094 0.000137979V19.9998H59.6422V10.7246H49.1968V19.9998H45.9572V0.000137979H49.1968V7.98885H59.6422V0.000137979H62.9094Z"/>
            <path fill-rule="evenodd" clip-rule="evenodd" d="M77.201 11.8459L71.5429 19.9992H68.2757L75.6535 9.68512L68.6149 0H72.5285L77.6527 7.05866L82.5222 0H85.6769L79.1727 9.19266L87 19.9992H83.1139L77.201 11.8459Z"/>
        </symbol>
        <symbol id="mobilePoster" xmlns="http://www.w3.org/2000/svg" width="99" height="30" viewBox="0 0 99 30">
            <path d="M94.5289 24.1858L95.0856 21.2785C93.4773 23.4126 91.4979 24.5878 88.4361 24.5878C85.7144 24.5878 83.4258 22.9796 83.4258 20.4126C83.4258 16.6394 86.9206 14.8456 96.4773 14.1033L96.601 13.5775C96.7247 12.9899 96.7866 12.495 96.7866 12.0311C96.7866 9.06206 94.4979 8.25793 92.2402 8.25793C88.9 8.25793 86.8897 9.89711 86.3639 12.3713H85.0959C85.6835 9.15484 88.4979 7.14453 92.2093 7.14453C95.4567 7.14453 98.0237 8.47443 98.0237 11.8456C98.0237 12.4332 97.9 13.0208 97.7454 13.7322L96.7247 18.4641C96.2608 20.5672 95.9825 22.2992 95.7041 24.1858H94.5289ZM95.9206 17.0105L96.3227 15.2167C87.0443 16.1136 84.7247 17.66 84.7247 20.2579C84.7247 22.1136 86.2093 23.4744 88.7763 23.4744C91.5598 23.4744 94.9309 21.8662 95.9206 17.0105Z"/>
            <path d="M69.9384 12.8658C69.1343 15.0101 68.392 16.8349 67.7116 18.34C67.0312 19.8245 66.3611 21.0307 65.7013 21.9586C65.0415 22.8864 64.3611 23.5668 63.66 23.9998C62.959 24.4122 62.1961 24.6184 61.3714 24.6184C60.5054 24.6184 59.9178 24.3709 59.6085 23.8761C59.2992 23.3812 59.1652 22.773 59.2064 22.0513C59.2683 21.3297 59.4126 20.6287 59.6394 19.9483L62.6394 10.9173C62.8456 10.2781 62.9178 9.80392 62.8559 9.49464C62.7941 9.16475 62.5569 8.9998 62.1446 8.9998C61.7528 8.9998 61.3611 9.21629 60.9693 9.64928C60.5982 10.0823 60.1961 10.9173 59.7631 12.1544L59.3611 13.2988H58.7734L59.5466 11.041C59.8559 10.1751 60.2167 9.51526 60.6291 9.06166C61.0621 8.60805 61.5054 8.29877 61.959 8.13382C62.4332 7.94825 62.8765 7.85547 63.2889 7.85547C64.1961 7.85547 64.7941 8.07196 65.0827 8.50495C65.392 8.91732 65.5054 9.45341 65.4229 10.1132C65.3611 10.773 65.2064 11.4637 64.959 12.1854L62.0209 21.0307C61.8147 21.6699 61.7116 22.2678 61.7116 22.8245C61.7116 23.3606 61.9384 23.6287 62.392 23.6287C62.8868 23.6287 63.4023 23.3916 63.9384 22.9173C64.4745 22.4431 65.0209 21.773 65.5776 20.907C66.1549 20.041 66.7322 18.9998 67.3095 17.7833C67.8868 16.5668 68.4538 15.2163 69.0105 13.7318C69.5673 12.2266 70.1136 10.6184 70.6497 8.90702L69.9384 12.8658ZM69.7528 21.0307C69.6291 21.4431 69.5363 21.8555 69.4745 22.2678C69.4332 22.6596 69.4642 22.9895 69.5672 23.2575C69.691 23.505 69.9384 23.6287 70.3095 23.6287C70.7837 23.6287 71.2889 23.4019 71.825 22.9483C72.3611 22.474 72.9075 21.8142 73.4642 20.9689C74.0415 20.1235 74.6085 19.1235 75.1652 17.9689C75.7219 16.8142 76.2477 15.5462 76.7425 14.1647C77.258 12.7833 77.7219 11.3194 78.1343 9.773L77.1136 14.7214C76.4126 16.5771 75.7425 18.1338 75.1033 19.3916C74.4642 20.6493 73.8353 21.6699 73.2167 22.4534C72.5982 23.2163 71.9693 23.773 71.3301 24.1235C70.691 24.4534 70.0105 24.6184 69.2889 24.6184C68.6291 24.6184 68.1446 24.474 67.8353 24.1854C67.5466 23.8761 67.3714 23.4843 67.3095 23.0101C67.2477 22.5359 67.258 22.0307 67.3404 21.4946C67.4435 20.9586 67.5569 20.4431 67.6807 19.9483L70.8353 8.28846C71.3508 8.26784 71.8456 8.2266 72.3198 8.16475C72.8147 8.10289 73.258 7.9998 73.6497 7.85547L69.7528 21.0307ZM77.4848 21.5565C77.4435 21.7214 77.392 21.9586 77.3301 22.2678C77.2683 22.5771 77.2683 22.8555 77.3301 23.1029C77.392 23.3503 77.5879 23.474 77.9178 23.474C78.3714 23.474 78.7837 23.2369 79.1549 22.7627C79.5466 22.2678 79.9384 21.4534 80.3301 20.3194L80.7322 19.1751H81.3198L80.5466 21.4328C80.258 22.2988 79.8971 22.9586 79.4642 23.4122C79.0518 23.8658 78.6085 24.1751 78.1343 24.34C77.6806 24.5256 77.2374 24.6184 76.8044 24.6184C76.1858 24.6184 75.7425 24.474 75.4745 24.1854C75.227 23.9173 75.0827 23.5668 75.0415 23.1338C75.0209 22.7008 75.0518 22.2369 75.1343 21.7421C75.2374 21.2266 75.3508 20.7421 75.4745 20.2885L78.5054 8.28846C79.0209 8.26784 79.5157 8.2266 79.9899 8.16475C80.4848 8.10289 80.9281 7.9998 81.3198 7.85547L77.4848 21.5565Z"/>
            <path d="M41.7221 24.186H40.5469L44.0726 7.54688H45.2788L42.1551 22.1448L55.9489 7.54688H57.1551L53.6293 24.186H52.4232L55.5159 9.4644L41.7221 24.186Z"/>
            <path d="M34.4932 8.84536C34.0395 8.84536 33.5138 9.10309 32.9158 9.61856C32.3385 10.134 31.7509 10.8351 31.1529 11.7216C30.5756 12.6082 30.0292 13.6186 29.5138 14.7526C29.0189 15.8866 28.6169 17.0722 28.3076 18.3093L29.0189 14.9691C29.7406 13.1959 30.4416 11.7938 31.122 10.7629C31.8231 9.73196 32.5241 8.98969 33.2251 8.53608C33.9261 8.08248 34.6478 7.85567 35.3901 7.85567C36.3591 7.85567 37.1323 8.2165 37.7097 8.93814C38.3076 9.65979 38.6066 10.7526 38.6066 12.2165C38.6066 13.1443 38.4725 14.1649 38.2045 15.2784C37.9571 16.3918 37.5756 17.4948 37.0602 18.5876C36.5653 19.6804 35.9468 20.6907 35.2045 21.6186C34.4828 22.5258 33.6478 23.2577 32.6993 23.8144C31.7509 24.3505 30.6993 24.6186 29.5447 24.6186C28.9261 24.6186 28.3694 24.433 27.8746 24.0619C27.4004 23.6907 27.0808 23.1546 26.9158 22.4536L27.1633 21.8351C27.4519 22.5979 27.7818 23.134 28.1529 23.4433C28.5447 23.7526 28.9983 23.9072 29.5138 23.9072C30.2148 23.9072 30.8849 23.6392 31.5241 23.1031C32.1633 22.5464 32.7509 21.8144 33.287 20.9072C33.823 20 34.287 19 34.6787 17.9072C35.0911 16.7938 35.4004 15.6907 35.6066 14.5979C35.8334 13.4845 35.9468 12.4639 35.9468 11.5361C35.9468 10.6289 35.8127 9.95876 35.5447 9.52577C35.2973 9.07216 34.9468 8.84536 34.4932 8.84536ZM20.6993 23.6289C21.1736 23.6289 21.6993 23.3711 22.2767 22.8557C22.854 22.3402 23.4313 21.6392 24.0086 20.7526C24.6066 19.866 25.1529 18.8557 25.6478 17.7216C26.1633 16.5876 26.5756 15.4021 26.8849 14.1649L26.2663 17.5052C25.5447 19.2577 24.8334 20.6598 24.1323 21.7113C23.4313 22.7423 22.72 23.4845 21.9983 23.9381C21.2973 24.3918 20.5653 24.6186 19.8024 24.6186C19.1633 24.6186 18.5962 24.4639 18.1014 24.1546C17.6272 23.8247 17.256 23.3402 16.988 22.701C16.72 22.0412 16.5859 21.2268 16.5859 20.2577C16.5859 19.3299 16.7096 18.3093 16.9571 17.1959C17.2251 16.0825 17.6066 14.9794 18.1014 13.8866C18.6169 12.7938 19.2354 11.7938 19.9571 10.8866C20.6993 9.95876 21.5447 9.2268 22.4932 8.69072C23.4416 8.13402 24.4932 7.85567 25.6478 7.85567C26.2663 7.85567 26.8127 8.04124 27.287 8.41237C27.7818 8.78351 28.1117 9.31959 28.2767 10.0206L28.0292 10.6392C27.7612 9.85567 27.4313 9.31959 27.0395 9.03093C26.6684 8.72165 26.2148 8.56701 25.6787 8.56701C24.9777 8.56701 24.3076 8.84536 23.6684 9.40206C23.0292 9.93815 22.4416 10.6598 21.9055 11.567C21.3694 12.4742 20.8952 13.4845 20.4828 14.5979C20.0911 15.6907 19.7818 16.7938 19.555 17.9072C19.3488 19 19.2457 20.0103 19.2457 20.9381C19.2457 21.8454 19.3694 22.5258 19.6169 22.9794C19.8849 23.4124 20.2457 23.6289 20.6993 23.6289ZM35.3591 0.463918C34.9674 0.463918 34.6272 0.546393 34.3385 0.71134C34.0499 0.876289 33.7921 1.06186 33.5653 1.26804C33.1942 1.61856 32.8643 2.15464 32.5756 2.87629C32.3076 3.57732 32.0499 4.39175 31.8024 5.31959C31.5756 6.24743 31.3282 7.22681 31.0602 8.25773L25.3385 29.567C24.8437 29.5876 24.3591 29.6289 23.8849 29.6907C23.4107 29.7526 22.9674 29.8557 22.555 30L28.3694 8.25773C28.8024 6.60825 29.256 5.24742 29.7303 4.17526C30.2251 3.10309 30.8231 2.2268 31.5241 1.54639C31.9983 1.07217 32.5756 0.701032 33.256 0.432991C33.9571 0.14433 34.6684 0 35.3901 0C36.3385 0 37.0602 0.216495 37.555 0.649485C38.0705 1.06186 38.3282 1.57732 38.3282 2.19588C38.3282 2.54639 38.2354 2.8866 38.0499 3.2165C37.8643 3.54639 37.6169 3.81443 37.3076 4.02062C36.9983 4.2268 36.6478 4.3299 36.256 4.3299C35.8643 4.3299 35.555 4.23711 35.3282 4.05155C35.1014 3.86598 34.9983 3.60825 35.0189 3.27835C35.0189 2.76289 35.1839 2.3299 35.5138 1.97938C35.8437 1.60825 36.2663 1.35052 36.7818 1.20619C36.7818 1.02062 36.6478 0.855671 36.3798 0.71134C36.1117 0.546393 35.7715 0.463918 35.3591 0.463918Z"/>
            <path d="M11.1031 24.1858L11.6598 21.2785C10.0515 23.4126 8.07216 24.5878 5.01031 24.5878C2.28866 24.5878 0 22.9796 0 20.4126C0 16.6394 3.49484 14.8456 13.0515 14.1033L13.1753 13.5775C13.299 12.9899 13.3608 12.495 13.3608 12.0311C13.3608 9.06206 11.0722 8.25793 8.81443 8.25793C5.47423 8.25793 3.46392 9.89711 2.93814 12.3713H1.6701C2.25773 9.15484 5.07216 7.14453 8.7835 7.14453C12.0309 7.14453 14.5979 8.47443 14.5979 11.8456C14.5979 12.4332 14.4742 13.0208 14.3196 13.7322L13.299 18.4641C12.835 20.5672 12.5567 22.2992 12.2783 24.1858H11.1031ZM12.4948 17.0105L12.8969 15.2167C3.61856 16.1136 1.29897 17.66 1.29897 20.2579C1.29897 22.1136 2.7835 23.4744 5.35051 23.4744C8.13402 23.4744 11.5052 21.8662 12.4948 17.0105Z"/>
        </symbol>
        <symbol id="arrowFooter" xmlns="http://www.w3.org/2000/svg" width="12" height="8" viewBox="0 0 12 8" fill="none">
            <path d="M1 6.5L6 1.5L11 6.5" stroke-width="1.5"/>
        </symbol>
        <symbol id="home" xmlns="http://www.w3.org/2000/svg" width="24" height="24" viewBox="0 0 42 42">
            <path fill-rule="evenodd" clip-rule="evenodd" d="M24.0047 26.7597C26.1117 26.7597 27.8267 28.4624 27.8267 30.5554V35.9384C27.8267 36.3882 28.1873 36.7487 28.6493 36.7592H31.9848C34.6133 36.7592 36.75 34.6487 36.75 32.0552V16.7882C36.7378 15.8957 36.3125 15.0557 35.5827 14.4974L24.045 5.29594C22.4963 4.06919 20.3298 4.06919 18.7758 5.29944L7.31675 14.4939C6.559 15.0697 6.13375 15.9097 6.125 16.8179V32.0552C6.125 34.6487 8.26175 36.7592 10.8902 36.7592H14.2572C14.7315 36.7592 15.1165 36.3829 15.1165 35.9209C15.1165 35.8194 15.1287 35.7179 15.1497 35.6217V30.5554C15.1497 28.4747 16.8542 26.7737 18.9455 26.7597H24.0047ZM31.9848 39.3842H28.6178C26.6893 39.3387 25.2017 37.8249 25.2017 35.9384V30.5554C25.2017 29.9097 24.6645 29.3847 24.0047 29.3847H18.9543C18.3085 29.3882 17.7748 29.9149 17.7748 30.5554V35.9209C17.7748 36.0522 17.7573 36.1782 17.7205 36.2972C17.5315 38.0297 16.051 39.3842 14.2572 39.3842H10.8902C6.8145 39.3842 3.5 36.0959 3.5 32.0552V16.8057C3.5175 15.0662 4.319 13.4737 5.70325 12.4254L17.1395 3.24669C19.6577 1.25169 23.1665 1.25169 25.6795 3.24319L37.198 12.4307C38.5508 13.4614 39.3522 15.0504 39.375 16.7689V32.0552C39.375 36.0959 36.0605 39.3842 31.9848 39.3842Z"/>
        </symbol>
        <symbol id="popular" xmlns="http://www.w3.org/2000/svg" width="24" height="24" viewBox="0 0 42 42">
            <path fill-rule="evenodd" clip-rule="evenodd" d="M10.9375 22.75C18.0582 22.75 18.375 25.165 18.375 30.1875C18.375 32.704 18.375 34.4942 17.318 35.805C16.1017 37.3152 13.888 37.625 10.9375 37.625C7.987 37.625 5.77325 37.3152 4.557 35.805C3.5 34.4942 3.5 32.7057 3.5 30.2312L4.8125 30.1875H3.5C3.5 25.165 3.81675 22.75 10.9375 22.75ZM30.1875 22.75C37.3083 22.75 37.625 25.165 37.625 30.1875C37.625 32.704 37.625 34.4942 36.568 35.805C35.3517 37.3152 33.138 37.625 30.1875 37.625C27.237 37.625 25.0233 37.3152 23.807 35.805C22.75 34.4942 22.75 32.7057 22.75 30.2312L24.0625 30.1875H22.75C22.75 25.165 23.0667 22.75 30.1875 22.75ZM11.2983 25.3758L10.9375 25.375C6.37179 25.375 6.13766 25.7026 6.12565 29.5348L6.12638 31.0278C6.13468 32.552 6.19275 33.653 6.59925 34.16C7.063 34.734 8.44025 35 10.9375 35C13.4347 35 14.812 34.7322 15.2758 34.1582C15.75 33.5685 15.75 32.1685 15.75 30.2295C15.75 25.8541 15.75 25.3964 11.2983 25.3758ZM30.5483 25.3758L30.1875 25.375C25.6218 25.375 25.3877 25.7026 25.3756 29.5348L25.3764 31.0278C25.3847 32.552 25.4427 33.653 25.8493 34.16C26.313 34.734 27.6903 35 30.1875 35C32.6847 35 34.062 34.7322 34.5257 34.1582C35 33.5685 35 32.1685 35 30.2295C35 25.8541 35 25.3964 30.5483 25.3758ZM10.9375 3.5C18.0582 3.5 18.375 5.915 18.375 10.9375C18.375 13.454 18.375 15.2443 17.318 16.555C16.1017 18.0653 13.888 18.375 10.9375 18.375C7.987 18.375 5.77325 18.0653 4.557 16.555C3.5 15.2443 3.5 13.4558 3.5 10.9813L4.8125 10.9375H3.5C3.5 5.915 3.81675 3.5 10.9375 3.5ZM30.1875 3.5C37.3083 3.5 37.625 5.915 37.625 10.9375C37.625 13.454 37.625 15.2443 36.568 16.555C35.3517 18.0653 33.138 18.375 30.1875 18.375C27.237 18.375 25.0233 18.0653 23.807 16.555C22.75 15.2443 22.75 13.4558 22.75 10.9813L24.0625 10.9375H22.75C22.75 5.915 23.0667 3.5 30.1875 3.5ZM11.2983 6.12578L10.9375 6.125C6.37179 6.125 6.13766 6.45262 6.12565 10.2848L6.12638 11.7778C6.13468 13.302 6.19275 14.403 6.59925 14.91C7.063 15.484 8.44025 15.75 10.9375 15.75C13.4347 15.75 14.812 15.4823 15.2758 14.9082C15.75 14.3185 15.75 12.9185 15.75 10.9795C15.75 6.60414 15.75 6.14638 11.2983 6.12578ZM30.5483 6.12578L30.1875 6.125C25.6218 6.125 25.3877 6.45262 25.3756 10.2848L25.3764 11.7778C25.3847 13.302 25.4427 14.403 25.8493 14.91C26.313 15.484 27.6903 15.75 30.1875 15.75C32.6847 15.75 34.062 15.4823 34.5257 14.9082C35 14.3185 35 12.9185 35 10.9795C35 6.60414 35 6.14638 30.5483 6.12578Z"/>
        </symbol>
        <symbol id="categories" xmlns="http://www.w3.org/2000/svg" width="24" height="24" viewBox="0 0 43 42">
            <path fill-rule="evenodd" clip-rule="evenodd" d="M28.3408 3.5C33.8428 3.5 37.5387 7.26775 37.5387 12.8748V28.9678C37.5387 34.6238 33.9565 38.3022 28.4125 38.3372L14.9498 38.3425C9.44775 38.3425 5.75 34.5748 5.75 28.9678V12.8748C5.75 7.217 9.33225 3.54025 14.8763 3.507L28.339 3.5H28.3408ZM28.3408 6.125L14.885 6.132C10.811 6.1565 8.375 8.6765 8.375 12.8748V28.9678C8.375 33.194 10.8338 35.7175 14.948 35.7175L28.4038 35.7122C32.4778 35.6877 34.9137 33.1643 34.9137 28.9678V12.8748C34.9137 8.6485 32.4568 6.125 28.3408 6.125ZM28.0032 27.079C28.7277 27.079 29.3157 27.667 29.3157 28.3915C29.3157 29.116 28.7277 29.704 28.0032 29.704H15.3682C14.6437 29.704 14.0557 29.116 14.0557 28.3915C14.0557 27.667 14.6437 27.079 15.3682 27.079H28.0032ZM28.0032 19.7526C28.7277 19.7526 29.3157 20.3406 29.3157 21.0651C29.3157 21.7896 28.7277 22.3776 28.0032 22.3776H15.3682C14.6437 22.3776 14.0557 21.7896 14.0557 21.0651C14.0557 20.3406 14.6437 19.7526 15.3682 19.7526H28.0032ZM20.1889 12.4432C20.9134 12.4432 21.5014 13.0312 21.5014 13.7557C21.5014 14.4802 20.9134 15.0682 20.1889 15.0682H15.3677C14.6432 15.0682 14.0552 14.4802 14.0552 13.7557C14.0552 13.0312 14.6432 12.4432 15.3677 12.4432H20.1889Z" />
        </symbol>
        <symbol id="buy" xmlns="http://www.w3.org/2000/svg" width="24" height="24" viewBox="0 0 42 42" >
            <path fill-rule="evenodd" clip-rule="evenodd" d="M13.2026 34.9158C14.4521 34.9158 15.4689 35.9308 15.4689 37.1803C15.4689 38.4298 14.4521 39.4466 13.2026 39.4466C11.9531 39.4466 10.9381 38.4298 10.9381 37.1803C10.9381 35.9308 11.9531 34.9158 13.2026 34.9158ZM32.9432 34.9158C34.1944 34.9158 35.2112 35.9308 35.2112 37.1803C35.2112 38.4298 34.1944 39.4466 32.9432 39.4466C31.6937 39.4466 30.6787 38.4298 30.6787 37.1803C30.6787 35.9308 31.6937 34.9158 32.9432 34.9158ZM5.72 5.2666L9.36 5.8966C9.94625 5.99985 10.3925 6.48635 10.4432 7.08135L10.8545 11.9831L12.3837 11.9838C12.6333 11.9839 12.8802 11.984 13.1245 11.9841L15.932 11.9854C16.1558 11.9855 16.3771 11.9857 16.5959 11.9858L19.6958 11.9875C19.8906 11.9876 20.083 11.9877 20.2731 11.9878L22.4454 11.9892C22.6175 11.9893 22.7874 11.9894 22.9552 11.9895L24.8658 11.991C25.0167 11.9911 25.1655 11.9912 25.3123 11.9913L26.9782 11.9927C27.1092 11.9929 27.2383 11.993 27.3655 11.9931L28.4605 11.9942C28.5766 11.9943 28.691 11.9944 28.8036 11.9946L30.0716 11.996C30.1705 11.9961 30.2677 11.9963 30.3633 11.9964L31.4339 11.9979C31.5169 11.998 31.5984 11.9981 31.6784 11.9983L32.3588 11.9994C32.4301 11.9995 32.5 11.9997 32.5685 11.9998L33.3265 12.0013C33.3844 12.0014 33.4411 12.0016 33.4965 12.0017L33.963 12.0029C34.0113 12.003 34.0584 12.0031 34.1045 12.0033L34.6045 12.0048C34.642 12.005 34.6785 12.0051 34.714 12.0052L35.0076 12.0064C35.0375 12.0066 35.0664 12.0067 35.0945 12.0068L35.3915 12.0085C35.4131 12.0086 35.4339 12.0087 35.454 12.0089L35.6159 12.0101C35.6318 12.0102 35.6472 12.0104 35.6619 12.0105L35.7784 12.0117C35.7897 12.0119 35.8004 12.012 35.8107 12.0122L35.8899 12.0134C35.8974 12.0136 35.9045 12.0137 35.9111 12.0138L35.9613 12.0151C35.9659 12.0153 35.9701 12.0154 35.9741 12.0155L36.0105 12.0172L36.0167 12.0177C36.0337 12.0193 36.0387 12.0199 36.0387 12.0199C37.0135 12.1616 37.871 12.6709 38.4555 13.4549C39.04 14.2371 39.285 15.2014 39.145 16.1674L37.4842 27.6439C37.171 29.8279 35.274 31.4746 33.069 31.4746H13.9572C11.6525 31.4746 9.70125 29.6756 9.514 27.3744L7.911 8.30985L5.27375 7.85485C4.558 7.72885 4.08025 7.0516 4.20275 6.33585C4.32875 5.6201 5.02 5.1546 5.72 5.2666ZM12.0327 14.6087L11.075 14.6081L12.1302 27.1591C12.2072 28.1251 12.9965 28.8496 13.9607 28.8496H33.0655C33.9772 28.8496 34.756 28.1706 34.8855 27.2694L36.548 15.7911C36.5865 15.5181 36.5182 15.2451 36.352 15.0246C36.1875 14.8024 35.946 14.6589 35.673 14.6204C35.6604 14.6208 35.6302 14.6213 35.5832 14.6217L35.3928 14.6228C35.353 14.6229 35.3092 14.6231 35.2616 14.6232L34.2702 14.6247C34.1865 14.6248 34.0996 14.6248 34.0094 14.6249L31.6784 14.6248C31.5484 14.6247 31.4159 14.6247 31.281 14.6246L28.6208 14.623C28.4614 14.6229 28.3003 14.6228 28.1375 14.6227L26.6323 14.6214C26.4608 14.6213 26.2881 14.6212 26.1142 14.621L24.5198 14.6196C24.3397 14.6194 24.1588 14.6193 23.9771 14.6191L22.8788 14.6181C22.6946 14.6179 22.5098 14.6178 22.3245 14.6176L20.6485 14.616C20.4617 14.6159 20.2747 14.6157 20.0877 14.6155L18.9666 14.6145C18.78 14.6143 18.5936 14.6141 18.4076 14.6139L17.296 14.6129C17.1116 14.6128 16.9278 14.6126 16.7446 14.6124L15.1162 14.611C14.9379 14.6109 14.7605 14.6107 14.5841 14.6106L12.5263 14.609C12.3602 14.6089 12.1956 14.6088 12.0327 14.6087ZM30.2548 18.4516C30.9793 18.4516 31.5673 19.0396 31.5673 19.7641C31.5673 20.4886 30.9793 21.0766 30.2548 21.0766H25.4038C24.6776 21.0766 24.0913 20.4886 24.0913 19.7641C24.0913 19.0396 24.6776 18.4516 25.4038 18.4516H30.2548Z"/>
        </symbol>
        <symbol id="ticketMobile" xmlns="http://www.w3.org/2000/svg" width="24" height="24" viewBox="0 0 49 49">
            <path fill-rule="evenodd" clip-rule="evenodd" d="M37.1394 8.15234C41.6273 8.15234 45.2787 11.7676 45.2787 16.2092L45.2807 21.4249C45.2807 21.8231 45.1219 22.2091 44.8384 22.4906C44.5569 22.7741 44.1728 22.933 43.7727 22.933C42.1903 22.933 40.9034 24.1957 40.9034 25.7479C40.9034 27.3002 42.1903 28.5629 43.7727 28.5629C44.6051 28.5629 45.2807 29.2385 45.2807 30.0709V35.2827C45.2807 39.7243 41.6293 43.3395 37.1414 43.3395H10.1901C5.7022 43.3395 2.05078 39.7243 2.05078 35.2827V30.0709C2.05078 29.2385 2.72637 28.5629 3.5588 28.5629C5.14122 28.5629 6.42806 27.3002 6.42806 25.7479C6.42806 24.2399 5.1935 23.1019 3.5588 23.1019C3.15867 23.1019 2.77463 22.943 2.49313 22.6595C2.20963 22.378 2.05078 21.992 2.05078 21.5938L2.05279 16.2092C2.05279 11.7676 5.70421 8.15234 10.1921 8.15234H37.1394ZM37.1394 11.1684H28.8915L28.8928 15.0313C28.8928 15.8638 28.2172 16.5394 27.3847 16.5394C26.5523 16.5394 25.8767 15.8638 25.8767 15.0313L25.8755 11.1684H10.1921C7.36706 11.1684 5.06883 13.4304 5.06883 16.2092L5.06682 20.2668C7.61437 20.8921 9.44411 23.0757 9.44411 25.7479C9.44411 28.4463 7.5822 30.7224 5.06682 31.3839V35.2827C5.06682 38.0614 7.36505 40.3235 10.1901 40.3235H25.8755L25.8767 37.3305C25.8767 36.4961 26.5523 35.8225 27.3847 35.8225C28.2172 35.8225 28.8928 36.4961 28.8928 37.3305L28.8915 40.3235H37.1414C39.9665 40.3235 42.2647 38.0614 42.2647 35.2827V31.3839C39.7493 30.7224 37.8874 28.4463 37.8874 25.7479C37.8874 23.0476 39.7473 20.7735 42.2647 20.112L42.2627 16.2092C42.2627 13.4304 39.9644 11.1684 37.1394 11.1684ZM27.3847 19.2202C28.2172 19.2202 28.8928 19.8958 28.8928 20.7282V30.4218C28.8928 31.2542 28.2172 31.9298 27.3847 31.9298C26.5523 31.9298 25.8767 31.2542 25.8767 30.4218V20.7282C25.8767 19.8958 26.5523 19.2202 27.3847 19.2202Z"/>
        </symbol>
        <symbol id="arrow-short-right-grey" width="24" height="24" viewBox="0 0 24 24" fill="none" xmlns="http://www.w3.org/2000/svg">
            <g >
                <path id="fill" d="M8.29289 5.70711C7.90237 5.31658 7.90237 4.68342 8.29289 4.29289C8.68342 3.90237 9.31658 3.90237 9.70711 4.29289L16.3536 10.9393C16.9393 11.5251 16.9393 12.4749 16.3536 13.0607L9.70711 19.7071C9.31658 20.0976 8.68342 20.0976 8.29289 19.7071C7.90237 19.3166 7.90237 18.6834 8.29289 18.2929L14.5858 12L8.29289 5.70711Z" fill="#B3B8CC"/>
            </g>
        </symbol>
        <symbol id="phone-grey" width="16" height="16" viewBox="0 0 16 16" fill="none" xmlns="http://www.w3.org/2000/svg">
            <g>
                <path id="Vector" d="M15.928 12.7513L15.8484 12.5114C15.6598 11.9507 15.0415 11.366 14.4736 11.212L12.3715 10.6378C11.8015 10.4827 10.9883 10.6912 10.5712 11.1083L9.81047 11.869C7.04566 11.1219 4.87761 8.95382 4.13152 6.18954L4.89233 5.42873C5.3094 5.01166 5.5179 4.19959 5.36282 3.62954L4.78962 1.52645C4.63454 0.957442 4.04877 0.339213 3.48922 0.152674L3.24926 0.071996C2.68864 -0.114543 1.8891 0.0741085 1.47207 0.491146L0.334058 1.6302C0.130753 1.83243 0.000816572 2.41085 0.000816572 2.41297C-0.0389859 6.02604 1.37774 9.50707 3.93348 12.0628C6.48296 14.6123 9.95094 16.027 13.5535 15.9966C13.5724 15.9966 14.1676 15.8687 14.3709 15.6665L15.5089 14.5285C15.9259 14.1114 16.1145 13.3119 15.928 12.7513Z" fill="#595857"/>
            </g>
        </symbol>
        <symbol id="arrow-short-left" width="23" height="24" viewBox="0 0 23 24" xmlns="http://www.w3.org/2000/svg">
            <g >
                <path id="Vector" d="M14.8743 7.11703L10.5361 11.707L14.8743 16.297L13.5387 17.707L7.85547 11.707L13.5387 5.70703L14.8743 7.11703Z" />
            </g>
        </symbol>

        <symbol id="checkpoint" viewBox="0 0 20 20" xmlns="http://www.w3.org/2000/svg">
            <circle cx="10" cy="10" r="10" fill="#F6F6F6"/>
            <g clip-path="url(#clip0_3726_171756)">
                <g clip-path="url(#clip1_3726_171756)">
                    <g clip-path="url(#clip2_3726_171756)">
                        <path d="M14.5625 6.65648H8.76453C8.2182 6.05109 7.28305 6.0068 6.6875 6.55805C6.3725 6.83367 6.19531 7.22742 6.19531 7.64086V12.0705C6.06478 12.0705 5.93959 12.1224 5.84728 12.2147C5.75498 12.307 5.70312 12.4322 5.70312 12.5627V13.0549H9.64062V12.5627C9.64062 12.4322 9.58877 12.307 9.49647 12.2147C9.40416 12.1224 9.27897 12.0705 9.14844 12.0705V8.62523H14.5625C14.8236 8.62523 15.074 8.52152 15.2586 8.33692C15.4432 8.15231 15.5469 7.90193 15.5469 7.64086C15.5469 7.37979 15.4432 7.12941 15.2586 6.9448C15.074 6.7602 14.8236 6.65648 14.5625 6.65648ZM7.67188 8.37914C7.47607 8.37914 7.28829 8.30136 7.14983 8.1629C7.01138 8.02445 6.93359 7.83666 6.93359 7.64086C6.93359 7.44506 7.01138 7.25727 7.14983 7.11882C7.28829 6.98036 7.47607 6.90258 7.67188 6.90258C7.86768 6.90258 8.05546 6.98036 8.19392 7.11882C8.33237 7.25727 8.41016 7.44506 8.41016 7.64086C8.41016 7.83666 8.33237 8.02445 8.19392 8.1629C8.05546 8.30136 7.86768 8.37914 7.67188 8.37914ZM9.88672 8.13305L9.14844 7.14867H9.88672L10.625 8.13305H9.88672ZM11.8555 8.13305L11.1172 7.14867H11.8555L12.5937 8.13305H11.8555ZM13.8242 8.13305L13.0859 7.14867H13.8242L14.5625 8.13305H13.8242Z"/>
                    </g>
                </g>
            </g>
            <defs>
                <clipPath id="clip0_3726_171756">
                    <rect width="10.9375" height="10.9375" fill="white" transform="translate(5.15625 4.53125)"/>
                </clipPath>
                <clipPath id="clip1_3726_171756">
                    <rect width="10.9375" height="10.9375" fill="white" transform="translate(5.15625 4.53125)"/>
                </clipPath>
                <clipPath id="clip2_3726_171756">
                    <rect width="10.9375" height="10.9375" fill="white" transform="translate(5.15625 4.53125)"/>
                </clipPath>
            </defs>
        </symbol>

        <symbol id="entrypoint" viewBox="0 0 21 20" fill="none" xmlns="http://www.w3.org/2000/svg">
            <circle cx="10.1992" cy="10" r="10" fill="#F6F6F6"/>
            <g clip-path="url(#clip0_3726_171772)">
                <path d="M8.55859 6.94046H14.5742V8.53674H8.55859V10.3991L5.82422 7.7386L8.55859 5.07812V6.94046ZM11.8398 11.4633V9.60093L14.5742 12.2614L11.8398 14.9219V13.0595H5.82422V11.4633H11.8398Z" fill="#E63C46"/>
            </g>
            <defs>
                <clipPath id="clip0_3726_171772">
                    <rect width="13.125" height="13.125" fill="white" transform="translate(3.63672 3.4375)"/>
                </clipPath>
            </defs>
        </symbol>
        <symbol id="entrance" width="20" height="20" viewBox="0 0 20 20" xmlns="http://www.w3.org/2000/svg">
            <circle cx="10.2031" cy="10" r="10" fill="#F6F6F6"/>
            <g clip-path="url(#clip0_4173_409515)">
                <path d="M8.5625 6.94046H14.5781V8.53674H8.5625V10.3991L5.82812 7.7386L8.5625 5.07812V6.94046ZM11.8438 11.4633V9.60093L14.5781 12.2614L11.8438 14.9219V13.0595H5.82812V11.4633H11.8438Z"/>
            </g>
            <defs>
                <clipPath id="clip0_4173_409515">
                    <rect width="13.125" height="13.125" fill="white" transform="translate(3.64062 3.4375)"/>
                </clipPath>
            </defs>
        </symbol>


    </defs>
</svg>